%TF.GenerationSoftware,KiCad,Pcbnew,9.0.5*%
%TF.CreationDate,2026-01-21T22:21:38+00:00*%
%TF.ProjectId,zxeightyzon,7a786569-6768-4747-997a-6f6e2e6b6963,1.0*%
%TF.SameCoordinates,Original*%
%TF.FileFunction,Legend,Top*%
%TF.FilePolarity,Positive*%
%FSLAX46Y46*%
G04 Gerber Fmt 4.6, Leading zero omitted, Abs format (unit mm)*
G04 Created by KiCad (PCBNEW 9.0.5) date 2026-01-21 22:21:38*
%MOMM*%
%LPD*%
G01*
G04 APERTURE LIST*
%ADD10C,0.100000*%
%ADD11C,0.010000*%
%ADD12C,0.508000*%
G04 APERTURE END LIST*
D10*
X39708827Y-46204443D02*
X40280255Y-46204443D01*
X39994541Y-47204443D02*
X39994541Y-46204443D01*
X40613589Y-47204443D02*
X40613589Y-46204443D01*
X41042160Y-47204443D02*
X41042160Y-46680633D01*
X41042160Y-46680633D02*
X40994541Y-46585395D01*
X40994541Y-46585395D02*
X40899303Y-46537776D01*
X40899303Y-46537776D02*
X40756446Y-46537776D01*
X40756446Y-46537776D02*
X40661208Y-46585395D01*
X40661208Y-46585395D02*
X40613589Y-46633014D01*
X41518351Y-47204443D02*
X41518351Y-46537776D01*
X41518351Y-46204443D02*
X41470732Y-46252062D01*
X41470732Y-46252062D02*
X41518351Y-46299681D01*
X41518351Y-46299681D02*
X41565970Y-46252062D01*
X41565970Y-46252062D02*
X41518351Y-46204443D01*
X41518351Y-46204443D02*
X41518351Y-46299681D01*
X41946922Y-47156824D02*
X42042160Y-47204443D01*
X42042160Y-47204443D02*
X42232636Y-47204443D01*
X42232636Y-47204443D02*
X42327874Y-47156824D01*
X42327874Y-47156824D02*
X42375493Y-47061585D01*
X42375493Y-47061585D02*
X42375493Y-47013966D01*
X42375493Y-47013966D02*
X42327874Y-46918728D01*
X42327874Y-46918728D02*
X42232636Y-46871109D01*
X42232636Y-46871109D02*
X42089779Y-46871109D01*
X42089779Y-46871109D02*
X41994541Y-46823490D01*
X41994541Y-46823490D02*
X41946922Y-46728252D01*
X41946922Y-46728252D02*
X41946922Y-46680633D01*
X41946922Y-46680633D02*
X41994541Y-46585395D01*
X41994541Y-46585395D02*
X42089779Y-46537776D01*
X42089779Y-46537776D02*
X42232636Y-46537776D01*
X42232636Y-46537776D02*
X42327874Y-46585395D01*
X43565970Y-47204443D02*
X43565970Y-46537776D01*
X43565970Y-46204443D02*
X43518351Y-46252062D01*
X43518351Y-46252062D02*
X43565970Y-46299681D01*
X43565970Y-46299681D02*
X43613589Y-46252062D01*
X43613589Y-46252062D02*
X43565970Y-46204443D01*
X43565970Y-46204443D02*
X43565970Y-46299681D01*
X43994541Y-47156824D02*
X44089779Y-47204443D01*
X44089779Y-47204443D02*
X44280255Y-47204443D01*
X44280255Y-47204443D02*
X44375493Y-47156824D01*
X44375493Y-47156824D02*
X44423112Y-47061585D01*
X44423112Y-47061585D02*
X44423112Y-47013966D01*
X44423112Y-47013966D02*
X44375493Y-46918728D01*
X44375493Y-46918728D02*
X44280255Y-46871109D01*
X44280255Y-46871109D02*
X44137398Y-46871109D01*
X44137398Y-46871109D02*
X44042160Y-46823490D01*
X44042160Y-46823490D02*
X43994541Y-46728252D01*
X43994541Y-46728252D02*
X43994541Y-46680633D01*
X43994541Y-46680633D02*
X44042160Y-46585395D01*
X44042160Y-46585395D02*
X44137398Y-46537776D01*
X44137398Y-46537776D02*
X44280255Y-46537776D01*
X44280255Y-46537776D02*
X44375493Y-46585395D01*
X46042160Y-47204443D02*
X46042160Y-46680633D01*
X46042160Y-46680633D02*
X45994541Y-46585395D01*
X45994541Y-46585395D02*
X45899303Y-46537776D01*
X45899303Y-46537776D02*
X45708827Y-46537776D01*
X45708827Y-46537776D02*
X45613589Y-46585395D01*
X46042160Y-47156824D02*
X45946922Y-47204443D01*
X45946922Y-47204443D02*
X45708827Y-47204443D01*
X45708827Y-47204443D02*
X45613589Y-47156824D01*
X45613589Y-47156824D02*
X45565970Y-47061585D01*
X45565970Y-47061585D02*
X45565970Y-46966347D01*
X45565970Y-46966347D02*
X45613589Y-46871109D01*
X45613589Y-46871109D02*
X45708827Y-46823490D01*
X45708827Y-46823490D02*
X45946922Y-46823490D01*
X45946922Y-46823490D02*
X46042160Y-46775871D01*
X46518351Y-46537776D02*
X46518351Y-47204443D01*
X46518351Y-46633014D02*
X46565970Y-46585395D01*
X46565970Y-46585395D02*
X46661208Y-46537776D01*
X46661208Y-46537776D02*
X46804065Y-46537776D01*
X46804065Y-46537776D02*
X46899303Y-46585395D01*
X46899303Y-46585395D02*
X46946922Y-46680633D01*
X46946922Y-46680633D02*
X46946922Y-47204443D01*
X48375494Y-46204443D02*
X48565970Y-46204443D01*
X48565970Y-46204443D02*
X48661208Y-46252062D01*
X48661208Y-46252062D02*
X48756446Y-46347300D01*
X48756446Y-46347300D02*
X48804065Y-46537776D01*
X48804065Y-46537776D02*
X48804065Y-46871109D01*
X48804065Y-46871109D02*
X48756446Y-47061585D01*
X48756446Y-47061585D02*
X48661208Y-47156824D01*
X48661208Y-47156824D02*
X48565970Y-47204443D01*
X48565970Y-47204443D02*
X48375494Y-47204443D01*
X48375494Y-47204443D02*
X48280256Y-47156824D01*
X48280256Y-47156824D02*
X48185018Y-47061585D01*
X48185018Y-47061585D02*
X48137399Y-46871109D01*
X48137399Y-46871109D02*
X48137399Y-46537776D01*
X48137399Y-46537776D02*
X48185018Y-46347300D01*
X48185018Y-46347300D02*
X48280256Y-46252062D01*
X48280256Y-46252062D02*
X48375494Y-46204443D01*
X49232637Y-46537776D02*
X49232637Y-47537776D01*
X49232637Y-46585395D02*
X49327875Y-46537776D01*
X49327875Y-46537776D02*
X49518351Y-46537776D01*
X49518351Y-46537776D02*
X49613589Y-46585395D01*
X49613589Y-46585395D02*
X49661208Y-46633014D01*
X49661208Y-46633014D02*
X49708827Y-46728252D01*
X49708827Y-46728252D02*
X49708827Y-47013966D01*
X49708827Y-47013966D02*
X49661208Y-47109204D01*
X49661208Y-47109204D02*
X49613589Y-47156824D01*
X49613589Y-47156824D02*
X49518351Y-47204443D01*
X49518351Y-47204443D02*
X49327875Y-47204443D01*
X49327875Y-47204443D02*
X49232637Y-47156824D01*
X50518351Y-47156824D02*
X50423113Y-47204443D01*
X50423113Y-47204443D02*
X50232637Y-47204443D01*
X50232637Y-47204443D02*
X50137399Y-47156824D01*
X50137399Y-47156824D02*
X50089780Y-47061585D01*
X50089780Y-47061585D02*
X50089780Y-46680633D01*
X50089780Y-46680633D02*
X50137399Y-46585395D01*
X50137399Y-46585395D02*
X50232637Y-46537776D01*
X50232637Y-46537776D02*
X50423113Y-46537776D01*
X50423113Y-46537776D02*
X50518351Y-46585395D01*
X50518351Y-46585395D02*
X50565970Y-46680633D01*
X50565970Y-46680633D02*
X50565970Y-46775871D01*
X50565970Y-46775871D02*
X50089780Y-46871109D01*
X50994542Y-46537776D02*
X50994542Y-47204443D01*
X50994542Y-46633014D02*
X51042161Y-46585395D01*
X51042161Y-46585395D02*
X51137399Y-46537776D01*
X51137399Y-46537776D02*
X51280256Y-46537776D01*
X51280256Y-46537776D02*
X51375494Y-46585395D01*
X51375494Y-46585395D02*
X51423113Y-46680633D01*
X51423113Y-46680633D02*
X51423113Y-47204443D01*
X52661209Y-47204443D02*
X52661209Y-46204443D01*
X52661209Y-46680633D02*
X53232637Y-46680633D01*
X53232637Y-47204443D02*
X53232637Y-46204443D01*
X54137399Y-47204443D02*
X54137399Y-46680633D01*
X54137399Y-46680633D02*
X54089780Y-46585395D01*
X54089780Y-46585395D02*
X53994542Y-46537776D01*
X53994542Y-46537776D02*
X53804066Y-46537776D01*
X53804066Y-46537776D02*
X53708828Y-46585395D01*
X54137399Y-47156824D02*
X54042161Y-47204443D01*
X54042161Y-47204443D02*
X53804066Y-47204443D01*
X53804066Y-47204443D02*
X53708828Y-47156824D01*
X53708828Y-47156824D02*
X53661209Y-47061585D01*
X53661209Y-47061585D02*
X53661209Y-46966347D01*
X53661209Y-46966347D02*
X53708828Y-46871109D01*
X53708828Y-46871109D02*
X53804066Y-46823490D01*
X53804066Y-46823490D02*
X54042161Y-46823490D01*
X54042161Y-46823490D02*
X54137399Y-46775871D01*
X54613590Y-47204443D02*
X54613590Y-46537776D01*
X54613590Y-46728252D02*
X54661209Y-46633014D01*
X54661209Y-46633014D02*
X54708828Y-46585395D01*
X54708828Y-46585395D02*
X54804066Y-46537776D01*
X54804066Y-46537776D02*
X54899304Y-46537776D01*
X55661209Y-47204443D02*
X55661209Y-46204443D01*
X55661209Y-47156824D02*
X55565971Y-47204443D01*
X55565971Y-47204443D02*
X55375495Y-47204443D01*
X55375495Y-47204443D02*
X55280257Y-47156824D01*
X55280257Y-47156824D02*
X55232638Y-47109204D01*
X55232638Y-47109204D02*
X55185019Y-47013966D01*
X55185019Y-47013966D02*
X55185019Y-46728252D01*
X55185019Y-46728252D02*
X55232638Y-46633014D01*
X55232638Y-46633014D02*
X55280257Y-46585395D01*
X55280257Y-46585395D02*
X55375495Y-46537776D01*
X55375495Y-46537776D02*
X55565971Y-46537776D01*
X55565971Y-46537776D02*
X55661209Y-46585395D01*
X56042162Y-46537776D02*
X56232638Y-47204443D01*
X56232638Y-47204443D02*
X56423114Y-46728252D01*
X56423114Y-46728252D02*
X56613590Y-47204443D01*
X56613590Y-47204443D02*
X56804066Y-46537776D01*
X57613590Y-47204443D02*
X57613590Y-46680633D01*
X57613590Y-46680633D02*
X57565971Y-46585395D01*
X57565971Y-46585395D02*
X57470733Y-46537776D01*
X57470733Y-46537776D02*
X57280257Y-46537776D01*
X57280257Y-46537776D02*
X57185019Y-46585395D01*
X57613590Y-47156824D02*
X57518352Y-47204443D01*
X57518352Y-47204443D02*
X57280257Y-47204443D01*
X57280257Y-47204443D02*
X57185019Y-47156824D01*
X57185019Y-47156824D02*
X57137400Y-47061585D01*
X57137400Y-47061585D02*
X57137400Y-46966347D01*
X57137400Y-46966347D02*
X57185019Y-46871109D01*
X57185019Y-46871109D02*
X57280257Y-46823490D01*
X57280257Y-46823490D02*
X57518352Y-46823490D01*
X57518352Y-46823490D02*
X57613590Y-46775871D01*
X58089781Y-47204443D02*
X58089781Y-46537776D01*
X58089781Y-46728252D02*
X58137400Y-46633014D01*
X58137400Y-46633014D02*
X58185019Y-46585395D01*
X58185019Y-46585395D02*
X58280257Y-46537776D01*
X58280257Y-46537776D02*
X58375495Y-46537776D01*
X59089781Y-47156824D02*
X58994543Y-47204443D01*
X58994543Y-47204443D02*
X58804067Y-47204443D01*
X58804067Y-47204443D02*
X58708829Y-47156824D01*
X58708829Y-47156824D02*
X58661210Y-47061585D01*
X58661210Y-47061585D02*
X58661210Y-46680633D01*
X58661210Y-46680633D02*
X58708829Y-46585395D01*
X58708829Y-46585395D02*
X58804067Y-46537776D01*
X58804067Y-46537776D02*
X58994543Y-46537776D01*
X58994543Y-46537776D02*
X59089781Y-46585395D01*
X59089781Y-46585395D02*
X59137400Y-46680633D01*
X59137400Y-46680633D02*
X59137400Y-46775871D01*
X59137400Y-46775871D02*
X58661210Y-46871109D01*
X60327877Y-46537776D02*
X60327877Y-47537776D01*
X60327877Y-46585395D02*
X60423115Y-46537776D01*
X60423115Y-46537776D02*
X60613591Y-46537776D01*
X60613591Y-46537776D02*
X60708829Y-46585395D01*
X60708829Y-46585395D02*
X60756448Y-46633014D01*
X60756448Y-46633014D02*
X60804067Y-46728252D01*
X60804067Y-46728252D02*
X60804067Y-47013966D01*
X60804067Y-47013966D02*
X60756448Y-47109204D01*
X60756448Y-47109204D02*
X60708829Y-47156824D01*
X60708829Y-47156824D02*
X60613591Y-47204443D01*
X60613591Y-47204443D02*
X60423115Y-47204443D01*
X60423115Y-47204443D02*
X60327877Y-47156824D01*
X61232639Y-47204443D02*
X61232639Y-46537776D01*
X61232639Y-46728252D02*
X61280258Y-46633014D01*
X61280258Y-46633014D02*
X61327877Y-46585395D01*
X61327877Y-46585395D02*
X61423115Y-46537776D01*
X61423115Y-46537776D02*
X61518353Y-46537776D01*
X61994544Y-47204443D02*
X61899306Y-47156824D01*
X61899306Y-47156824D02*
X61851687Y-47109204D01*
X61851687Y-47109204D02*
X61804068Y-47013966D01*
X61804068Y-47013966D02*
X61804068Y-46728252D01*
X61804068Y-46728252D02*
X61851687Y-46633014D01*
X61851687Y-46633014D02*
X61899306Y-46585395D01*
X61899306Y-46585395D02*
X61994544Y-46537776D01*
X61994544Y-46537776D02*
X62137401Y-46537776D01*
X62137401Y-46537776D02*
X62232639Y-46585395D01*
X62232639Y-46585395D02*
X62280258Y-46633014D01*
X62280258Y-46633014D02*
X62327877Y-46728252D01*
X62327877Y-46728252D02*
X62327877Y-47013966D01*
X62327877Y-47013966D02*
X62280258Y-47109204D01*
X62280258Y-47109204D02*
X62232639Y-47156824D01*
X62232639Y-47156824D02*
X62137401Y-47204443D01*
X62137401Y-47204443D02*
X61994544Y-47204443D01*
X62756449Y-46537776D02*
X62756449Y-47394919D01*
X62756449Y-47394919D02*
X62708830Y-47490157D01*
X62708830Y-47490157D02*
X62613592Y-47537776D01*
X62613592Y-47537776D02*
X62565973Y-47537776D01*
X62756449Y-46204443D02*
X62708830Y-46252062D01*
X62708830Y-46252062D02*
X62756449Y-46299681D01*
X62756449Y-46299681D02*
X62804068Y-46252062D01*
X62804068Y-46252062D02*
X62756449Y-46204443D01*
X62756449Y-46204443D02*
X62756449Y-46299681D01*
X63613591Y-47156824D02*
X63518353Y-47204443D01*
X63518353Y-47204443D02*
X63327877Y-47204443D01*
X63327877Y-47204443D02*
X63232639Y-47156824D01*
X63232639Y-47156824D02*
X63185020Y-47061585D01*
X63185020Y-47061585D02*
X63185020Y-46680633D01*
X63185020Y-46680633D02*
X63232639Y-46585395D01*
X63232639Y-46585395D02*
X63327877Y-46537776D01*
X63327877Y-46537776D02*
X63518353Y-46537776D01*
X63518353Y-46537776D02*
X63613591Y-46585395D01*
X63613591Y-46585395D02*
X63661210Y-46680633D01*
X63661210Y-46680633D02*
X63661210Y-46775871D01*
X63661210Y-46775871D02*
X63185020Y-46871109D01*
X64518353Y-47156824D02*
X64423115Y-47204443D01*
X64423115Y-47204443D02*
X64232639Y-47204443D01*
X64232639Y-47204443D02*
X64137401Y-47156824D01*
X64137401Y-47156824D02*
X64089782Y-47109204D01*
X64089782Y-47109204D02*
X64042163Y-47013966D01*
X64042163Y-47013966D02*
X64042163Y-46728252D01*
X64042163Y-46728252D02*
X64089782Y-46633014D01*
X64089782Y-46633014D02*
X64137401Y-46585395D01*
X64137401Y-46585395D02*
X64232639Y-46537776D01*
X64232639Y-46537776D02*
X64423115Y-46537776D01*
X64423115Y-46537776D02*
X64518353Y-46585395D01*
X64804068Y-46537776D02*
X65185020Y-46537776D01*
X64946925Y-46204443D02*
X64946925Y-47061585D01*
X64946925Y-47061585D02*
X64994544Y-47156824D01*
X64994544Y-47156824D02*
X65089782Y-47204443D01*
X65089782Y-47204443D02*
X65185020Y-47204443D01*
X65518354Y-47109204D02*
X65565973Y-47156824D01*
X65565973Y-47156824D02*
X65518354Y-47204443D01*
X65518354Y-47204443D02*
X65470735Y-47156824D01*
X65470735Y-47156824D02*
X65518354Y-47109204D01*
X65518354Y-47109204D02*
X65518354Y-47204443D01*
X39804065Y-48528672D02*
X40280255Y-48528672D01*
X39708827Y-48814387D02*
X40042160Y-47814387D01*
X40042160Y-47814387D02*
X40375493Y-48814387D01*
X40708827Y-48147720D02*
X40708827Y-48814387D01*
X40708827Y-48242958D02*
X40756446Y-48195339D01*
X40756446Y-48195339D02*
X40851684Y-48147720D01*
X40851684Y-48147720D02*
X40994541Y-48147720D01*
X40994541Y-48147720D02*
X41089779Y-48195339D01*
X41089779Y-48195339D02*
X41137398Y-48290577D01*
X41137398Y-48290577D02*
X41137398Y-48814387D01*
X41518351Y-48147720D02*
X41756446Y-48814387D01*
X41994541Y-48147720D02*
X41756446Y-48814387D01*
X41756446Y-48814387D02*
X41661208Y-49052482D01*
X41661208Y-49052482D02*
X41613589Y-49100101D01*
X41613589Y-49100101D02*
X41518351Y-49147720D01*
X42518351Y-48814387D02*
X42423113Y-48766768D01*
X42423113Y-48766768D02*
X42375494Y-48719148D01*
X42375494Y-48719148D02*
X42327875Y-48623910D01*
X42327875Y-48623910D02*
X42327875Y-48338196D01*
X42327875Y-48338196D02*
X42375494Y-48242958D01*
X42375494Y-48242958D02*
X42423113Y-48195339D01*
X42423113Y-48195339D02*
X42518351Y-48147720D01*
X42518351Y-48147720D02*
X42661208Y-48147720D01*
X42661208Y-48147720D02*
X42756446Y-48195339D01*
X42756446Y-48195339D02*
X42804065Y-48242958D01*
X42804065Y-48242958D02*
X42851684Y-48338196D01*
X42851684Y-48338196D02*
X42851684Y-48623910D01*
X42851684Y-48623910D02*
X42804065Y-48719148D01*
X42804065Y-48719148D02*
X42756446Y-48766768D01*
X42756446Y-48766768D02*
X42661208Y-48814387D01*
X42661208Y-48814387D02*
X42518351Y-48814387D01*
X43280256Y-48147720D02*
X43280256Y-48814387D01*
X43280256Y-48242958D02*
X43327875Y-48195339D01*
X43327875Y-48195339D02*
X43423113Y-48147720D01*
X43423113Y-48147720D02*
X43565970Y-48147720D01*
X43565970Y-48147720D02*
X43661208Y-48195339D01*
X43661208Y-48195339D02*
X43708827Y-48290577D01*
X43708827Y-48290577D02*
X43708827Y-48814387D01*
X44565970Y-48766768D02*
X44470732Y-48814387D01*
X44470732Y-48814387D02*
X44280256Y-48814387D01*
X44280256Y-48814387D02*
X44185018Y-48766768D01*
X44185018Y-48766768D02*
X44137399Y-48671529D01*
X44137399Y-48671529D02*
X44137399Y-48290577D01*
X44137399Y-48290577D02*
X44185018Y-48195339D01*
X44185018Y-48195339D02*
X44280256Y-48147720D01*
X44280256Y-48147720D02*
X44470732Y-48147720D01*
X44470732Y-48147720D02*
X44565970Y-48195339D01*
X44565970Y-48195339D02*
X44613589Y-48290577D01*
X44613589Y-48290577D02*
X44613589Y-48385815D01*
X44613589Y-48385815D02*
X44137399Y-48481053D01*
X45804066Y-48814387D02*
X45804066Y-48147720D01*
X45804066Y-47814387D02*
X45756447Y-47862006D01*
X45756447Y-47862006D02*
X45804066Y-47909625D01*
X45804066Y-47909625D02*
X45851685Y-47862006D01*
X45851685Y-47862006D02*
X45804066Y-47814387D01*
X45804066Y-47814387D02*
X45804066Y-47909625D01*
X46232637Y-48766768D02*
X46327875Y-48814387D01*
X46327875Y-48814387D02*
X46518351Y-48814387D01*
X46518351Y-48814387D02*
X46613589Y-48766768D01*
X46613589Y-48766768D02*
X46661208Y-48671529D01*
X46661208Y-48671529D02*
X46661208Y-48623910D01*
X46661208Y-48623910D02*
X46613589Y-48528672D01*
X46613589Y-48528672D02*
X46518351Y-48481053D01*
X46518351Y-48481053D02*
X46375494Y-48481053D01*
X46375494Y-48481053D02*
X46280256Y-48433434D01*
X46280256Y-48433434D02*
X46232637Y-48338196D01*
X46232637Y-48338196D02*
X46232637Y-48290577D01*
X46232637Y-48290577D02*
X46280256Y-48195339D01*
X46280256Y-48195339D02*
X46375494Y-48147720D01*
X46375494Y-48147720D02*
X46518351Y-48147720D01*
X46518351Y-48147720D02*
X46613589Y-48195339D01*
X47708828Y-48147720D02*
X48089780Y-48147720D01*
X47851685Y-48814387D02*
X47851685Y-47957244D01*
X47851685Y-47957244D02*
X47899304Y-47862006D01*
X47899304Y-47862006D02*
X47994542Y-47814387D01*
X47994542Y-47814387D02*
X48089780Y-47814387D01*
X48423114Y-48814387D02*
X48423114Y-48147720D01*
X48423114Y-48338196D02*
X48470733Y-48242958D01*
X48470733Y-48242958D02*
X48518352Y-48195339D01*
X48518352Y-48195339D02*
X48613590Y-48147720D01*
X48613590Y-48147720D02*
X48708828Y-48147720D01*
X49423114Y-48766768D02*
X49327876Y-48814387D01*
X49327876Y-48814387D02*
X49137400Y-48814387D01*
X49137400Y-48814387D02*
X49042162Y-48766768D01*
X49042162Y-48766768D02*
X48994543Y-48671529D01*
X48994543Y-48671529D02*
X48994543Y-48290577D01*
X48994543Y-48290577D02*
X49042162Y-48195339D01*
X49042162Y-48195339D02*
X49137400Y-48147720D01*
X49137400Y-48147720D02*
X49327876Y-48147720D01*
X49327876Y-48147720D02*
X49423114Y-48195339D01*
X49423114Y-48195339D02*
X49470733Y-48290577D01*
X49470733Y-48290577D02*
X49470733Y-48385815D01*
X49470733Y-48385815D02*
X48994543Y-48481053D01*
X50280257Y-48766768D02*
X50185019Y-48814387D01*
X50185019Y-48814387D02*
X49994543Y-48814387D01*
X49994543Y-48814387D02*
X49899305Y-48766768D01*
X49899305Y-48766768D02*
X49851686Y-48671529D01*
X49851686Y-48671529D02*
X49851686Y-48290577D01*
X49851686Y-48290577D02*
X49899305Y-48195339D01*
X49899305Y-48195339D02*
X49994543Y-48147720D01*
X49994543Y-48147720D02*
X50185019Y-48147720D01*
X50185019Y-48147720D02*
X50280257Y-48195339D01*
X50280257Y-48195339D02*
X50327876Y-48290577D01*
X50327876Y-48290577D02*
X50327876Y-48385815D01*
X50327876Y-48385815D02*
X49851686Y-48481053D01*
X51375496Y-48147720D02*
X51756448Y-48147720D01*
X51518353Y-47814387D02*
X51518353Y-48671529D01*
X51518353Y-48671529D02*
X51565972Y-48766768D01*
X51565972Y-48766768D02*
X51661210Y-48814387D01*
X51661210Y-48814387D02*
X51756448Y-48814387D01*
X52232639Y-48814387D02*
X52137401Y-48766768D01*
X52137401Y-48766768D02*
X52089782Y-48719148D01*
X52089782Y-48719148D02*
X52042163Y-48623910D01*
X52042163Y-48623910D02*
X52042163Y-48338196D01*
X52042163Y-48338196D02*
X52089782Y-48242958D01*
X52089782Y-48242958D02*
X52137401Y-48195339D01*
X52137401Y-48195339D02*
X52232639Y-48147720D01*
X52232639Y-48147720D02*
X52375496Y-48147720D01*
X52375496Y-48147720D02*
X52470734Y-48195339D01*
X52470734Y-48195339D02*
X52518353Y-48242958D01*
X52518353Y-48242958D02*
X52565972Y-48338196D01*
X52565972Y-48338196D02*
X52565972Y-48623910D01*
X52565972Y-48623910D02*
X52518353Y-48719148D01*
X52518353Y-48719148D02*
X52470734Y-48766768D01*
X52470734Y-48766768D02*
X52375496Y-48814387D01*
X52375496Y-48814387D02*
X52232639Y-48814387D01*
X54185020Y-48766768D02*
X54089782Y-48814387D01*
X54089782Y-48814387D02*
X53899306Y-48814387D01*
X53899306Y-48814387D02*
X53804068Y-48766768D01*
X53804068Y-48766768D02*
X53756449Y-48719148D01*
X53756449Y-48719148D02*
X53708830Y-48623910D01*
X53708830Y-48623910D02*
X53708830Y-48338196D01*
X53708830Y-48338196D02*
X53756449Y-48242958D01*
X53756449Y-48242958D02*
X53804068Y-48195339D01*
X53804068Y-48195339D02*
X53899306Y-48147720D01*
X53899306Y-48147720D02*
X54089782Y-48147720D01*
X54089782Y-48147720D02*
X54185020Y-48195339D01*
X54756449Y-48814387D02*
X54661211Y-48766768D01*
X54661211Y-48766768D02*
X54613592Y-48719148D01*
X54613592Y-48719148D02*
X54565973Y-48623910D01*
X54565973Y-48623910D02*
X54565973Y-48338196D01*
X54565973Y-48338196D02*
X54613592Y-48242958D01*
X54613592Y-48242958D02*
X54661211Y-48195339D01*
X54661211Y-48195339D02*
X54756449Y-48147720D01*
X54756449Y-48147720D02*
X54899306Y-48147720D01*
X54899306Y-48147720D02*
X54994544Y-48195339D01*
X54994544Y-48195339D02*
X55042163Y-48242958D01*
X55042163Y-48242958D02*
X55089782Y-48338196D01*
X55089782Y-48338196D02*
X55089782Y-48623910D01*
X55089782Y-48623910D02*
X55042163Y-48719148D01*
X55042163Y-48719148D02*
X54994544Y-48766768D01*
X54994544Y-48766768D02*
X54899306Y-48814387D01*
X54899306Y-48814387D02*
X54756449Y-48814387D01*
X55518354Y-48147720D02*
X55518354Y-48814387D01*
X55518354Y-48242958D02*
X55565973Y-48195339D01*
X55565973Y-48195339D02*
X55661211Y-48147720D01*
X55661211Y-48147720D02*
X55804068Y-48147720D01*
X55804068Y-48147720D02*
X55899306Y-48195339D01*
X55899306Y-48195339D02*
X55946925Y-48290577D01*
X55946925Y-48290577D02*
X55946925Y-48814387D01*
X56280259Y-48147720D02*
X56661211Y-48147720D01*
X56423116Y-47814387D02*
X56423116Y-48671529D01*
X56423116Y-48671529D02*
X56470735Y-48766768D01*
X56470735Y-48766768D02*
X56565973Y-48814387D01*
X56565973Y-48814387D02*
X56661211Y-48814387D01*
X56994545Y-48814387D02*
X56994545Y-48147720D01*
X56994545Y-48338196D02*
X57042164Y-48242958D01*
X57042164Y-48242958D02*
X57089783Y-48195339D01*
X57089783Y-48195339D02*
X57185021Y-48147720D01*
X57185021Y-48147720D02*
X57280259Y-48147720D01*
X57613593Y-48814387D02*
X57613593Y-48147720D01*
X57613593Y-47814387D02*
X57565974Y-47862006D01*
X57565974Y-47862006D02*
X57613593Y-47909625D01*
X57613593Y-47909625D02*
X57661212Y-47862006D01*
X57661212Y-47862006D02*
X57613593Y-47814387D01*
X57613593Y-47814387D02*
X57613593Y-47909625D01*
X58089783Y-48814387D02*
X58089783Y-47814387D01*
X58089783Y-48195339D02*
X58185021Y-48147720D01*
X58185021Y-48147720D02*
X58375497Y-48147720D01*
X58375497Y-48147720D02*
X58470735Y-48195339D01*
X58470735Y-48195339D02*
X58518354Y-48242958D01*
X58518354Y-48242958D02*
X58565973Y-48338196D01*
X58565973Y-48338196D02*
X58565973Y-48623910D01*
X58565973Y-48623910D02*
X58518354Y-48719148D01*
X58518354Y-48719148D02*
X58470735Y-48766768D01*
X58470735Y-48766768D02*
X58375497Y-48814387D01*
X58375497Y-48814387D02*
X58185021Y-48814387D01*
X58185021Y-48814387D02*
X58089783Y-48766768D01*
X59423116Y-48147720D02*
X59423116Y-48814387D01*
X58994545Y-48147720D02*
X58994545Y-48671529D01*
X58994545Y-48671529D02*
X59042164Y-48766768D01*
X59042164Y-48766768D02*
X59137402Y-48814387D01*
X59137402Y-48814387D02*
X59280259Y-48814387D01*
X59280259Y-48814387D02*
X59375497Y-48766768D01*
X59375497Y-48766768D02*
X59423116Y-48719148D01*
X59756450Y-48147720D02*
X60137402Y-48147720D01*
X59899307Y-47814387D02*
X59899307Y-48671529D01*
X59899307Y-48671529D02*
X59946926Y-48766768D01*
X59946926Y-48766768D02*
X60042164Y-48814387D01*
X60042164Y-48814387D02*
X60137402Y-48814387D01*
X60851688Y-48766768D02*
X60756450Y-48814387D01*
X60756450Y-48814387D02*
X60565974Y-48814387D01*
X60565974Y-48814387D02*
X60470736Y-48766768D01*
X60470736Y-48766768D02*
X60423117Y-48671529D01*
X60423117Y-48671529D02*
X60423117Y-48290577D01*
X60423117Y-48290577D02*
X60470736Y-48195339D01*
X60470736Y-48195339D02*
X60565974Y-48147720D01*
X60565974Y-48147720D02*
X60756450Y-48147720D01*
X60756450Y-48147720D02*
X60851688Y-48195339D01*
X60851688Y-48195339D02*
X60899307Y-48290577D01*
X60899307Y-48290577D02*
X60899307Y-48385815D01*
X60899307Y-48385815D02*
X60423117Y-48481053D01*
X39708827Y-49757664D02*
X40089779Y-49757664D01*
X39851684Y-49424331D02*
X39851684Y-50281473D01*
X39851684Y-50281473D02*
X39899303Y-50376712D01*
X39899303Y-50376712D02*
X39994541Y-50424331D01*
X39994541Y-50424331D02*
X40089779Y-50424331D01*
X40565970Y-50424331D02*
X40470732Y-50376712D01*
X40470732Y-50376712D02*
X40423113Y-50329092D01*
X40423113Y-50329092D02*
X40375494Y-50233854D01*
X40375494Y-50233854D02*
X40375494Y-49948140D01*
X40375494Y-49948140D02*
X40423113Y-49852902D01*
X40423113Y-49852902D02*
X40470732Y-49805283D01*
X40470732Y-49805283D02*
X40565970Y-49757664D01*
X40565970Y-49757664D02*
X40708827Y-49757664D01*
X40708827Y-49757664D02*
X40804065Y-49805283D01*
X40804065Y-49805283D02*
X40851684Y-49852902D01*
X40851684Y-49852902D02*
X40899303Y-49948140D01*
X40899303Y-49948140D02*
X40899303Y-50233854D01*
X40899303Y-50233854D02*
X40851684Y-50329092D01*
X40851684Y-50329092D02*
X40804065Y-50376712D01*
X40804065Y-50376712D02*
X40708827Y-50424331D01*
X40708827Y-50424331D02*
X40565970Y-50424331D01*
X42089780Y-50424331D02*
X42089780Y-49757664D01*
X42089780Y-49424331D02*
X42042161Y-49471950D01*
X42042161Y-49471950D02*
X42089780Y-49519569D01*
X42089780Y-49519569D02*
X42137399Y-49471950D01*
X42137399Y-49471950D02*
X42089780Y-49424331D01*
X42089780Y-49424331D02*
X42089780Y-49519569D01*
X42423113Y-49757664D02*
X42804065Y-49757664D01*
X42565970Y-49424331D02*
X42565970Y-50281473D01*
X42565970Y-50281473D02*
X42613589Y-50376712D01*
X42613589Y-50376712D02*
X42708827Y-50424331D01*
X42708827Y-50424331D02*
X42804065Y-50424331D01*
X44327875Y-49757664D02*
X44327875Y-50424331D01*
X43899304Y-49757664D02*
X43899304Y-50281473D01*
X43899304Y-50281473D02*
X43946923Y-50376712D01*
X43946923Y-50376712D02*
X44042161Y-50424331D01*
X44042161Y-50424331D02*
X44185018Y-50424331D01*
X44185018Y-50424331D02*
X44280256Y-50376712D01*
X44280256Y-50376712D02*
X44327875Y-50329092D01*
X44804066Y-49757664D02*
X44804066Y-50424331D01*
X44804066Y-49852902D02*
X44851685Y-49805283D01*
X44851685Y-49805283D02*
X44946923Y-49757664D01*
X44946923Y-49757664D02*
X45089780Y-49757664D01*
X45089780Y-49757664D02*
X45185018Y-49805283D01*
X45185018Y-49805283D02*
X45232637Y-49900521D01*
X45232637Y-49900521D02*
X45232637Y-50424331D01*
X46137399Y-50424331D02*
X46137399Y-49424331D01*
X46137399Y-50376712D02*
X46042161Y-50424331D01*
X46042161Y-50424331D02*
X45851685Y-50424331D01*
X45851685Y-50424331D02*
X45756447Y-50376712D01*
X45756447Y-50376712D02*
X45708828Y-50329092D01*
X45708828Y-50329092D02*
X45661209Y-50233854D01*
X45661209Y-50233854D02*
X45661209Y-49948140D01*
X45661209Y-49948140D02*
X45708828Y-49852902D01*
X45708828Y-49852902D02*
X45756447Y-49805283D01*
X45756447Y-49805283D02*
X45851685Y-49757664D01*
X45851685Y-49757664D02*
X46042161Y-49757664D01*
X46042161Y-49757664D02*
X46137399Y-49805283D01*
X46994542Y-50376712D02*
X46899304Y-50424331D01*
X46899304Y-50424331D02*
X46708828Y-50424331D01*
X46708828Y-50424331D02*
X46613590Y-50376712D01*
X46613590Y-50376712D02*
X46565971Y-50281473D01*
X46565971Y-50281473D02*
X46565971Y-49900521D01*
X46565971Y-49900521D02*
X46613590Y-49805283D01*
X46613590Y-49805283D02*
X46708828Y-49757664D01*
X46708828Y-49757664D02*
X46899304Y-49757664D01*
X46899304Y-49757664D02*
X46994542Y-49805283D01*
X46994542Y-49805283D02*
X47042161Y-49900521D01*
X47042161Y-49900521D02*
X47042161Y-49995759D01*
X47042161Y-49995759D02*
X46565971Y-50090997D01*
X47470733Y-50424331D02*
X47470733Y-49757664D01*
X47470733Y-49948140D02*
X47518352Y-49852902D01*
X47518352Y-49852902D02*
X47565971Y-49805283D01*
X47565971Y-49805283D02*
X47661209Y-49757664D01*
X47661209Y-49757664D02*
X47756447Y-49757664D01*
X48708829Y-49757664D02*
X49089781Y-49757664D01*
X48851686Y-49424331D02*
X48851686Y-50281473D01*
X48851686Y-50281473D02*
X48899305Y-50376712D01*
X48899305Y-50376712D02*
X48994543Y-50424331D01*
X48994543Y-50424331D02*
X49089781Y-50424331D01*
X49423115Y-50424331D02*
X49423115Y-49424331D01*
X49851686Y-50424331D02*
X49851686Y-49900521D01*
X49851686Y-49900521D02*
X49804067Y-49805283D01*
X49804067Y-49805283D02*
X49708829Y-49757664D01*
X49708829Y-49757664D02*
X49565972Y-49757664D01*
X49565972Y-49757664D02*
X49470734Y-49805283D01*
X49470734Y-49805283D02*
X49423115Y-49852902D01*
X50708829Y-50376712D02*
X50613591Y-50424331D01*
X50613591Y-50424331D02*
X50423115Y-50424331D01*
X50423115Y-50424331D02*
X50327877Y-50376712D01*
X50327877Y-50376712D02*
X50280258Y-50281473D01*
X50280258Y-50281473D02*
X50280258Y-49900521D01*
X50280258Y-49900521D02*
X50327877Y-49805283D01*
X50327877Y-49805283D02*
X50423115Y-49757664D01*
X50423115Y-49757664D02*
X50613591Y-49757664D01*
X50613591Y-49757664D02*
X50708829Y-49805283D01*
X50708829Y-49805283D02*
X50756448Y-49900521D01*
X50756448Y-49900521D02*
X50756448Y-49995759D01*
X50756448Y-49995759D02*
X50280258Y-50090997D01*
X52137401Y-49424331D02*
X52327877Y-49424331D01*
X52327877Y-49424331D02*
X52423115Y-49471950D01*
X52423115Y-49471950D02*
X52518353Y-49567188D01*
X52518353Y-49567188D02*
X52565972Y-49757664D01*
X52565972Y-49757664D02*
X52565972Y-50090997D01*
X52565972Y-50090997D02*
X52518353Y-50281473D01*
X52518353Y-50281473D02*
X52423115Y-50376712D01*
X52423115Y-50376712D02*
X52327877Y-50424331D01*
X52327877Y-50424331D02*
X52137401Y-50424331D01*
X52137401Y-50424331D02*
X52042163Y-50376712D01*
X52042163Y-50376712D02*
X51946925Y-50281473D01*
X51946925Y-50281473D02*
X51899306Y-50090997D01*
X51899306Y-50090997D02*
X51899306Y-49757664D01*
X51899306Y-49757664D02*
X51946925Y-49567188D01*
X51946925Y-49567188D02*
X52042163Y-49471950D01*
X52042163Y-49471950D02*
X52137401Y-49424331D01*
X52994544Y-49757664D02*
X52994544Y-50757664D01*
X52994544Y-49805283D02*
X53089782Y-49757664D01*
X53089782Y-49757664D02*
X53280258Y-49757664D01*
X53280258Y-49757664D02*
X53375496Y-49805283D01*
X53375496Y-49805283D02*
X53423115Y-49852902D01*
X53423115Y-49852902D02*
X53470734Y-49948140D01*
X53470734Y-49948140D02*
X53470734Y-50233854D01*
X53470734Y-50233854D02*
X53423115Y-50329092D01*
X53423115Y-50329092D02*
X53375496Y-50376712D01*
X53375496Y-50376712D02*
X53280258Y-50424331D01*
X53280258Y-50424331D02*
X53089782Y-50424331D01*
X53089782Y-50424331D02*
X52994544Y-50376712D01*
X54280258Y-50376712D02*
X54185020Y-50424331D01*
X54185020Y-50424331D02*
X53994544Y-50424331D01*
X53994544Y-50424331D02*
X53899306Y-50376712D01*
X53899306Y-50376712D02*
X53851687Y-50281473D01*
X53851687Y-50281473D02*
X53851687Y-49900521D01*
X53851687Y-49900521D02*
X53899306Y-49805283D01*
X53899306Y-49805283D02*
X53994544Y-49757664D01*
X53994544Y-49757664D02*
X54185020Y-49757664D01*
X54185020Y-49757664D02*
X54280258Y-49805283D01*
X54280258Y-49805283D02*
X54327877Y-49900521D01*
X54327877Y-49900521D02*
X54327877Y-49995759D01*
X54327877Y-49995759D02*
X53851687Y-50090997D01*
X54756449Y-49757664D02*
X54756449Y-50424331D01*
X54756449Y-49852902D02*
X54804068Y-49805283D01*
X54804068Y-49805283D02*
X54899306Y-49757664D01*
X54899306Y-49757664D02*
X55042163Y-49757664D01*
X55042163Y-49757664D02*
X55137401Y-49805283D01*
X55137401Y-49805283D02*
X55185020Y-49900521D01*
X55185020Y-49900521D02*
X55185020Y-50424331D01*
X55613592Y-50376712D02*
X55756449Y-50424331D01*
X55756449Y-50424331D02*
X55994544Y-50424331D01*
X55994544Y-50424331D02*
X56089782Y-50376712D01*
X56089782Y-50376712D02*
X56137401Y-50329092D01*
X56137401Y-50329092D02*
X56185020Y-50233854D01*
X56185020Y-50233854D02*
X56185020Y-50138616D01*
X56185020Y-50138616D02*
X56137401Y-50043378D01*
X56137401Y-50043378D02*
X56089782Y-49995759D01*
X56089782Y-49995759D02*
X55994544Y-49948140D01*
X55994544Y-49948140D02*
X55804068Y-49900521D01*
X55804068Y-49900521D02*
X55708830Y-49852902D01*
X55708830Y-49852902D02*
X55661211Y-49805283D01*
X55661211Y-49805283D02*
X55613592Y-49710045D01*
X55613592Y-49710045D02*
X55613592Y-49614807D01*
X55613592Y-49614807D02*
X55661211Y-49519569D01*
X55661211Y-49519569D02*
X55708830Y-49471950D01*
X55708830Y-49471950D02*
X55804068Y-49424331D01*
X55804068Y-49424331D02*
X56042163Y-49424331D01*
X56042163Y-49424331D02*
X56185020Y-49471950D01*
X56756449Y-50424331D02*
X56661211Y-50376712D01*
X56661211Y-50376712D02*
X56613592Y-50329092D01*
X56613592Y-50329092D02*
X56565973Y-50233854D01*
X56565973Y-50233854D02*
X56565973Y-49948140D01*
X56565973Y-49948140D02*
X56613592Y-49852902D01*
X56613592Y-49852902D02*
X56661211Y-49805283D01*
X56661211Y-49805283D02*
X56756449Y-49757664D01*
X56756449Y-49757664D02*
X56899306Y-49757664D01*
X56899306Y-49757664D02*
X56994544Y-49805283D01*
X56994544Y-49805283D02*
X57042163Y-49852902D01*
X57042163Y-49852902D02*
X57089782Y-49948140D01*
X57089782Y-49948140D02*
X57089782Y-50233854D01*
X57089782Y-50233854D02*
X57042163Y-50329092D01*
X57042163Y-50329092D02*
X56994544Y-50376712D01*
X56994544Y-50376712D02*
X56899306Y-50424331D01*
X56899306Y-50424331D02*
X56756449Y-50424331D01*
X57946925Y-49757664D02*
X57946925Y-50424331D01*
X57518354Y-49757664D02*
X57518354Y-50281473D01*
X57518354Y-50281473D02*
X57565973Y-50376712D01*
X57565973Y-50376712D02*
X57661211Y-50424331D01*
X57661211Y-50424331D02*
X57804068Y-50424331D01*
X57804068Y-50424331D02*
X57899306Y-50376712D01*
X57899306Y-50376712D02*
X57946925Y-50329092D01*
X58423116Y-50424331D02*
X58423116Y-49757664D01*
X58423116Y-49948140D02*
X58470735Y-49852902D01*
X58470735Y-49852902D02*
X58518354Y-49805283D01*
X58518354Y-49805283D02*
X58613592Y-49757664D01*
X58613592Y-49757664D02*
X58708830Y-49757664D01*
X59470735Y-50376712D02*
X59375497Y-50424331D01*
X59375497Y-50424331D02*
X59185021Y-50424331D01*
X59185021Y-50424331D02*
X59089783Y-50376712D01*
X59089783Y-50376712D02*
X59042164Y-50329092D01*
X59042164Y-50329092D02*
X58994545Y-50233854D01*
X58994545Y-50233854D02*
X58994545Y-49948140D01*
X58994545Y-49948140D02*
X59042164Y-49852902D01*
X59042164Y-49852902D02*
X59089783Y-49805283D01*
X59089783Y-49805283D02*
X59185021Y-49757664D01*
X59185021Y-49757664D02*
X59375497Y-49757664D01*
X59375497Y-49757664D02*
X59470735Y-49805283D01*
X60280259Y-50376712D02*
X60185021Y-50424331D01*
X60185021Y-50424331D02*
X59994545Y-50424331D01*
X59994545Y-50424331D02*
X59899307Y-50376712D01*
X59899307Y-50376712D02*
X59851688Y-50281473D01*
X59851688Y-50281473D02*
X59851688Y-49900521D01*
X59851688Y-49900521D02*
X59899307Y-49805283D01*
X59899307Y-49805283D02*
X59994545Y-49757664D01*
X59994545Y-49757664D02*
X60185021Y-49757664D01*
X60185021Y-49757664D02*
X60280259Y-49805283D01*
X60280259Y-49805283D02*
X60327878Y-49900521D01*
X60327878Y-49900521D02*
X60327878Y-49995759D01*
X60327878Y-49995759D02*
X59851688Y-50090997D01*
X39851684Y-52034275D02*
X39851684Y-51034275D01*
X39851684Y-51034275D02*
X40185017Y-51748560D01*
X40185017Y-51748560D02*
X40518350Y-51034275D01*
X40518350Y-51034275D02*
X40518350Y-52034275D01*
X40994541Y-52034275D02*
X40994541Y-51034275D01*
X41327874Y-51034275D02*
X41899302Y-51034275D01*
X41613588Y-52034275D02*
X41613588Y-51034275D01*
X43470731Y-52034275D02*
X42994541Y-52034275D01*
X42994541Y-52034275D02*
X42994541Y-51034275D01*
X43804065Y-52034275D02*
X43804065Y-51367608D01*
X43804065Y-51034275D02*
X43756446Y-51081894D01*
X43756446Y-51081894D02*
X43804065Y-51129513D01*
X43804065Y-51129513D02*
X43851684Y-51081894D01*
X43851684Y-51081894D02*
X43804065Y-51034275D01*
X43804065Y-51034275D02*
X43804065Y-51129513D01*
X44708826Y-51986656D02*
X44613588Y-52034275D01*
X44613588Y-52034275D02*
X44423112Y-52034275D01*
X44423112Y-52034275D02*
X44327874Y-51986656D01*
X44327874Y-51986656D02*
X44280255Y-51939036D01*
X44280255Y-51939036D02*
X44232636Y-51843798D01*
X44232636Y-51843798D02*
X44232636Y-51558084D01*
X44232636Y-51558084D02*
X44280255Y-51462846D01*
X44280255Y-51462846D02*
X44327874Y-51415227D01*
X44327874Y-51415227D02*
X44423112Y-51367608D01*
X44423112Y-51367608D02*
X44613588Y-51367608D01*
X44613588Y-51367608D02*
X44708826Y-51415227D01*
X45518350Y-51986656D02*
X45423112Y-52034275D01*
X45423112Y-52034275D02*
X45232636Y-52034275D01*
X45232636Y-52034275D02*
X45137398Y-51986656D01*
X45137398Y-51986656D02*
X45089779Y-51891417D01*
X45089779Y-51891417D02*
X45089779Y-51510465D01*
X45089779Y-51510465D02*
X45137398Y-51415227D01*
X45137398Y-51415227D02*
X45232636Y-51367608D01*
X45232636Y-51367608D02*
X45423112Y-51367608D01*
X45423112Y-51367608D02*
X45518350Y-51415227D01*
X45518350Y-51415227D02*
X45565969Y-51510465D01*
X45565969Y-51510465D02*
X45565969Y-51605703D01*
X45565969Y-51605703D02*
X45089779Y-51700941D01*
X45994541Y-51367608D02*
X45994541Y-52034275D01*
X45994541Y-51462846D02*
X46042160Y-51415227D01*
X46042160Y-51415227D02*
X46137398Y-51367608D01*
X46137398Y-51367608D02*
X46280255Y-51367608D01*
X46280255Y-51367608D02*
X46375493Y-51415227D01*
X46375493Y-51415227D02*
X46423112Y-51510465D01*
X46423112Y-51510465D02*
X46423112Y-52034275D01*
X46851684Y-51986656D02*
X46946922Y-52034275D01*
X46946922Y-52034275D02*
X47137398Y-52034275D01*
X47137398Y-52034275D02*
X47232636Y-51986656D01*
X47232636Y-51986656D02*
X47280255Y-51891417D01*
X47280255Y-51891417D02*
X47280255Y-51843798D01*
X47280255Y-51843798D02*
X47232636Y-51748560D01*
X47232636Y-51748560D02*
X47137398Y-51700941D01*
X47137398Y-51700941D02*
X46994541Y-51700941D01*
X46994541Y-51700941D02*
X46899303Y-51653322D01*
X46899303Y-51653322D02*
X46851684Y-51558084D01*
X46851684Y-51558084D02*
X46851684Y-51510465D01*
X46851684Y-51510465D02*
X46899303Y-51415227D01*
X46899303Y-51415227D02*
X46994541Y-51367608D01*
X46994541Y-51367608D02*
X47137398Y-51367608D01*
X47137398Y-51367608D02*
X47232636Y-51415227D01*
X48089779Y-51986656D02*
X47994541Y-52034275D01*
X47994541Y-52034275D02*
X47804065Y-52034275D01*
X47804065Y-52034275D02*
X47708827Y-51986656D01*
X47708827Y-51986656D02*
X47661208Y-51891417D01*
X47661208Y-51891417D02*
X47661208Y-51510465D01*
X47661208Y-51510465D02*
X47708827Y-51415227D01*
X47708827Y-51415227D02*
X47804065Y-51367608D01*
X47804065Y-51367608D02*
X47994541Y-51367608D01*
X47994541Y-51367608D02*
X48089779Y-51415227D01*
X48089779Y-51415227D02*
X48137398Y-51510465D01*
X48137398Y-51510465D02*
X48137398Y-51605703D01*
X48137398Y-51605703D02*
X47661208Y-51700941D01*
X48565970Y-51939036D02*
X48613589Y-51986656D01*
X48613589Y-51986656D02*
X48565970Y-52034275D01*
X48565970Y-52034275D02*
X48518351Y-51986656D01*
X48518351Y-51986656D02*
X48565970Y-51939036D01*
X48565970Y-51939036D02*
X48565970Y-52034275D01*
X39851684Y-53644219D02*
X39851684Y-52644219D01*
X40280255Y-53644219D02*
X40280255Y-53120409D01*
X40280255Y-53120409D02*
X40232636Y-53025171D01*
X40232636Y-53025171D02*
X40137398Y-52977552D01*
X40137398Y-52977552D02*
X39994541Y-52977552D01*
X39994541Y-52977552D02*
X39899303Y-53025171D01*
X39899303Y-53025171D02*
X39851684Y-53072790D01*
X40613589Y-52977552D02*
X40994541Y-52977552D01*
X40756446Y-52644219D02*
X40756446Y-53501361D01*
X40756446Y-53501361D02*
X40804065Y-53596600D01*
X40804065Y-53596600D02*
X40899303Y-53644219D01*
X40899303Y-53644219D02*
X40994541Y-53644219D01*
X41185018Y-52977552D02*
X41565970Y-52977552D01*
X41327875Y-52644219D02*
X41327875Y-53501361D01*
X41327875Y-53501361D02*
X41375494Y-53596600D01*
X41375494Y-53596600D02*
X41470732Y-53644219D01*
X41470732Y-53644219D02*
X41565970Y-53644219D01*
X41899304Y-52977552D02*
X41899304Y-53977552D01*
X41899304Y-53025171D02*
X41994542Y-52977552D01*
X41994542Y-52977552D02*
X42185018Y-52977552D01*
X42185018Y-52977552D02*
X42280256Y-53025171D01*
X42280256Y-53025171D02*
X42327875Y-53072790D01*
X42327875Y-53072790D02*
X42375494Y-53168028D01*
X42375494Y-53168028D02*
X42375494Y-53453742D01*
X42375494Y-53453742D02*
X42327875Y-53548980D01*
X42327875Y-53548980D02*
X42280256Y-53596600D01*
X42280256Y-53596600D02*
X42185018Y-53644219D01*
X42185018Y-53644219D02*
X41994542Y-53644219D01*
X41994542Y-53644219D02*
X41899304Y-53596600D01*
X42756447Y-53596600D02*
X42851685Y-53644219D01*
X42851685Y-53644219D02*
X43042161Y-53644219D01*
X43042161Y-53644219D02*
X43137399Y-53596600D01*
X43137399Y-53596600D02*
X43185018Y-53501361D01*
X43185018Y-53501361D02*
X43185018Y-53453742D01*
X43185018Y-53453742D02*
X43137399Y-53358504D01*
X43137399Y-53358504D02*
X43042161Y-53310885D01*
X43042161Y-53310885D02*
X42899304Y-53310885D01*
X42899304Y-53310885D02*
X42804066Y-53263266D01*
X42804066Y-53263266D02*
X42756447Y-53168028D01*
X42756447Y-53168028D02*
X42756447Y-53120409D01*
X42756447Y-53120409D02*
X42804066Y-53025171D01*
X42804066Y-53025171D02*
X42899304Y-52977552D01*
X42899304Y-52977552D02*
X43042161Y-52977552D01*
X43042161Y-52977552D02*
X43137399Y-53025171D01*
X43613590Y-53548980D02*
X43661209Y-53596600D01*
X43661209Y-53596600D02*
X43613590Y-53644219D01*
X43613590Y-53644219D02*
X43565971Y-53596600D01*
X43565971Y-53596600D02*
X43613590Y-53548980D01*
X43613590Y-53548980D02*
X43613590Y-53644219D01*
X43613590Y-53025171D02*
X43661209Y-53072790D01*
X43661209Y-53072790D02*
X43613590Y-53120409D01*
X43613590Y-53120409D02*
X43565971Y-53072790D01*
X43565971Y-53072790D02*
X43613590Y-53025171D01*
X43613590Y-53025171D02*
X43613590Y-53120409D01*
X44804065Y-52596600D02*
X43946923Y-53882314D01*
X45851684Y-52596600D02*
X44994542Y-53882314D01*
X46613589Y-52977552D02*
X46613589Y-53787076D01*
X46613589Y-53787076D02*
X46565970Y-53882314D01*
X46565970Y-53882314D02*
X46518351Y-53929933D01*
X46518351Y-53929933D02*
X46423113Y-53977552D01*
X46423113Y-53977552D02*
X46280256Y-53977552D01*
X46280256Y-53977552D02*
X46185018Y-53929933D01*
X46613589Y-53596600D02*
X46518351Y-53644219D01*
X46518351Y-53644219D02*
X46327875Y-53644219D01*
X46327875Y-53644219D02*
X46232637Y-53596600D01*
X46232637Y-53596600D02*
X46185018Y-53548980D01*
X46185018Y-53548980D02*
X46137399Y-53453742D01*
X46137399Y-53453742D02*
X46137399Y-53168028D01*
X46137399Y-53168028D02*
X46185018Y-53072790D01*
X46185018Y-53072790D02*
X46232637Y-53025171D01*
X46232637Y-53025171D02*
X46327875Y-52977552D01*
X46327875Y-52977552D02*
X46518351Y-52977552D01*
X46518351Y-52977552D02*
X46613589Y-53025171D01*
X47089780Y-53644219D02*
X47089780Y-52977552D01*
X47089780Y-52644219D02*
X47042161Y-52691838D01*
X47042161Y-52691838D02*
X47089780Y-52739457D01*
X47089780Y-52739457D02*
X47137399Y-52691838D01*
X47137399Y-52691838D02*
X47089780Y-52644219D01*
X47089780Y-52644219D02*
X47089780Y-52739457D01*
X47423113Y-52977552D02*
X47804065Y-52977552D01*
X47565970Y-52644219D02*
X47565970Y-53501361D01*
X47565970Y-53501361D02*
X47613589Y-53596600D01*
X47613589Y-53596600D02*
X47708827Y-53644219D01*
X47708827Y-53644219D02*
X47804065Y-53644219D01*
X48137399Y-53644219D02*
X48137399Y-52644219D01*
X48565970Y-53644219D02*
X48565970Y-53120409D01*
X48565970Y-53120409D02*
X48518351Y-53025171D01*
X48518351Y-53025171D02*
X48423113Y-52977552D01*
X48423113Y-52977552D02*
X48280256Y-52977552D01*
X48280256Y-52977552D02*
X48185018Y-53025171D01*
X48185018Y-53025171D02*
X48137399Y-53072790D01*
X49470732Y-52977552D02*
X49470732Y-53644219D01*
X49042161Y-52977552D02*
X49042161Y-53501361D01*
X49042161Y-53501361D02*
X49089780Y-53596600D01*
X49089780Y-53596600D02*
X49185018Y-53644219D01*
X49185018Y-53644219D02*
X49327875Y-53644219D01*
X49327875Y-53644219D02*
X49423113Y-53596600D01*
X49423113Y-53596600D02*
X49470732Y-53548980D01*
X49946923Y-53644219D02*
X49946923Y-52644219D01*
X49946923Y-53025171D02*
X50042161Y-52977552D01*
X50042161Y-52977552D02*
X50232637Y-52977552D01*
X50232637Y-52977552D02*
X50327875Y-53025171D01*
X50327875Y-53025171D02*
X50375494Y-53072790D01*
X50375494Y-53072790D02*
X50423113Y-53168028D01*
X50423113Y-53168028D02*
X50423113Y-53453742D01*
X50423113Y-53453742D02*
X50375494Y-53548980D01*
X50375494Y-53548980D02*
X50327875Y-53596600D01*
X50327875Y-53596600D02*
X50232637Y-53644219D01*
X50232637Y-53644219D02*
X50042161Y-53644219D01*
X50042161Y-53644219D02*
X49946923Y-53596600D01*
X50851685Y-53548980D02*
X50899304Y-53596600D01*
X50899304Y-53596600D02*
X50851685Y-53644219D01*
X50851685Y-53644219D02*
X50804066Y-53596600D01*
X50804066Y-53596600D02*
X50851685Y-53548980D01*
X50851685Y-53548980D02*
X50851685Y-53644219D01*
X51756446Y-53596600D02*
X51661208Y-53644219D01*
X51661208Y-53644219D02*
X51470732Y-53644219D01*
X51470732Y-53644219D02*
X51375494Y-53596600D01*
X51375494Y-53596600D02*
X51327875Y-53548980D01*
X51327875Y-53548980D02*
X51280256Y-53453742D01*
X51280256Y-53453742D02*
X51280256Y-53168028D01*
X51280256Y-53168028D02*
X51327875Y-53072790D01*
X51327875Y-53072790D02*
X51375494Y-53025171D01*
X51375494Y-53025171D02*
X51470732Y-52977552D01*
X51470732Y-52977552D02*
X51661208Y-52977552D01*
X51661208Y-52977552D02*
X51756446Y-53025171D01*
X52327875Y-53644219D02*
X52232637Y-53596600D01*
X52232637Y-53596600D02*
X52185018Y-53548980D01*
X52185018Y-53548980D02*
X52137399Y-53453742D01*
X52137399Y-53453742D02*
X52137399Y-53168028D01*
X52137399Y-53168028D02*
X52185018Y-53072790D01*
X52185018Y-53072790D02*
X52232637Y-53025171D01*
X52232637Y-53025171D02*
X52327875Y-52977552D01*
X52327875Y-52977552D02*
X52470732Y-52977552D01*
X52470732Y-52977552D02*
X52565970Y-53025171D01*
X52565970Y-53025171D02*
X52613589Y-53072790D01*
X52613589Y-53072790D02*
X52661208Y-53168028D01*
X52661208Y-53168028D02*
X52661208Y-53453742D01*
X52661208Y-53453742D02*
X52613589Y-53548980D01*
X52613589Y-53548980D02*
X52565970Y-53596600D01*
X52565970Y-53596600D02*
X52470732Y-53644219D01*
X52470732Y-53644219D02*
X52327875Y-53644219D01*
X53089780Y-53644219D02*
X53089780Y-52977552D01*
X53089780Y-53072790D02*
X53137399Y-53025171D01*
X53137399Y-53025171D02*
X53232637Y-52977552D01*
X53232637Y-52977552D02*
X53375494Y-52977552D01*
X53375494Y-52977552D02*
X53470732Y-53025171D01*
X53470732Y-53025171D02*
X53518351Y-53120409D01*
X53518351Y-53120409D02*
X53518351Y-53644219D01*
X53518351Y-53120409D02*
X53565970Y-53025171D01*
X53565970Y-53025171D02*
X53661208Y-52977552D01*
X53661208Y-52977552D02*
X53804065Y-52977552D01*
X53804065Y-52977552D02*
X53899304Y-53025171D01*
X53899304Y-53025171D02*
X53946923Y-53120409D01*
X53946923Y-53120409D02*
X53946923Y-53644219D01*
X55137398Y-52596600D02*
X54280256Y-53882314D01*
X55804065Y-53120409D02*
X55946922Y-53168028D01*
X55946922Y-53168028D02*
X55994541Y-53215647D01*
X55994541Y-53215647D02*
X56042160Y-53310885D01*
X56042160Y-53310885D02*
X56042160Y-53453742D01*
X56042160Y-53453742D02*
X55994541Y-53548980D01*
X55994541Y-53548980D02*
X55946922Y-53596600D01*
X55946922Y-53596600D02*
X55851684Y-53644219D01*
X55851684Y-53644219D02*
X55470732Y-53644219D01*
X55470732Y-53644219D02*
X55470732Y-52644219D01*
X55470732Y-52644219D02*
X55804065Y-52644219D01*
X55804065Y-52644219D02*
X55899303Y-52691838D01*
X55899303Y-52691838D02*
X55946922Y-52739457D01*
X55946922Y-52739457D02*
X55994541Y-52834695D01*
X55994541Y-52834695D02*
X55994541Y-52929933D01*
X55994541Y-52929933D02*
X55946922Y-53025171D01*
X55946922Y-53025171D02*
X55899303Y-53072790D01*
X55899303Y-53072790D02*
X55804065Y-53120409D01*
X55804065Y-53120409D02*
X55470732Y-53120409D01*
X56899303Y-53644219D02*
X56899303Y-53120409D01*
X56899303Y-53120409D02*
X56851684Y-53025171D01*
X56851684Y-53025171D02*
X56756446Y-52977552D01*
X56756446Y-52977552D02*
X56565970Y-52977552D01*
X56565970Y-52977552D02*
X56470732Y-53025171D01*
X56899303Y-53596600D02*
X56804065Y-53644219D01*
X56804065Y-53644219D02*
X56565970Y-53644219D01*
X56565970Y-53644219D02*
X56470732Y-53596600D01*
X56470732Y-53596600D02*
X56423113Y-53501361D01*
X56423113Y-53501361D02*
X56423113Y-53406123D01*
X56423113Y-53406123D02*
X56470732Y-53310885D01*
X56470732Y-53310885D02*
X56565970Y-53263266D01*
X56565970Y-53263266D02*
X56804065Y-53263266D01*
X56804065Y-53263266D02*
X56899303Y-53215647D01*
X57375494Y-53644219D02*
X57375494Y-52977552D01*
X57375494Y-53072790D02*
X57423113Y-53025171D01*
X57423113Y-53025171D02*
X57518351Y-52977552D01*
X57518351Y-52977552D02*
X57661208Y-52977552D01*
X57661208Y-52977552D02*
X57756446Y-53025171D01*
X57756446Y-53025171D02*
X57804065Y-53120409D01*
X57804065Y-53120409D02*
X57804065Y-53644219D01*
X57804065Y-53120409D02*
X57851684Y-53025171D01*
X57851684Y-53025171D02*
X57946922Y-52977552D01*
X57946922Y-52977552D02*
X58089779Y-52977552D01*
X58089779Y-52977552D02*
X58185018Y-53025171D01*
X58185018Y-53025171D02*
X58232637Y-53120409D01*
X58232637Y-53120409D02*
X58232637Y-53644219D01*
X58708827Y-53644219D02*
X58708827Y-52644219D01*
X58708827Y-53025171D02*
X58804065Y-52977552D01*
X58804065Y-52977552D02*
X58994541Y-52977552D01*
X58994541Y-52977552D02*
X59089779Y-53025171D01*
X59089779Y-53025171D02*
X59137398Y-53072790D01*
X59137398Y-53072790D02*
X59185017Y-53168028D01*
X59185017Y-53168028D02*
X59185017Y-53453742D01*
X59185017Y-53453742D02*
X59137398Y-53548980D01*
X59137398Y-53548980D02*
X59089779Y-53596600D01*
X59089779Y-53596600D02*
X58994541Y-53644219D01*
X58994541Y-53644219D02*
X58804065Y-53644219D01*
X58804065Y-53644219D02*
X58708827Y-53596600D01*
X59756446Y-53644219D02*
X59661208Y-53596600D01*
X59661208Y-53596600D02*
X59613589Y-53501361D01*
X59613589Y-53501361D02*
X59613589Y-52644219D01*
X60518351Y-53596600D02*
X60423113Y-53644219D01*
X60423113Y-53644219D02*
X60232637Y-53644219D01*
X60232637Y-53644219D02*
X60137399Y-53596600D01*
X60137399Y-53596600D02*
X60089780Y-53501361D01*
X60089780Y-53501361D02*
X60089780Y-53120409D01*
X60089780Y-53120409D02*
X60137399Y-53025171D01*
X60137399Y-53025171D02*
X60232637Y-52977552D01*
X60232637Y-52977552D02*
X60423113Y-52977552D01*
X60423113Y-52977552D02*
X60518351Y-53025171D01*
X60518351Y-53025171D02*
X60565970Y-53120409D01*
X60565970Y-53120409D02*
X60565970Y-53215647D01*
X60565970Y-53215647D02*
X60089780Y-53310885D01*
X60899304Y-52977552D02*
X61089780Y-53644219D01*
X61089780Y-53644219D02*
X61280256Y-53168028D01*
X61280256Y-53168028D02*
X61470732Y-53644219D01*
X61470732Y-53644219D02*
X61661208Y-52977552D01*
X62423113Y-53596600D02*
X62327875Y-53644219D01*
X62327875Y-53644219D02*
X62137399Y-53644219D01*
X62137399Y-53644219D02*
X62042161Y-53596600D01*
X62042161Y-53596600D02*
X61994542Y-53501361D01*
X61994542Y-53501361D02*
X61994542Y-53120409D01*
X61994542Y-53120409D02*
X62042161Y-53025171D01*
X62042161Y-53025171D02*
X62137399Y-52977552D01*
X62137399Y-52977552D02*
X62327875Y-52977552D01*
X62327875Y-52977552D02*
X62423113Y-53025171D01*
X62423113Y-53025171D02*
X62470732Y-53120409D01*
X62470732Y-53120409D02*
X62470732Y-53215647D01*
X62470732Y-53215647D02*
X61994542Y-53310885D01*
X63280256Y-53596600D02*
X63185018Y-53644219D01*
X63185018Y-53644219D02*
X62994542Y-53644219D01*
X62994542Y-53644219D02*
X62899304Y-53596600D01*
X62899304Y-53596600D02*
X62851685Y-53501361D01*
X62851685Y-53501361D02*
X62851685Y-53120409D01*
X62851685Y-53120409D02*
X62899304Y-53025171D01*
X62899304Y-53025171D02*
X62994542Y-52977552D01*
X62994542Y-52977552D02*
X63185018Y-52977552D01*
X63185018Y-52977552D02*
X63280256Y-53025171D01*
X63280256Y-53025171D02*
X63327875Y-53120409D01*
X63327875Y-53120409D02*
X63327875Y-53215647D01*
X63327875Y-53215647D02*
X62851685Y-53310885D01*
X63756447Y-52977552D02*
X63756447Y-53644219D01*
X63756447Y-53072790D02*
X63804066Y-53025171D01*
X63804066Y-53025171D02*
X63899304Y-52977552D01*
X63899304Y-52977552D02*
X64042161Y-52977552D01*
X64042161Y-52977552D02*
X64137399Y-53025171D01*
X64137399Y-53025171D02*
X64185018Y-53120409D01*
X64185018Y-53120409D02*
X64185018Y-53644219D01*
X64565971Y-52977552D02*
X64804066Y-53644219D01*
X65042161Y-52977552D02*
X64804066Y-53644219D01*
X64804066Y-53644219D02*
X64708828Y-53882314D01*
X64708828Y-53882314D02*
X64661209Y-53929933D01*
X64661209Y-53929933D02*
X64565971Y-53977552D01*
X65899304Y-52644219D02*
X65423114Y-52644219D01*
X65423114Y-52644219D02*
X65375495Y-53120409D01*
X65375495Y-53120409D02*
X65423114Y-53072790D01*
X65423114Y-53072790D02*
X65518352Y-53025171D01*
X65518352Y-53025171D02*
X65756447Y-53025171D01*
X65756447Y-53025171D02*
X65851685Y-53072790D01*
X65851685Y-53072790D02*
X65899304Y-53120409D01*
X65899304Y-53120409D02*
X65946923Y-53215647D01*
X65946923Y-53215647D02*
X65946923Y-53453742D01*
X65946923Y-53453742D02*
X65899304Y-53548980D01*
X65899304Y-53548980D02*
X65851685Y-53596600D01*
X65851685Y-53596600D02*
X65756447Y-53644219D01*
X65756447Y-53644219D02*
X65518352Y-53644219D01*
X65518352Y-53644219D02*
X65423114Y-53596600D01*
X65423114Y-53596600D02*
X65375495Y-53548980D01*
X66280257Y-52644219D02*
X66946923Y-52644219D01*
X66946923Y-52644219D02*
X66518352Y-53644219D01*
X68042161Y-52596600D02*
X67185019Y-53882314D01*
X68280257Y-52644219D02*
X68946923Y-52644219D01*
X68946923Y-52644219D02*
X68280257Y-53644219D01*
X68280257Y-53644219D02*
X68946923Y-53644219D01*
X69232638Y-52644219D02*
X69899304Y-53644219D01*
X69899304Y-52644219D02*
X69232638Y-53644219D01*
X70280257Y-53120409D02*
X70613590Y-53120409D01*
X70756447Y-53644219D02*
X70280257Y-53644219D01*
X70280257Y-53644219D02*
X70280257Y-52644219D01*
X70280257Y-52644219D02*
X70756447Y-52644219D01*
X71185019Y-53644219D02*
X71185019Y-52977552D01*
X71185019Y-52644219D02*
X71137400Y-52691838D01*
X71137400Y-52691838D02*
X71185019Y-52739457D01*
X71185019Y-52739457D02*
X71232638Y-52691838D01*
X71232638Y-52691838D02*
X71185019Y-52644219D01*
X71185019Y-52644219D02*
X71185019Y-52739457D01*
X72089780Y-52977552D02*
X72089780Y-53787076D01*
X72089780Y-53787076D02*
X72042161Y-53882314D01*
X72042161Y-53882314D02*
X71994542Y-53929933D01*
X71994542Y-53929933D02*
X71899304Y-53977552D01*
X71899304Y-53977552D02*
X71756447Y-53977552D01*
X71756447Y-53977552D02*
X71661209Y-53929933D01*
X72089780Y-53596600D02*
X71994542Y-53644219D01*
X71994542Y-53644219D02*
X71804066Y-53644219D01*
X71804066Y-53644219D02*
X71708828Y-53596600D01*
X71708828Y-53596600D02*
X71661209Y-53548980D01*
X71661209Y-53548980D02*
X71613590Y-53453742D01*
X71613590Y-53453742D02*
X71613590Y-53168028D01*
X71613590Y-53168028D02*
X71661209Y-53072790D01*
X71661209Y-53072790D02*
X71708828Y-53025171D01*
X71708828Y-53025171D02*
X71804066Y-52977552D01*
X71804066Y-52977552D02*
X71994542Y-52977552D01*
X71994542Y-52977552D02*
X72089780Y-53025171D01*
X72565971Y-53644219D02*
X72565971Y-52644219D01*
X72994542Y-53644219D02*
X72994542Y-53120409D01*
X72994542Y-53120409D02*
X72946923Y-53025171D01*
X72946923Y-53025171D02*
X72851685Y-52977552D01*
X72851685Y-52977552D02*
X72708828Y-52977552D01*
X72708828Y-52977552D02*
X72613590Y-53025171D01*
X72613590Y-53025171D02*
X72565971Y-53072790D01*
X73327876Y-52977552D02*
X73708828Y-52977552D01*
X73470733Y-52644219D02*
X73470733Y-53501361D01*
X73470733Y-53501361D02*
X73518352Y-53596600D01*
X73518352Y-53596600D02*
X73613590Y-53644219D01*
X73613590Y-53644219D02*
X73708828Y-53644219D01*
X73946924Y-52977552D02*
X74185019Y-53644219D01*
X74423114Y-52977552D02*
X74185019Y-53644219D01*
X74185019Y-53644219D02*
X74089781Y-53882314D01*
X74089781Y-53882314D02*
X74042162Y-53929933D01*
X74042162Y-53929933D02*
X73946924Y-53977552D01*
X74708829Y-52644219D02*
X75375495Y-52644219D01*
X75375495Y-52644219D02*
X74708829Y-53644219D01*
X74708829Y-53644219D02*
X75375495Y-53644219D01*
X75946924Y-52644219D02*
X76137400Y-52644219D01*
X76137400Y-52644219D02*
X76232638Y-52691838D01*
X76232638Y-52691838D02*
X76327876Y-52787076D01*
X76327876Y-52787076D02*
X76375495Y-52977552D01*
X76375495Y-52977552D02*
X76375495Y-53310885D01*
X76375495Y-53310885D02*
X76327876Y-53501361D01*
X76327876Y-53501361D02*
X76232638Y-53596600D01*
X76232638Y-53596600D02*
X76137400Y-53644219D01*
X76137400Y-53644219D02*
X75946924Y-53644219D01*
X75946924Y-53644219D02*
X75851686Y-53596600D01*
X75851686Y-53596600D02*
X75756448Y-53501361D01*
X75756448Y-53501361D02*
X75708829Y-53310885D01*
X75708829Y-53310885D02*
X75708829Y-52977552D01*
X75708829Y-52977552D02*
X75756448Y-52787076D01*
X75756448Y-52787076D02*
X75851686Y-52691838D01*
X75851686Y-52691838D02*
X75946924Y-52644219D01*
X76804067Y-53644219D02*
X76804067Y-52644219D01*
X76804067Y-52644219D02*
X77375495Y-53644219D01*
X77375495Y-53644219D02*
X77375495Y-52644219D01*
D11*
%TO.C,REF\u002A\u002A*%
X47792207Y-43810182D02*
X47815561Y-43820388D01*
X47871302Y-43864534D01*
X47918969Y-43928367D01*
X47948448Y-43996487D01*
X47953246Y-44030070D01*
X47937160Y-44076956D01*
X47901875Y-44101765D01*
X47864044Y-44116787D01*
X47846721Y-44119555D01*
X47838286Y-44099466D01*
X47821630Y-44055751D01*
X47814323Y-44035998D01*
X47773348Y-43967671D01*
X47714022Y-43933591D01*
X47637952Y-43934639D01*
X47632318Y-43935981D01*
X47591705Y-43955236D01*
X47561848Y-43992775D01*
X47541455Y-44053209D01*
X47529236Y-44141151D01*
X47523900Y-44261213D01*
X47523400Y-44325098D01*
X47523152Y-44425803D01*
X47521526Y-44494454D01*
X47517201Y-44538073D01*
X47508854Y-44563682D01*
X47495165Y-44578303D01*
X47474811Y-44588958D01*
X47473634Y-44589495D01*
X47434438Y-44606067D01*
X47415019Y-44612169D01*
X47412035Y-44593719D01*
X47409481Y-44542723D01*
X47407540Y-44465708D01*
X47406397Y-44369205D01*
X47406169Y-44298584D01*
X47407332Y-44161925D01*
X47411879Y-44058251D01*
X47421399Y-43981508D01*
X47437481Y-43925646D01*
X47461713Y-43884612D01*
X47495686Y-43852354D01*
X47529233Y-43829840D01*
X47609899Y-43799876D01*
X47703781Y-43793118D01*
X47792207Y-43810182D01*
G36*
X47792207Y-43810182D02*
G01*
X47815561Y-43820388D01*
X47871302Y-43864534D01*
X47918969Y-43928367D01*
X47948448Y-43996487D01*
X47953246Y-44030070D01*
X47937160Y-44076956D01*
X47901875Y-44101765D01*
X47864044Y-44116787D01*
X47846721Y-44119555D01*
X47838286Y-44099466D01*
X47821630Y-44055751D01*
X47814323Y-44035998D01*
X47773348Y-43967671D01*
X47714022Y-43933591D01*
X47637952Y-43934639D01*
X47632318Y-43935981D01*
X47591705Y-43955236D01*
X47561848Y-43992775D01*
X47541455Y-44053209D01*
X47529236Y-44141151D01*
X47523900Y-44261213D01*
X47523400Y-44325098D01*
X47523152Y-44425803D01*
X47521526Y-44494454D01*
X47517201Y-44538073D01*
X47508854Y-44563682D01*
X47495165Y-44578303D01*
X47474811Y-44588958D01*
X47473634Y-44589495D01*
X47434438Y-44606067D01*
X47415019Y-44612169D01*
X47412035Y-44593719D01*
X47409481Y-44542723D01*
X47407540Y-44465708D01*
X47406397Y-44369205D01*
X47406169Y-44298584D01*
X47407332Y-44161925D01*
X47411879Y-44058251D01*
X47421399Y-43981508D01*
X47437481Y-43925646D01*
X47461713Y-43884612D01*
X47495686Y-43852354D01*
X47529233Y-43829840D01*
X47609899Y-43799876D01*
X47703781Y-43793118D01*
X47792207Y-43810182D01*
G37*
X42493064Y-43768489D02*
X42555767Y-43804758D01*
X42599361Y-43840758D01*
X42631245Y-43878475D01*
X42653210Y-43924599D01*
X42667049Y-43985821D01*
X42674553Y-44068831D01*
X42677517Y-44180319D01*
X42677861Y-44260462D01*
X42677861Y-44555465D01*
X42511785Y-44629915D01*
X42502015Y-44306802D01*
X42497979Y-44186129D01*
X42493744Y-44098541D01*
X42488497Y-44038050D01*
X42481425Y-43998668D01*
X42471711Y-43974407D01*
X42458544Y-43959280D01*
X42454319Y-43956006D01*
X42390309Y-43930434D01*
X42325608Y-43940553D01*
X42287092Y-43967400D01*
X42271425Y-43986424D01*
X42260580Y-44011388D01*
X42253688Y-44049234D01*
X42249879Y-44106902D01*
X42248283Y-44191335D01*
X42248015Y-44279328D01*
X42247963Y-44389723D01*
X42246072Y-44467863D01*
X42239745Y-44520565D01*
X42226383Y-44554642D01*
X42203385Y-44576911D01*
X42168154Y-44594187D01*
X42121097Y-44612138D01*
X42069703Y-44631678D01*
X42075821Y-44284885D01*
X42078284Y-44159868D01*
X42081167Y-44067482D01*
X42085298Y-44001281D01*
X42091507Y-43954820D01*
X42100626Y-43921656D01*
X42113483Y-43895344D01*
X42128984Y-43872129D01*
X42203771Y-43797969D01*
X42295028Y-43755084D01*
X42394283Y-43744812D01*
X42493064Y-43768489D01*
G36*
X42493064Y-43768489D02*
G01*
X42555767Y-43804758D01*
X42599361Y-43840758D01*
X42631245Y-43878475D01*
X42653210Y-43924599D01*
X42667049Y-43985821D01*
X42674553Y-44068831D01*
X42677517Y-44180319D01*
X42677861Y-44260462D01*
X42677861Y-44555465D01*
X42511785Y-44629915D01*
X42502015Y-44306802D01*
X42497979Y-44186129D01*
X42493744Y-44098541D01*
X42488497Y-44038050D01*
X42481425Y-43998668D01*
X42471711Y-43974407D01*
X42458544Y-43959280D01*
X42454319Y-43956006D01*
X42390309Y-43930434D01*
X42325608Y-43940553D01*
X42287092Y-43967400D01*
X42271425Y-43986424D01*
X42260580Y-44011388D01*
X42253688Y-44049234D01*
X42249879Y-44106902D01*
X42248283Y-44191335D01*
X42248015Y-44279328D01*
X42247963Y-44389723D01*
X42246072Y-44467863D01*
X42239745Y-44520565D01*
X42226383Y-44554642D01*
X42203385Y-44576911D01*
X42168154Y-44594187D01*
X42121097Y-44612138D01*
X42069703Y-44631678D01*
X42075821Y-44284885D01*
X42078284Y-44159868D01*
X42081167Y-44067482D01*
X42085298Y-44001281D01*
X42091507Y-43954820D01*
X42100626Y-43921656D01*
X42113483Y-43895344D01*
X42128984Y-43872129D01*
X42203771Y-43797969D01*
X42295028Y-43755084D01*
X42394283Y-43744812D01*
X42493064Y-43768489D01*
G37*
X44934762Y-43798070D02*
X45023517Y-43830821D01*
X45095422Y-43888750D01*
X45123544Y-43929528D01*
X45154202Y-44004354D01*
X45153565Y-44058458D01*
X45121387Y-44094846D01*
X45109481Y-44101033D01*
X45058075Y-44120325D01*
X45031822Y-44115382D01*
X45022930Y-44082987D01*
X45022477Y-44065092D01*
X45006197Y-43999259D01*
X44963765Y-43953207D01*
X44904788Y-43930964D01*
X44838875Y-43936561D01*
X44785295Y-43965629D01*
X44767198Y-43982210D01*
X44754371Y-44002325D01*
X44745706Y-44032732D01*
X44740096Y-44080188D01*
X44736435Y-44151450D01*
X44733615Y-44253275D01*
X44732884Y-44285515D01*
X44730220Y-44395810D01*
X44727192Y-44473436D01*
X44722650Y-44524796D01*
X44715446Y-44556290D01*
X44704433Y-44574320D01*
X44688460Y-44585288D01*
X44678234Y-44590133D01*
X44634806Y-44606701D01*
X44609242Y-44612169D01*
X44600795Y-44593907D01*
X44595639Y-44538696D01*
X44593746Y-44445899D01*
X44595089Y-44314878D01*
X44595507Y-44294669D01*
X44598458Y-44175133D01*
X44601948Y-44087849D01*
X44606914Y-44025991D01*
X44614293Y-43982736D01*
X44625024Y-43951260D01*
X44640045Y-43924739D01*
X44647902Y-43913375D01*
X44692953Y-43863092D01*
X44743340Y-43823981D01*
X44749508Y-43820567D01*
X44839858Y-43793612D01*
X44934762Y-43798070D01*
G36*
X44934762Y-43798070D02*
G01*
X45023517Y-43830821D01*
X45095422Y-43888750D01*
X45123544Y-43929528D01*
X45154202Y-44004354D01*
X45153565Y-44058458D01*
X45121387Y-44094846D01*
X45109481Y-44101033D01*
X45058075Y-44120325D01*
X45031822Y-44115382D01*
X45022930Y-44082987D01*
X45022477Y-44065092D01*
X45006197Y-43999259D01*
X44963765Y-43953207D01*
X44904788Y-43930964D01*
X44838875Y-43936561D01*
X44785295Y-43965629D01*
X44767198Y-43982210D01*
X44754371Y-44002325D01*
X44745706Y-44032732D01*
X44740096Y-44080188D01*
X44736435Y-44151450D01*
X44733615Y-44253275D01*
X44732884Y-44285515D01*
X44730220Y-44395810D01*
X44727192Y-44473436D01*
X44722650Y-44524796D01*
X44715446Y-44556290D01*
X44704433Y-44574320D01*
X44688460Y-44585288D01*
X44678234Y-44590133D01*
X44634806Y-44606701D01*
X44609242Y-44612169D01*
X44600795Y-44593907D01*
X44595639Y-44538696D01*
X44593746Y-44445899D01*
X44595089Y-44314878D01*
X44595507Y-44294669D01*
X44598458Y-44175133D01*
X44601948Y-44087849D01*
X44606914Y-44025991D01*
X44614293Y-43982736D01*
X44625024Y-43951260D01*
X44640045Y-43924739D01*
X44647902Y-43913375D01*
X44692953Y-43863092D01*
X44743340Y-43823981D01*
X44749508Y-43820567D01*
X44839858Y-43793612D01*
X44934762Y-43798070D01*
G37*
X43381246Y-43665520D02*
X43386972Y-43745380D01*
X43393549Y-43792439D01*
X43402662Y-43812966D01*
X43415998Y-43813229D01*
X43420323Y-43810778D01*
X43477844Y-43793036D01*
X43552668Y-43794072D01*
X43628739Y-43812310D01*
X43676318Y-43835905D01*
X43725102Y-43873598D01*
X43760764Y-43916255D01*
X43785245Y-43970457D01*
X43800487Y-44042784D01*
X43808430Y-44139819D01*
X43811016Y-44268142D01*
X43811062Y-44292758D01*
X43811092Y-44569270D01*
X43749561Y-44590720D01*
X43705859Y-44605312D01*
X43681882Y-44612106D01*
X43681177Y-44612169D01*
X43678815Y-44593745D01*
X43676806Y-44542926D01*
X43675301Y-44466393D01*
X43674453Y-44370830D01*
X43674323Y-44312729D01*
X43674051Y-44198171D01*
X43672652Y-44116067D01*
X43669249Y-44059793D01*
X43662967Y-44022726D01*
X43652929Y-43998244D01*
X43638261Y-43979725D01*
X43629102Y-43970806D01*
X43566189Y-43934866D01*
X43497536Y-43932175D01*
X43435248Y-43962570D01*
X43423729Y-43973544D01*
X43406833Y-43994179D01*
X43395114Y-44018656D01*
X43387633Y-44054047D01*
X43383454Y-44107426D01*
X43381637Y-44185866D01*
X43381246Y-44294017D01*
X43381246Y-44569270D01*
X43319715Y-44590720D01*
X43276013Y-44605312D01*
X43252036Y-44612106D01*
X43251330Y-44612169D01*
X43249526Y-44593469D01*
X43247900Y-44540722D01*
X43246517Y-44458957D01*
X43245442Y-44353205D01*
X43244740Y-44228494D01*
X43244477Y-44089855D01*
X43244477Y-43555206D01*
X43371477Y-43501636D01*
X43381246Y-43665520D01*
G36*
X43381246Y-43665520D02*
G01*
X43386972Y-43745380D01*
X43393549Y-43792439D01*
X43402662Y-43812966D01*
X43415998Y-43813229D01*
X43420323Y-43810778D01*
X43477844Y-43793036D01*
X43552668Y-43794072D01*
X43628739Y-43812310D01*
X43676318Y-43835905D01*
X43725102Y-43873598D01*
X43760764Y-43916255D01*
X43785245Y-43970457D01*
X43800487Y-44042784D01*
X43808430Y-44139819D01*
X43811016Y-44268142D01*
X43811062Y-44292758D01*
X43811092Y-44569270D01*
X43749561Y-44590720D01*
X43705859Y-44605312D01*
X43681882Y-44612106D01*
X43681177Y-44612169D01*
X43678815Y-44593745D01*
X43676806Y-44542926D01*
X43675301Y-44466393D01*
X43674453Y-44370830D01*
X43674323Y-44312729D01*
X43674051Y-44198171D01*
X43672652Y-44116067D01*
X43669249Y-44059793D01*
X43662967Y-44022726D01*
X43652929Y-43998244D01*
X43638261Y-43979725D01*
X43629102Y-43970806D01*
X43566189Y-43934866D01*
X43497536Y-43932175D01*
X43435248Y-43962570D01*
X43423729Y-43973544D01*
X43406833Y-43994179D01*
X43395114Y-44018656D01*
X43387633Y-44054047D01*
X43383454Y-44107426D01*
X43381637Y-44185866D01*
X43381246Y-44294017D01*
X43381246Y-44569270D01*
X43319715Y-44590720D01*
X43276013Y-44605312D01*
X43252036Y-44612106D01*
X43251330Y-44612169D01*
X43249526Y-44593469D01*
X43247900Y-44540722D01*
X43246517Y-44458957D01*
X43245442Y-44353205D01*
X43244740Y-44228494D01*
X43244477Y-44089855D01*
X43244477Y-43555206D01*
X43371477Y-43501636D01*
X43381246Y-43665520D01*
G37*
X46617329Y-43810062D02*
X46620311Y-43861468D01*
X46622647Y-43939592D01*
X46624149Y-44038257D01*
X46624631Y-44141743D01*
X46624631Y-44491933D01*
X46562801Y-44553763D01*
X46520193Y-44591862D01*
X46482790Y-44607295D01*
X46431670Y-44606318D01*
X46411378Y-44603833D01*
X46347954Y-44596600D01*
X46295495Y-44592455D01*
X46282708Y-44592072D01*
X46239599Y-44594576D01*
X46177944Y-44600862D01*
X46154038Y-44603833D01*
X46095322Y-44608428D01*
X46055864Y-44598446D01*
X46016738Y-44567628D01*
X46002615Y-44553763D01*
X45940785Y-44491933D01*
X45940785Y-43836903D01*
X45990550Y-43814229D01*
X46033402Y-43797434D01*
X46058473Y-43791554D01*
X46064901Y-43810136D01*
X46070909Y-43862055D01*
X46076097Y-43941572D01*
X46080064Y-44042946D01*
X46081977Y-44128592D01*
X46087323Y-44465631D01*
X46133960Y-44472225D01*
X46176376Y-44467614D01*
X46197160Y-44452687D01*
X46202970Y-44424777D01*
X46207930Y-44365325D01*
X46211646Y-44281866D01*
X46213724Y-44181932D01*
X46214024Y-44130504D01*
X46214323Y-43834454D01*
X46275854Y-43813004D01*
X46319404Y-43798420D01*
X46343094Y-43791619D01*
X46343777Y-43791554D01*
X46346154Y-43810042D01*
X46348766Y-43861306D01*
X46351395Y-43939049D01*
X46353821Y-44036974D01*
X46355515Y-44128592D01*
X46360861Y-44465631D01*
X46478092Y-44465631D01*
X46483472Y-44158146D01*
X46488851Y-43850661D01*
X46546001Y-43821107D01*
X46588197Y-43800813D01*
X46613170Y-43791604D01*
X46613891Y-43791554D01*
X46617329Y-43810062D01*
G36*
X46617329Y-43810062D02*
G01*
X46620311Y-43861468D01*
X46622647Y-43939592D01*
X46624149Y-44038257D01*
X46624631Y-44141743D01*
X46624631Y-44491933D01*
X46562801Y-44553763D01*
X46520193Y-44591862D01*
X46482790Y-44607295D01*
X46431670Y-44606318D01*
X46411378Y-44603833D01*
X46347954Y-44596600D01*
X46295495Y-44592455D01*
X46282708Y-44592072D01*
X46239599Y-44594576D01*
X46177944Y-44600862D01*
X46154038Y-44603833D01*
X46095322Y-44608428D01*
X46055864Y-44598446D01*
X46016738Y-44567628D01*
X46002615Y-44553763D01*
X45940785Y-44491933D01*
X45940785Y-43836903D01*
X45990550Y-43814229D01*
X46033402Y-43797434D01*
X46058473Y-43791554D01*
X46064901Y-43810136D01*
X46070909Y-43862055D01*
X46076097Y-43941572D01*
X46080064Y-44042946D01*
X46081977Y-44128592D01*
X46087323Y-44465631D01*
X46133960Y-44472225D01*
X46176376Y-44467614D01*
X46197160Y-44452687D01*
X46202970Y-44424777D01*
X46207930Y-44365325D01*
X46211646Y-44281866D01*
X46213724Y-44181932D01*
X46214024Y-44130504D01*
X46214323Y-43834454D01*
X46275854Y-43813004D01*
X46319404Y-43798420D01*
X46343094Y-43791619D01*
X46343777Y-43791554D01*
X46346154Y-43810042D01*
X46348766Y-43861306D01*
X46351395Y-43939049D01*
X46353821Y-44036974D01*
X46355515Y-44128592D01*
X46360861Y-44465631D01*
X46478092Y-44465631D01*
X46483472Y-44158146D01*
X46488851Y-43850661D01*
X46546001Y-43821107D01*
X46588197Y-43800813D01*
X46613170Y-43791604D01*
X46613891Y-43791554D01*
X46617329Y-43810062D01*
G37*
X40238286Y-43760656D02*
X40329864Y-43808809D01*
X40397449Y-43886305D01*
X40421457Y-43936127D01*
X40440138Y-44010933D01*
X40449701Y-44105452D01*
X40450608Y-44208610D01*
X40443321Y-44309335D01*
X40428303Y-44396553D01*
X40406015Y-44459191D01*
X40399165Y-44469979D01*
X40318032Y-44550505D01*
X40221666Y-44598736D01*
X40117101Y-44612850D01*
X40011368Y-44591029D01*
X39981943Y-44577947D01*
X39924641Y-44537631D01*
X39874350Y-44484175D01*
X39869597Y-44477395D01*
X39850278Y-44444721D01*
X39837508Y-44409794D01*
X39829964Y-44363814D01*
X39826324Y-44297984D01*
X39825265Y-44203505D01*
X39825246Y-44182323D01*
X39825294Y-44175582D01*
X40020631Y-44175582D01*
X40021768Y-44264749D01*
X40026241Y-44323920D01*
X40035646Y-44362141D01*
X40051576Y-44388453D01*
X40059708Y-44397246D01*
X40106458Y-44430661D01*
X40151847Y-44429137D01*
X40197740Y-44400152D01*
X40225112Y-44369209D01*
X40241323Y-44324043D01*
X40250426Y-44252820D01*
X40251051Y-44244514D01*
X40252604Y-44115437D01*
X40236365Y-44019572D01*
X40202552Y-43957507D01*
X40151384Y-43929832D01*
X40133120Y-43928323D01*
X40085160Y-43935913D01*
X40052353Y-43962208D01*
X40032295Y-44012495D01*
X40022578Y-44092064D01*
X40020631Y-44175582D01*
X39825294Y-44175582D01*
X39825974Y-44081649D01*
X39829029Y-44011306D01*
X39835722Y-43962563D01*
X39847360Y-43926688D01*
X39865253Y-43894948D01*
X39869208Y-43889048D01*
X39935667Y-43809504D01*
X40008085Y-43763329D01*
X40096249Y-43744999D01*
X40126187Y-43744103D01*
X40238286Y-43760656D01*
G36*
X40238286Y-43760656D02*
G01*
X40329864Y-43808809D01*
X40397449Y-43886305D01*
X40421457Y-43936127D01*
X40440138Y-44010933D01*
X40449701Y-44105452D01*
X40450608Y-44208610D01*
X40443321Y-44309335D01*
X40428303Y-44396553D01*
X40406015Y-44459191D01*
X40399165Y-44469979D01*
X40318032Y-44550505D01*
X40221666Y-44598736D01*
X40117101Y-44612850D01*
X40011368Y-44591029D01*
X39981943Y-44577947D01*
X39924641Y-44537631D01*
X39874350Y-44484175D01*
X39869597Y-44477395D01*
X39850278Y-44444721D01*
X39837508Y-44409794D01*
X39829964Y-44363814D01*
X39826324Y-44297984D01*
X39825265Y-44203505D01*
X39825246Y-44182323D01*
X39825294Y-44175582D01*
X40020631Y-44175582D01*
X40021768Y-44264749D01*
X40026241Y-44323920D01*
X40035646Y-44362141D01*
X40051576Y-44388453D01*
X40059708Y-44397246D01*
X40106458Y-44430661D01*
X40151847Y-44429137D01*
X40197740Y-44400152D01*
X40225112Y-44369209D01*
X40241323Y-44324043D01*
X40250426Y-44252820D01*
X40251051Y-44244514D01*
X40252604Y-44115437D01*
X40236365Y-44019572D01*
X40202552Y-43957507D01*
X40151384Y-43929832D01*
X40133120Y-43928323D01*
X40085160Y-43935913D01*
X40052353Y-43962208D01*
X40032295Y-44012495D01*
X40022578Y-44092064D01*
X40020631Y-44175582D01*
X39825294Y-44175582D01*
X39825974Y-44081649D01*
X39829029Y-44011306D01*
X39835722Y-43962563D01*
X39847360Y-43926688D01*
X39865253Y-43894948D01*
X39869208Y-43889048D01*
X39935667Y-43809504D01*
X40008085Y-43763329D01*
X40096249Y-43744999D01*
X40126187Y-43744103D01*
X40238286Y-43760656D01*
G37*
X48466624Y-43821238D02*
X48543928Y-43871761D01*
X48581214Y-43916990D01*
X48610753Y-43999063D01*
X48613099Y-44064007D01*
X48607785Y-44150845D01*
X48407515Y-44238503D01*
X48310139Y-44283287D01*
X48246513Y-44319313D01*
X48213429Y-44350517D01*
X48207680Y-44380836D01*
X48226058Y-44414205D01*
X48246323Y-44436323D01*
X48305289Y-44471793D01*
X48369424Y-44474279D01*
X48428326Y-44446635D01*
X48471597Y-44391720D01*
X48479336Y-44372328D01*
X48516406Y-44311764D01*
X48559054Y-44285952D01*
X48617554Y-44263871D01*
X48617554Y-44347584D01*
X48612382Y-44404550D01*
X48592123Y-44452589D01*
X48549662Y-44507746D01*
X48543351Y-44514914D01*
X48496120Y-44563985D01*
X48455521Y-44590320D01*
X48404728Y-44602435D01*
X48362620Y-44606403D01*
X48287302Y-44607391D01*
X48233686Y-44594866D01*
X48200238Y-44576269D01*
X48147668Y-44535375D01*
X48111279Y-44491148D01*
X48088250Y-44435526D01*
X48075759Y-44360447D01*
X48070987Y-44257849D01*
X48070606Y-44205776D01*
X48071901Y-44143348D01*
X48189871Y-44143348D01*
X48191239Y-44176838D01*
X48194649Y-44182323D01*
X48217153Y-44174872D01*
X48265582Y-44155153D01*
X48330308Y-44127118D01*
X48343843Y-44121092D01*
X48425644Y-44079496D01*
X48470712Y-44042938D01*
X48480617Y-44008696D01*
X48456926Y-43974048D01*
X48437360Y-43958739D01*
X48366760Y-43928121D01*
X48300680Y-43933180D01*
X48245359Y-43970551D01*
X48207036Y-44036873D01*
X48194749Y-44089516D01*
X48189871Y-44143348D01*
X48071901Y-44143348D01*
X48073130Y-44084120D01*
X48082432Y-43994110D01*
X48100860Y-43928567D01*
X48130760Y-43880312D01*
X48174480Y-43842167D01*
X48193541Y-43829840D01*
X48280126Y-43797736D01*
X48374922Y-43795716D01*
X48466624Y-43821238D01*
G36*
X48466624Y-43821238D02*
G01*
X48543928Y-43871761D01*
X48581214Y-43916990D01*
X48610753Y-43999063D01*
X48613099Y-44064007D01*
X48607785Y-44150845D01*
X48407515Y-44238503D01*
X48310139Y-44283287D01*
X48246513Y-44319313D01*
X48213429Y-44350517D01*
X48207680Y-44380836D01*
X48226058Y-44414205D01*
X48246323Y-44436323D01*
X48305289Y-44471793D01*
X48369424Y-44474279D01*
X48428326Y-44446635D01*
X48471597Y-44391720D01*
X48479336Y-44372328D01*
X48516406Y-44311764D01*
X48559054Y-44285952D01*
X48617554Y-44263871D01*
X48617554Y-44347584D01*
X48612382Y-44404550D01*
X48592123Y-44452589D01*
X48549662Y-44507746D01*
X48543351Y-44514914D01*
X48496120Y-44563985D01*
X48455521Y-44590320D01*
X48404728Y-44602435D01*
X48362620Y-44606403D01*
X48287302Y-44607391D01*
X48233686Y-44594866D01*
X48200238Y-44576269D01*
X48147668Y-44535375D01*
X48111279Y-44491148D01*
X48088250Y-44435526D01*
X48075759Y-44360447D01*
X48070987Y-44257849D01*
X48070606Y-44205776D01*
X48071901Y-44143348D01*
X48189871Y-44143348D01*
X48191239Y-44176838D01*
X48194649Y-44182323D01*
X48217153Y-44174872D01*
X48265582Y-44155153D01*
X48330308Y-44127118D01*
X48343843Y-44121092D01*
X48425644Y-44079496D01*
X48470712Y-44042938D01*
X48480617Y-44008696D01*
X48456926Y-43974048D01*
X48437360Y-43958739D01*
X48366760Y-43928121D01*
X48300680Y-43933180D01*
X48245359Y-43970551D01*
X48207036Y-44036873D01*
X48194749Y-44089516D01*
X48189871Y-44143348D01*
X48071901Y-44143348D01*
X48073130Y-44084120D01*
X48082432Y-43994110D01*
X48100860Y-43928567D01*
X48130760Y-43880312D01*
X48174480Y-43842167D01*
X48193541Y-43829840D01*
X48280126Y-43797736D01*
X48374922Y-43795716D01*
X48466624Y-43821238D01*
G37*
X45823481Y-43953689D02*
X45823233Y-44099720D01*
X45822272Y-44212055D01*
X45820194Y-44296078D01*
X45816593Y-44357169D01*
X45811065Y-44400709D01*
X45803204Y-44432079D01*
X45792607Y-44456662D01*
X45784582Y-44470694D01*
X45718128Y-44546788D01*
X45633870Y-44594484D01*
X45540649Y-44611599D01*
X45447300Y-44595946D01*
X45391712Y-44567818D01*
X45333357Y-44519160D01*
X45293586Y-44459733D01*
X45269590Y-44381907D01*
X45258561Y-44278052D01*
X45256999Y-44201862D01*
X45257209Y-44196386D01*
X45393708Y-44196386D01*
X45394541Y-44283755D01*
X45398361Y-44341592D01*
X45407146Y-44379429D01*
X45422874Y-44406798D01*
X45441666Y-44427442D01*
X45504775Y-44467290D01*
X45572537Y-44470695D01*
X45636579Y-44437425D01*
X45641564Y-44432917D01*
X45662839Y-44409467D01*
X45676179Y-44381566D01*
X45683401Y-44340041D01*
X45686323Y-44275716D01*
X45686785Y-44204600D01*
X45685783Y-44115258D01*
X45681638Y-44055658D01*
X45672636Y-44016489D01*
X45657067Y-43988440D01*
X45644302Y-43973544D01*
X45585000Y-43935975D01*
X45516701Y-43931457D01*
X45451510Y-43960153D01*
X45438928Y-43970806D01*
X45417511Y-43994463D01*
X45404144Y-44022651D01*
X45396966Y-44064645D01*
X45394119Y-44129719D01*
X45393708Y-44196386D01*
X45257209Y-44196386D01*
X45261722Y-44079165D01*
X45277762Y-43986977D01*
X45307928Y-43917669D01*
X45355029Y-43863611D01*
X45391712Y-43835905D01*
X45458390Y-43805972D01*
X45535672Y-43792078D01*
X45607510Y-43795797D01*
X45647708Y-43810800D01*
X45663482Y-43815070D01*
X45673950Y-43799150D01*
X45681256Y-43756489D01*
X45686785Y-43691506D01*
X45692837Y-43619132D01*
X45701244Y-43575587D01*
X45716541Y-43550687D01*
X45743264Y-43534245D01*
X45760054Y-43526964D01*
X45823554Y-43500363D01*
X45823481Y-43953689D01*
G36*
X45823481Y-43953689D02*
G01*
X45823233Y-44099720D01*
X45822272Y-44212055D01*
X45820194Y-44296078D01*
X45816593Y-44357169D01*
X45811065Y-44400709D01*
X45803204Y-44432079D01*
X45792607Y-44456662D01*
X45784582Y-44470694D01*
X45718128Y-44546788D01*
X45633870Y-44594484D01*
X45540649Y-44611599D01*
X45447300Y-44595946D01*
X45391712Y-44567818D01*
X45333357Y-44519160D01*
X45293586Y-44459733D01*
X45269590Y-44381907D01*
X45258561Y-44278052D01*
X45256999Y-44201862D01*
X45257209Y-44196386D01*
X45393708Y-44196386D01*
X45394541Y-44283755D01*
X45398361Y-44341592D01*
X45407146Y-44379429D01*
X45422874Y-44406798D01*
X45441666Y-44427442D01*
X45504775Y-44467290D01*
X45572537Y-44470695D01*
X45636579Y-44437425D01*
X45641564Y-44432917D01*
X45662839Y-44409467D01*
X45676179Y-44381566D01*
X45683401Y-44340041D01*
X45686323Y-44275716D01*
X45686785Y-44204600D01*
X45685783Y-44115258D01*
X45681638Y-44055658D01*
X45672636Y-44016489D01*
X45657067Y-43988440D01*
X45644302Y-43973544D01*
X45585000Y-43935975D01*
X45516701Y-43931457D01*
X45451510Y-43960153D01*
X45438928Y-43970806D01*
X45417511Y-43994463D01*
X45404144Y-44022651D01*
X45396966Y-44064645D01*
X45394119Y-44129719D01*
X45393708Y-44196386D01*
X45257209Y-44196386D01*
X45261722Y-44079165D01*
X45277762Y-43986977D01*
X45307928Y-43917669D01*
X45355029Y-43863611D01*
X45391712Y-43835905D01*
X45458390Y-43805972D01*
X45535672Y-43792078D01*
X45607510Y-43795797D01*
X45647708Y-43810800D01*
X45663482Y-43815070D01*
X45673950Y-43799150D01*
X45681256Y-43756489D01*
X45686785Y-43691506D01*
X45692837Y-43619132D01*
X45701244Y-43575587D01*
X45716541Y-43550687D01*
X45743264Y-43534245D01*
X45760054Y-43526964D01*
X45823554Y-43500363D01*
X45823481Y-43953689D01*
G37*
X41755654Y-43773145D02*
X41832686Y-43824967D01*
X41892216Y-43899812D01*
X41927778Y-43995054D01*
X41934971Y-44065156D01*
X41934154Y-44094409D01*
X41927314Y-44116807D01*
X41908512Y-44136874D01*
X41871808Y-44159133D01*
X41811262Y-44188109D01*
X41720934Y-44228327D01*
X41720477Y-44228529D01*
X41637333Y-44266610D01*
X41569153Y-44300425D01*
X41522905Y-44326333D01*
X41505558Y-44340695D01*
X41505554Y-44340811D01*
X41520843Y-44372085D01*
X41556596Y-44406557D01*
X41597642Y-44431390D01*
X41618437Y-44436323D01*
X41675170Y-44419262D01*
X41724027Y-44376533D01*
X41747865Y-44329555D01*
X41770797Y-44294922D01*
X41815718Y-44255481D01*
X41868523Y-44221409D01*
X41915110Y-44202880D01*
X41924852Y-44201862D01*
X41935818Y-44218615D01*
X41936479Y-44261439D01*
X41928420Y-44319181D01*
X41913227Y-44380689D01*
X41892486Y-44434809D01*
X41891438Y-44436910D01*
X41829021Y-44524060D01*
X41748126Y-44583339D01*
X41656256Y-44612434D01*
X41560913Y-44609034D01*
X41469598Y-44570828D01*
X41465538Y-44568141D01*
X41393706Y-44503042D01*
X41346473Y-44418105D01*
X41320334Y-44306421D01*
X41316826Y-44275043D01*
X41310613Y-44126936D01*
X41318061Y-44057868D01*
X41505554Y-44057868D01*
X41507990Y-44100952D01*
X41521314Y-44113526D01*
X41554532Y-44104119D01*
X41606894Y-44081883D01*
X41665424Y-44054010D01*
X41666879Y-44053272D01*
X41716489Y-44027177D01*
X41736400Y-44009763D01*
X41731490Y-43991507D01*
X41710816Y-43967520D01*
X41658219Y-43932806D01*
X41601577Y-43930256D01*
X41550769Y-43955519D01*
X41515676Y-44004247D01*
X41505554Y-44057868D01*
X41318061Y-44057868D01*
X41323392Y-44008436D01*
X41356178Y-43914455D01*
X41401821Y-43848615D01*
X41484202Y-43782081D01*
X41574946Y-43749076D01*
X41667585Y-43746973D01*
X41755654Y-43773145D01*
G36*
X41755654Y-43773145D02*
G01*
X41832686Y-43824967D01*
X41892216Y-43899812D01*
X41927778Y-43995054D01*
X41934971Y-44065156D01*
X41934154Y-44094409D01*
X41927314Y-44116807D01*
X41908512Y-44136874D01*
X41871808Y-44159133D01*
X41811262Y-44188109D01*
X41720934Y-44228327D01*
X41720477Y-44228529D01*
X41637333Y-44266610D01*
X41569153Y-44300425D01*
X41522905Y-44326333D01*
X41505558Y-44340695D01*
X41505554Y-44340811D01*
X41520843Y-44372085D01*
X41556596Y-44406557D01*
X41597642Y-44431390D01*
X41618437Y-44436323D01*
X41675170Y-44419262D01*
X41724027Y-44376533D01*
X41747865Y-44329555D01*
X41770797Y-44294922D01*
X41815718Y-44255481D01*
X41868523Y-44221409D01*
X41915110Y-44202880D01*
X41924852Y-44201862D01*
X41935818Y-44218615D01*
X41936479Y-44261439D01*
X41928420Y-44319181D01*
X41913227Y-44380689D01*
X41892486Y-44434809D01*
X41891438Y-44436910D01*
X41829021Y-44524060D01*
X41748126Y-44583339D01*
X41656256Y-44612434D01*
X41560913Y-44609034D01*
X41469598Y-44570828D01*
X41465538Y-44568141D01*
X41393706Y-44503042D01*
X41346473Y-44418105D01*
X41320334Y-44306421D01*
X41316826Y-44275043D01*
X41310613Y-44126936D01*
X41318061Y-44057868D01*
X41505554Y-44057868D01*
X41507990Y-44100952D01*
X41521314Y-44113526D01*
X41554532Y-44104119D01*
X41606894Y-44081883D01*
X41665424Y-44054010D01*
X41666879Y-44053272D01*
X41716489Y-44027177D01*
X41736400Y-44009763D01*
X41731490Y-43991507D01*
X41710816Y-43967520D01*
X41658219Y-43932806D01*
X41601577Y-43930256D01*
X41550769Y-43955519D01*
X41515676Y-44004247D01*
X41505554Y-44057868D01*
X41318061Y-44057868D01*
X41323392Y-44008436D01*
X41356178Y-43914455D01*
X41401821Y-43848615D01*
X41484202Y-43782081D01*
X41574946Y-43749076D01*
X41667585Y-43746973D01*
X41755654Y-43773145D01*
G37*
X44274901Y-43799703D02*
X44351460Y-43828133D01*
X44352336Y-43828679D01*
X44399685Y-43863527D01*
X44434641Y-43904252D01*
X44459225Y-43957325D01*
X44475462Y-44029214D01*
X44485375Y-44126392D01*
X44490986Y-44255328D01*
X44491477Y-44273698D01*
X44498541Y-44550687D01*
X44439095Y-44581428D01*
X44396081Y-44602202D01*
X44370110Y-44612046D01*
X44368909Y-44612169D01*
X44364414Y-44594006D01*
X44360844Y-44545012D01*
X44358648Y-44473431D01*
X44358169Y-44415468D01*
X44358158Y-44321570D01*
X44353866Y-44262603D01*
X44338903Y-44234479D01*
X44306882Y-44233106D01*
X44251414Y-44254398D01*
X44167669Y-44293536D01*
X44106089Y-44326043D01*
X44074417Y-44354245D01*
X44065106Y-44384982D01*
X44065092Y-44386504D01*
X44080457Y-44439454D01*
X44125947Y-44468060D01*
X44195566Y-44472203D01*
X44245713Y-44471484D01*
X44272154Y-44485927D01*
X44288643Y-44520618D01*
X44298133Y-44564816D01*
X44284457Y-44589893D01*
X44279307Y-44593482D01*
X44230825Y-44607896D01*
X44162931Y-44609937D01*
X44093012Y-44600383D01*
X44043468Y-44582922D01*
X43974970Y-44524764D01*
X43936034Y-44443808D01*
X43928323Y-44380560D01*
X43934207Y-44323511D01*
X43955501Y-44276942D01*
X43997665Y-44235581D01*
X44066159Y-44194155D01*
X44166444Y-44147393D01*
X44172554Y-44144750D01*
X44262890Y-44103017D01*
X44318635Y-44068791D01*
X44342529Y-44038035D01*
X44337313Y-44006711D01*
X44305728Y-43970783D01*
X44296283Y-43962516D01*
X44233017Y-43930458D01*
X44167464Y-43931807D01*
X44110372Y-43963238D01*
X44072493Y-44021424D01*
X44068974Y-44032846D01*
X44034700Y-44088237D01*
X43991209Y-44114918D01*
X43928323Y-44141360D01*
X43928323Y-44072948D01*
X43947452Y-43973510D01*
X44004231Y-43882302D01*
X44033778Y-43851789D01*
X44100942Y-43812628D01*
X44186356Y-43794900D01*
X44274901Y-43799703D01*
G36*
X44274901Y-43799703D02*
G01*
X44351460Y-43828133D01*
X44352336Y-43828679D01*
X44399685Y-43863527D01*
X44434641Y-43904252D01*
X44459225Y-43957325D01*
X44475462Y-44029214D01*
X44485375Y-44126392D01*
X44490986Y-44255328D01*
X44491477Y-44273698D01*
X44498541Y-44550687D01*
X44439095Y-44581428D01*
X44396081Y-44602202D01*
X44370110Y-44612046D01*
X44368909Y-44612169D01*
X44364414Y-44594006D01*
X44360844Y-44545012D01*
X44358648Y-44473431D01*
X44358169Y-44415468D01*
X44358158Y-44321570D01*
X44353866Y-44262603D01*
X44338903Y-44234479D01*
X44306882Y-44233106D01*
X44251414Y-44254398D01*
X44167669Y-44293536D01*
X44106089Y-44326043D01*
X44074417Y-44354245D01*
X44065106Y-44384982D01*
X44065092Y-44386504D01*
X44080457Y-44439454D01*
X44125947Y-44468060D01*
X44195566Y-44472203D01*
X44245713Y-44471484D01*
X44272154Y-44485927D01*
X44288643Y-44520618D01*
X44298133Y-44564816D01*
X44284457Y-44589893D01*
X44279307Y-44593482D01*
X44230825Y-44607896D01*
X44162931Y-44609937D01*
X44093012Y-44600383D01*
X44043468Y-44582922D01*
X43974970Y-44524764D01*
X43936034Y-44443808D01*
X43928323Y-44380560D01*
X43934207Y-44323511D01*
X43955501Y-44276942D01*
X43997665Y-44235581D01*
X44066159Y-44194155D01*
X44166444Y-44147393D01*
X44172554Y-44144750D01*
X44262890Y-44103017D01*
X44318635Y-44068791D01*
X44342529Y-44038035D01*
X44337313Y-44006711D01*
X44305728Y-43970783D01*
X44296283Y-43962516D01*
X44233017Y-43930458D01*
X44167464Y-43931807D01*
X44110372Y-43963238D01*
X44072493Y-44021424D01*
X44068974Y-44032846D01*
X44034700Y-44088237D01*
X43991209Y-44114918D01*
X43928323Y-44141360D01*
X43928323Y-44072948D01*
X43947452Y-43973510D01*
X44004231Y-43882302D01*
X44033778Y-43851789D01*
X44100942Y-43812628D01*
X44186356Y-43794900D01*
X44274901Y-43799703D01*
G37*
X40990286Y-43757905D02*
X41064939Y-43795127D01*
X41130831Y-43863661D01*
X41148977Y-43889048D01*
X41168745Y-43922266D01*
X41181572Y-43958345D01*
X41188910Y-44006498D01*
X41192213Y-44075936D01*
X41192938Y-44167606D01*
X41189663Y-44293230D01*
X41178277Y-44387554D01*
X41156441Y-44457923D01*
X41121819Y-44511686D01*
X41072070Y-44556188D01*
X41068414Y-44558823D01*
X41019385Y-44585777D01*
X40960345Y-44599112D01*
X40885259Y-44602400D01*
X40763195Y-44602400D01*
X40763144Y-44720897D01*
X40762008Y-44786892D01*
X40755086Y-44825602D01*
X40736998Y-44848819D01*
X40702362Y-44868333D01*
X40694045Y-44872320D01*
X40655120Y-44891003D01*
X40624983Y-44902803D01*
X40602574Y-44903822D01*
X40586833Y-44890161D01*
X40576702Y-44857922D01*
X40571123Y-44803204D01*
X40569035Y-44722111D01*
X40569381Y-44610744D01*
X40571100Y-44465202D01*
X40571637Y-44421669D01*
X40573572Y-44271605D01*
X40575304Y-44173442D01*
X40763092Y-44173442D01*
X40764148Y-44256764D01*
X40768838Y-44311280D01*
X40779451Y-44347237D01*
X40798272Y-44374882D01*
X40811050Y-44388365D01*
X40863290Y-44427817D01*
X40909542Y-44431028D01*
X40957267Y-44398449D01*
X40958477Y-44397246D01*
X40977894Y-44372068D01*
X40989707Y-44337847D01*
X40995665Y-44285148D01*
X40997520Y-44204531D01*
X40997554Y-44186671D01*
X40993070Y-44075575D01*
X40978474Y-43998561D01*
X40952050Y-43951547D01*
X40912083Y-43930450D01*
X40888984Y-43928323D01*
X40834162Y-43938300D01*
X40796558Y-43971152D01*
X40773923Y-44031257D01*
X40764006Y-44122998D01*
X40763092Y-44173442D01*
X40575304Y-44173442D01*
X40575622Y-44155460D01*
X40578273Y-44068079D01*
X40582006Y-44004305D01*
X40587307Y-43958982D01*
X40594658Y-43926955D01*
X40604543Y-43903068D01*
X40617446Y-43882164D01*
X40622979Y-43874298D01*
X40696369Y-43799995D01*
X40789160Y-43757867D01*
X40896496Y-43746122D01*
X40990286Y-43757905D01*
G36*
X40990286Y-43757905D02*
G01*
X41064939Y-43795127D01*
X41130831Y-43863661D01*
X41148977Y-43889048D01*
X41168745Y-43922266D01*
X41181572Y-43958345D01*
X41188910Y-44006498D01*
X41192213Y-44075936D01*
X41192938Y-44167606D01*
X41189663Y-44293230D01*
X41178277Y-44387554D01*
X41156441Y-44457923D01*
X41121819Y-44511686D01*
X41072070Y-44556188D01*
X41068414Y-44558823D01*
X41019385Y-44585777D01*
X40960345Y-44599112D01*
X40885259Y-44602400D01*
X40763195Y-44602400D01*
X40763144Y-44720897D01*
X40762008Y-44786892D01*
X40755086Y-44825602D01*
X40736998Y-44848819D01*
X40702362Y-44868333D01*
X40694045Y-44872320D01*
X40655120Y-44891003D01*
X40624983Y-44902803D01*
X40602574Y-44903822D01*
X40586833Y-44890161D01*
X40576702Y-44857922D01*
X40571123Y-44803204D01*
X40569035Y-44722111D01*
X40569381Y-44610744D01*
X40571100Y-44465202D01*
X40571637Y-44421669D01*
X40573572Y-44271605D01*
X40575304Y-44173442D01*
X40763092Y-44173442D01*
X40764148Y-44256764D01*
X40768838Y-44311280D01*
X40779451Y-44347237D01*
X40798272Y-44374882D01*
X40811050Y-44388365D01*
X40863290Y-44427817D01*
X40909542Y-44431028D01*
X40957267Y-44398449D01*
X40958477Y-44397246D01*
X40977894Y-44372068D01*
X40989707Y-44337847D01*
X40995665Y-44285148D01*
X40997520Y-44204531D01*
X40997554Y-44186671D01*
X40993070Y-44075575D01*
X40978474Y-43998561D01*
X40952050Y-43951547D01*
X40912083Y-43930450D01*
X40888984Y-43928323D01*
X40834162Y-43938300D01*
X40796558Y-43971152D01*
X40773923Y-44031257D01*
X40764006Y-44122998D01*
X40763092Y-44173442D01*
X40575304Y-44173442D01*
X40575622Y-44155460D01*
X40578273Y-44068079D01*
X40582006Y-44004305D01*
X40587307Y-43958982D01*
X40594658Y-43926955D01*
X40604543Y-43903068D01*
X40617446Y-43882164D01*
X40622979Y-43874298D01*
X40696369Y-43799995D01*
X40789160Y-43757867D01*
X40896496Y-43746122D01*
X40990286Y-43757905D01*
G37*
X47108733Y-43806928D02*
X47164990Y-43832517D01*
X47209147Y-43863524D01*
X47241501Y-43898195D01*
X47263838Y-43942920D01*
X47277946Y-44004092D01*
X47285611Y-44088101D01*
X47288620Y-44201340D01*
X47288938Y-44275909D01*
X47288938Y-44566820D01*
X47239173Y-44589495D01*
X47199976Y-44606067D01*
X47180557Y-44612169D01*
X47176842Y-44594010D01*
X47173895Y-44545048D01*
X47172091Y-44473553D01*
X47171708Y-44416785D01*
X47170061Y-44334771D01*
X47165622Y-44269709D01*
X47159140Y-44229867D01*
X47153990Y-44221400D01*
X47119377Y-44230046D01*
X47065040Y-44252223D01*
X47002122Y-44282286D01*
X46941768Y-44314592D01*
X46895121Y-44343498D01*
X46873326Y-44363361D01*
X46873239Y-44363575D01*
X46875114Y-44400335D01*
X46891925Y-44435426D01*
X46921439Y-44463928D01*
X46964516Y-44473461D01*
X47001332Y-44472350D01*
X47053474Y-44471533D01*
X47080844Y-44483749D01*
X47097282Y-44516024D01*
X47099355Y-44522110D01*
X47106481Y-44568139D01*
X47087424Y-44596087D01*
X47037753Y-44609407D01*
X46984097Y-44611870D01*
X46887542Y-44593610D01*
X46837559Y-44567531D01*
X46775829Y-44506268D01*
X46743090Y-44431070D01*
X46740153Y-44351611D01*
X46767824Y-44277567D01*
X46809447Y-44231169D01*
X46851004Y-44205193D01*
X46916322Y-44172307D01*
X46992438Y-44138957D01*
X47005126Y-44133861D01*
X47088733Y-44096965D01*
X47136930Y-44064446D01*
X47152430Y-44032118D01*
X47137950Y-43995794D01*
X47113092Y-43967400D01*
X47054339Y-43932439D01*
X46989693Y-43929817D01*
X46930408Y-43956758D01*
X46887739Y-44010488D01*
X46882139Y-44024350D01*
X46849533Y-44075336D01*
X46801930Y-44113187D01*
X46741861Y-44144250D01*
X46741861Y-44056168D01*
X46745397Y-44002351D01*
X46760556Y-43959934D01*
X46794168Y-43914679D01*
X46826435Y-43879820D01*
X46876609Y-43830462D01*
X46915593Y-43803947D01*
X46957464Y-43793311D01*
X47004860Y-43791554D01*
X47108733Y-43806928D01*
G36*
X47108733Y-43806928D02*
G01*
X47164990Y-43832517D01*
X47209147Y-43863524D01*
X47241501Y-43898195D01*
X47263838Y-43942920D01*
X47277946Y-44004092D01*
X47285611Y-44088101D01*
X47288620Y-44201340D01*
X47288938Y-44275909D01*
X47288938Y-44566820D01*
X47239173Y-44589495D01*
X47199976Y-44606067D01*
X47180557Y-44612169D01*
X47176842Y-44594010D01*
X47173895Y-44545048D01*
X47172091Y-44473553D01*
X47171708Y-44416785D01*
X47170061Y-44334771D01*
X47165622Y-44269709D01*
X47159140Y-44229867D01*
X47153990Y-44221400D01*
X47119377Y-44230046D01*
X47065040Y-44252223D01*
X47002122Y-44282286D01*
X46941768Y-44314592D01*
X46895121Y-44343498D01*
X46873326Y-44363361D01*
X46873239Y-44363575D01*
X46875114Y-44400335D01*
X46891925Y-44435426D01*
X46921439Y-44463928D01*
X46964516Y-44473461D01*
X47001332Y-44472350D01*
X47053474Y-44471533D01*
X47080844Y-44483749D01*
X47097282Y-44516024D01*
X47099355Y-44522110D01*
X47106481Y-44568139D01*
X47087424Y-44596087D01*
X47037753Y-44609407D01*
X46984097Y-44611870D01*
X46887542Y-44593610D01*
X46837559Y-44567531D01*
X46775829Y-44506268D01*
X46743090Y-44431070D01*
X46740153Y-44351611D01*
X46767824Y-44277567D01*
X46809447Y-44231169D01*
X46851004Y-44205193D01*
X46916322Y-44172307D01*
X46992438Y-44138957D01*
X47005126Y-44133861D01*
X47088733Y-44096965D01*
X47136930Y-44064446D01*
X47152430Y-44032118D01*
X47137950Y-43995794D01*
X47113092Y-43967400D01*
X47054339Y-43932439D01*
X46989693Y-43929817D01*
X46930408Y-43956758D01*
X46887739Y-44010488D01*
X46882139Y-44024350D01*
X46849533Y-44075336D01*
X46801930Y-44113187D01*
X46741861Y-44144250D01*
X46741861Y-44056168D01*
X46745397Y-44002351D01*
X46760556Y-43959934D01*
X46794168Y-43914679D01*
X46826435Y-43879820D01*
X46876609Y-43830462D01*
X46915593Y-43803947D01*
X46957464Y-43793311D01*
X47004860Y-43791554D01*
X47108733Y-43806928D01*
G37*
X44361278Y-37461176D02*
X44467012Y-37461755D01*
X44543532Y-37463322D01*
X44595772Y-37466372D01*
X44628663Y-37471396D01*
X44647137Y-37478889D01*
X44656127Y-37489344D01*
X44660563Y-37503253D01*
X44660994Y-37505054D01*
X44667733Y-37537545D01*
X44680208Y-37601652D01*
X44697119Y-37690551D01*
X44717171Y-37797419D01*
X44739064Y-37915433D01*
X44739829Y-37919578D01*
X44761759Y-38035231D01*
X44782277Y-38137414D01*
X44800059Y-38219998D01*
X44813781Y-38276856D01*
X44822118Y-38301858D01*
X44822516Y-38302301D01*
X44847077Y-38314510D01*
X44897715Y-38334856D01*
X44963495Y-38358945D01*
X44963861Y-38359074D01*
X45046717Y-38390218D01*
X45144400Y-38429891D01*
X45236477Y-38469781D01*
X45240834Y-38471753D01*
X45390807Y-38539820D01*
X45722898Y-38313039D01*
X45824774Y-38243904D01*
X45917057Y-38182097D01*
X45994403Y-38131133D01*
X46051464Y-38094527D01*
X46082895Y-38075794D01*
X46085879Y-38074404D01*
X46108721Y-38080590D01*
X46151382Y-38110435D01*
X46215528Y-38165347D01*
X46302821Y-38246734D01*
X46391935Y-38333322D01*
X46477841Y-38418647D01*
X46554727Y-38496508D01*
X46617964Y-38562097D01*
X46662923Y-38610605D01*
X46684976Y-38637225D01*
X46685796Y-38638595D01*
X46688234Y-38656863D01*
X46679050Y-38686695D01*
X46655974Y-38732121D01*
X46616737Y-38797170D01*
X46559070Y-38885870D01*
X46482195Y-39000057D01*
X46413970Y-39100562D01*
X46352982Y-39190703D01*
X46302756Y-39265249D01*
X46266816Y-39318965D01*
X46248687Y-39346618D01*
X46247546Y-39348495D01*
X46249759Y-39374990D01*
X46266538Y-39426486D01*
X46294542Y-39493251D01*
X46304522Y-39514572D01*
X46348072Y-39609559D01*
X46394534Y-39717337D01*
X46432277Y-39810592D01*
X46459473Y-39879806D01*
X46481075Y-39932406D01*
X46493558Y-39959897D01*
X46495109Y-39962016D01*
X46518068Y-39965524D01*
X46572186Y-39975138D01*
X46650268Y-39989489D01*
X46745119Y-40007207D01*
X46849543Y-40026925D01*
X46956344Y-40047274D01*
X47058326Y-40066886D01*
X47148294Y-40084391D01*
X47219053Y-40098422D01*
X47263406Y-40107609D01*
X47274285Y-40110207D01*
X47285522Y-40116618D01*
X47294005Y-40131097D01*
X47300114Y-40158533D01*
X47304232Y-40203811D01*
X47306741Y-40271820D01*
X47308021Y-40367447D01*
X47308454Y-40495580D01*
X47308477Y-40548101D01*
X47308477Y-40975245D01*
X47205900Y-40995491D01*
X47148831Y-41006470D01*
X47063669Y-41022495D01*
X46960772Y-41041633D01*
X46850496Y-41061951D01*
X46820015Y-41067532D01*
X46718255Y-41087317D01*
X46629605Y-41106773D01*
X46561508Y-41124097D01*
X46521404Y-41137488D01*
X46514723Y-41141479D01*
X46498319Y-41169742D01*
X46474799Y-41224509D01*
X46448716Y-41294988D01*
X46443542Y-41310169D01*
X46409356Y-41404296D01*
X46366923Y-41510501D01*
X46325397Y-41605873D01*
X46325192Y-41606316D01*
X46256040Y-41755925D01*
X46710912Y-42425017D01*
X46418900Y-42717516D01*
X46330580Y-42804570D01*
X46250025Y-42881309D01*
X46181760Y-42943637D01*
X46130308Y-42987456D01*
X46100194Y-43008670D01*
X46095874Y-43010016D01*
X46070511Y-42999416D01*
X46018758Y-42969947D01*
X45946268Y-42925105D01*
X45858694Y-42868384D01*
X45764012Y-42804862D01*
X45667916Y-42740068D01*
X45582237Y-42683687D01*
X45512416Y-42639188D01*
X45463894Y-42610039D01*
X45442182Y-42599708D01*
X45415693Y-42608450D01*
X45365462Y-42631487D01*
X45301851Y-42664031D01*
X45295108Y-42667649D01*
X45209446Y-42710610D01*
X45150706Y-42731679D01*
X45114172Y-42731903D01*
X45095131Y-42712328D01*
X45095020Y-42712054D01*
X45085502Y-42688872D01*
X45062803Y-42633841D01*
X45028682Y-42551222D01*
X44984900Y-42445272D01*
X44933216Y-42320252D01*
X44875392Y-42180420D01*
X44819391Y-42045037D01*
X44757847Y-41895634D01*
X44701339Y-41757232D01*
X44651561Y-41634073D01*
X44610206Y-41530402D01*
X44578968Y-41450459D01*
X44559541Y-41398488D01*
X44553554Y-41379092D01*
X44568568Y-41356843D01*
X44607839Y-41321382D01*
X44660207Y-41282287D01*
X44809341Y-41158645D01*
X44925911Y-41016922D01*
X45008518Y-40860104D01*
X45055766Y-40691175D01*
X45066257Y-40513122D01*
X45058631Y-40430939D01*
X45017082Y-40260431D01*
X44945523Y-40109859D01*
X44848395Y-39980709D01*
X44730134Y-39874464D01*
X44595180Y-39792610D01*
X44447971Y-39736632D01*
X44292944Y-39708015D01*
X44134539Y-39708244D01*
X43977194Y-39738805D01*
X43825346Y-39801182D01*
X43683435Y-39896860D01*
X43624203Y-39950972D01*
X43510603Y-40089920D01*
X43431506Y-40241761D01*
X43386386Y-40402067D01*
X43374716Y-40566412D01*
X43395969Y-40730371D01*
X43449620Y-40889518D01*
X43535140Y-41039425D01*
X43652005Y-41175667D01*
X43782593Y-41282287D01*
X43836988Y-41323042D01*
X43875414Y-41358118D01*
X43889246Y-41379126D01*
X43882003Y-41402035D01*
X43861405Y-41456765D01*
X43829146Y-41539072D01*
X43786921Y-41644715D01*
X43736423Y-41769450D01*
X43679348Y-41909036D01*
X43623254Y-42045070D01*
X43561367Y-42194601D01*
X43504044Y-42333167D01*
X43453044Y-42456507D01*
X43410127Y-42560364D01*
X43377053Y-42640480D01*
X43355581Y-42692595D01*
X43347625Y-42712054D01*
X43328829Y-42731823D01*
X43292474Y-42731765D01*
X43233879Y-42710841D01*
X43148368Y-42668013D01*
X43147692Y-42667649D01*
X43083307Y-42634412D01*
X43031261Y-42610202D01*
X43001912Y-42599804D01*
X43000617Y-42599708D01*
X42978524Y-42610255D01*
X42929748Y-42639584D01*
X42859731Y-42684227D01*
X42773914Y-42740714D01*
X42678788Y-42804862D01*
X42581940Y-42869811D01*
X42494653Y-42926296D01*
X42422581Y-42970821D01*
X42371377Y-42999890D01*
X42346926Y-43010016D01*
X42324410Y-42996707D01*
X42279142Y-42959512D01*
X42215644Y-42902528D01*
X42138439Y-42829849D01*
X42052051Y-42745571D01*
X42023799Y-42717416D01*
X41731687Y-42424816D01*
X41954031Y-42098504D01*
X42021602Y-41998297D01*
X42080907Y-41908363D01*
X42128617Y-41833910D01*
X42161407Y-41780151D01*
X42175948Y-41752294D01*
X42176374Y-41750312D01*
X42168708Y-41724055D01*
X42148089Y-41671237D01*
X42118085Y-41600710D01*
X42097025Y-41553493D01*
X42057648Y-41463094D01*
X42020565Y-41371766D01*
X41991815Y-41294600D01*
X41984005Y-41271092D01*
X41961817Y-41208316D01*
X41940127Y-41159811D01*
X41928213Y-41141479D01*
X41901923Y-41130259D01*
X41844542Y-41114354D01*
X41763518Y-41095567D01*
X41666295Y-41075699D01*
X41622785Y-41067532D01*
X41512296Y-41047229D01*
X41406316Y-41027570D01*
X41315201Y-41010488D01*
X41249308Y-40997918D01*
X41236900Y-40995491D01*
X41134323Y-40975245D01*
X41134323Y-40548101D01*
X41134553Y-40407646D01*
X41135499Y-40301379D01*
X41137541Y-40224413D01*
X41141062Y-40171860D01*
X41146443Y-40138833D01*
X41154066Y-40120445D01*
X41164312Y-40111808D01*
X41168515Y-40110207D01*
X41193870Y-40104527D01*
X41249884Y-40093195D01*
X41329364Y-40077579D01*
X41425112Y-40059047D01*
X41529933Y-40038969D01*
X41636632Y-40018712D01*
X41738013Y-39999646D01*
X41826879Y-39983139D01*
X41896037Y-39970559D01*
X41938289Y-39963275D01*
X41947690Y-39962016D01*
X41956207Y-39945163D01*
X41975060Y-39900270D01*
X42000724Y-39835830D01*
X42010523Y-39810592D01*
X42050048Y-39713086D01*
X42096592Y-39605359D01*
X42138277Y-39514572D01*
X42168950Y-39445153D01*
X42189356Y-39388110D01*
X42196168Y-39353177D01*
X42195082Y-39348495D01*
X42180685Y-39326391D01*
X42147812Y-39277231D01*
X42099990Y-39206248D01*
X42040748Y-39118678D01*
X41973615Y-39019757D01*
X41960341Y-39000230D01*
X41882446Y-38884540D01*
X41825187Y-38796444D01*
X41786281Y-38731886D01*
X41763444Y-38686811D01*
X41754394Y-38657163D01*
X41756848Y-38638885D01*
X41756911Y-38638769D01*
X41776227Y-38614761D01*
X41818951Y-38568347D01*
X41880451Y-38504337D01*
X41956098Y-38427545D01*
X42041261Y-38342782D01*
X42050865Y-38333322D01*
X42158190Y-38229389D01*
X42241015Y-38153075D01*
X42301005Y-38102971D01*
X42339823Y-38077670D01*
X42356920Y-38074404D01*
X42381873Y-38088650D01*
X42433655Y-38121556D01*
X42506920Y-38169608D01*
X42596320Y-38229290D01*
X42696511Y-38297088D01*
X42719901Y-38313039D01*
X43051993Y-38539820D01*
X43201965Y-38471753D01*
X43293170Y-38432085D01*
X43391069Y-38392191D01*
X43475231Y-38360383D01*
X43478938Y-38359074D01*
X43544769Y-38334976D01*
X43595516Y-38314600D01*
X43620242Y-38302336D01*
X43620284Y-38302301D01*
X43628129Y-38280134D01*
X43641466Y-38225617D01*
X43658970Y-38144880D01*
X43679317Y-38044050D01*
X43701182Y-37929256D01*
X43702971Y-37919578D01*
X43724904Y-37801304D01*
X43745040Y-37693942D01*
X43762080Y-37604317D01*
X43774728Y-37539251D01*
X43781684Y-37505568D01*
X43781806Y-37505054D01*
X43786039Y-37490725D01*
X43794271Y-37479907D01*
X43811433Y-37472106D01*
X43842458Y-37466829D01*
X43892278Y-37463582D01*
X43965824Y-37461872D01*
X44068029Y-37461207D01*
X44203825Y-37461093D01*
X44221400Y-37461092D01*
X44361278Y-37461176D01*
G36*
X44361278Y-37461176D02*
G01*
X44467012Y-37461755D01*
X44543532Y-37463322D01*
X44595772Y-37466372D01*
X44628663Y-37471396D01*
X44647137Y-37478889D01*
X44656127Y-37489344D01*
X44660563Y-37503253D01*
X44660994Y-37505054D01*
X44667733Y-37537545D01*
X44680208Y-37601652D01*
X44697119Y-37690551D01*
X44717171Y-37797419D01*
X44739064Y-37915433D01*
X44739829Y-37919578D01*
X44761759Y-38035231D01*
X44782277Y-38137414D01*
X44800059Y-38219998D01*
X44813781Y-38276856D01*
X44822118Y-38301858D01*
X44822516Y-38302301D01*
X44847077Y-38314510D01*
X44897715Y-38334856D01*
X44963495Y-38358945D01*
X44963861Y-38359074D01*
X45046717Y-38390218D01*
X45144400Y-38429891D01*
X45236477Y-38469781D01*
X45240834Y-38471753D01*
X45390807Y-38539820D01*
X45722898Y-38313039D01*
X45824774Y-38243904D01*
X45917057Y-38182097D01*
X45994403Y-38131133D01*
X46051464Y-38094527D01*
X46082895Y-38075794D01*
X46085879Y-38074404D01*
X46108721Y-38080590D01*
X46151382Y-38110435D01*
X46215528Y-38165347D01*
X46302821Y-38246734D01*
X46391935Y-38333322D01*
X46477841Y-38418647D01*
X46554727Y-38496508D01*
X46617964Y-38562097D01*
X46662923Y-38610605D01*
X46684976Y-38637225D01*
X46685796Y-38638595D01*
X46688234Y-38656863D01*
X46679050Y-38686695D01*
X46655974Y-38732121D01*
X46616737Y-38797170D01*
X46559070Y-38885870D01*
X46482195Y-39000057D01*
X46413970Y-39100562D01*
X46352982Y-39190703D01*
X46302756Y-39265249D01*
X46266816Y-39318965D01*
X46248687Y-39346618D01*
X46247546Y-39348495D01*
X46249759Y-39374990D01*
X46266538Y-39426486D01*
X46294542Y-39493251D01*
X46304522Y-39514572D01*
X46348072Y-39609559D01*
X46394534Y-39717337D01*
X46432277Y-39810592D01*
X46459473Y-39879806D01*
X46481075Y-39932406D01*
X46493558Y-39959897D01*
X46495109Y-39962016D01*
X46518068Y-39965524D01*
X46572186Y-39975138D01*
X46650268Y-39989489D01*
X46745119Y-40007207D01*
X46849543Y-40026925D01*
X46956344Y-40047274D01*
X47058326Y-40066886D01*
X47148294Y-40084391D01*
X47219053Y-40098422D01*
X47263406Y-40107609D01*
X47274285Y-40110207D01*
X47285522Y-40116618D01*
X47294005Y-40131097D01*
X47300114Y-40158533D01*
X47304232Y-40203811D01*
X47306741Y-40271820D01*
X47308021Y-40367447D01*
X47308454Y-40495580D01*
X47308477Y-40548101D01*
X47308477Y-40975245D01*
X47205900Y-40995491D01*
X47148831Y-41006470D01*
X47063669Y-41022495D01*
X46960772Y-41041633D01*
X46850496Y-41061951D01*
X46820015Y-41067532D01*
X46718255Y-41087317D01*
X46629605Y-41106773D01*
X46561508Y-41124097D01*
X46521404Y-41137488D01*
X46514723Y-41141479D01*
X46498319Y-41169742D01*
X46474799Y-41224509D01*
X46448716Y-41294988D01*
X46443542Y-41310169D01*
X46409356Y-41404296D01*
X46366923Y-41510501D01*
X46325397Y-41605873D01*
X46325192Y-41606316D01*
X46256040Y-41755925D01*
X46710912Y-42425017D01*
X46418900Y-42717516D01*
X46330580Y-42804570D01*
X46250025Y-42881309D01*
X46181760Y-42943637D01*
X46130308Y-42987456D01*
X46100194Y-43008670D01*
X46095874Y-43010016D01*
X46070511Y-42999416D01*
X46018758Y-42969947D01*
X45946268Y-42925105D01*
X45858694Y-42868384D01*
X45764012Y-42804862D01*
X45667916Y-42740068D01*
X45582237Y-42683687D01*
X45512416Y-42639188D01*
X45463894Y-42610039D01*
X45442182Y-42599708D01*
X45415693Y-42608450D01*
X45365462Y-42631487D01*
X45301851Y-42664031D01*
X45295108Y-42667649D01*
X45209446Y-42710610D01*
X45150706Y-42731679D01*
X45114172Y-42731903D01*
X45095131Y-42712328D01*
X45095020Y-42712054D01*
X45085502Y-42688872D01*
X45062803Y-42633841D01*
X45028682Y-42551222D01*
X44984900Y-42445272D01*
X44933216Y-42320252D01*
X44875392Y-42180420D01*
X44819391Y-42045037D01*
X44757847Y-41895634D01*
X44701339Y-41757232D01*
X44651561Y-41634073D01*
X44610206Y-41530402D01*
X44578968Y-41450459D01*
X44559541Y-41398488D01*
X44553554Y-41379092D01*
X44568568Y-41356843D01*
X44607839Y-41321382D01*
X44660207Y-41282287D01*
X44809341Y-41158645D01*
X44925911Y-41016922D01*
X45008518Y-40860104D01*
X45055766Y-40691175D01*
X45066257Y-40513122D01*
X45058631Y-40430939D01*
X45017082Y-40260431D01*
X44945523Y-40109859D01*
X44848395Y-39980709D01*
X44730134Y-39874464D01*
X44595180Y-39792610D01*
X44447971Y-39736632D01*
X44292944Y-39708015D01*
X44134539Y-39708244D01*
X43977194Y-39738805D01*
X43825346Y-39801182D01*
X43683435Y-39896860D01*
X43624203Y-39950972D01*
X43510603Y-40089920D01*
X43431506Y-40241761D01*
X43386386Y-40402067D01*
X43374716Y-40566412D01*
X43395969Y-40730371D01*
X43449620Y-40889518D01*
X43535140Y-41039425D01*
X43652005Y-41175667D01*
X43782593Y-41282287D01*
X43836988Y-41323042D01*
X43875414Y-41358118D01*
X43889246Y-41379126D01*
X43882003Y-41402035D01*
X43861405Y-41456765D01*
X43829146Y-41539072D01*
X43786921Y-41644715D01*
X43736423Y-41769450D01*
X43679348Y-41909036D01*
X43623254Y-42045070D01*
X43561367Y-42194601D01*
X43504044Y-42333167D01*
X43453044Y-42456507D01*
X43410127Y-42560364D01*
X43377053Y-42640480D01*
X43355581Y-42692595D01*
X43347625Y-42712054D01*
X43328829Y-42731823D01*
X43292474Y-42731765D01*
X43233879Y-42710841D01*
X43148368Y-42668013D01*
X43147692Y-42667649D01*
X43083307Y-42634412D01*
X43031261Y-42610202D01*
X43001912Y-42599804D01*
X43000617Y-42599708D01*
X42978524Y-42610255D01*
X42929748Y-42639584D01*
X42859731Y-42684227D01*
X42773914Y-42740714D01*
X42678788Y-42804862D01*
X42581940Y-42869811D01*
X42494653Y-42926296D01*
X42422581Y-42970821D01*
X42371377Y-42999890D01*
X42346926Y-43010016D01*
X42324410Y-42996707D01*
X42279142Y-42959512D01*
X42215644Y-42902528D01*
X42138439Y-42829849D01*
X42052051Y-42745571D01*
X42023799Y-42717416D01*
X41731687Y-42424816D01*
X41954031Y-42098504D01*
X42021602Y-41998297D01*
X42080907Y-41908363D01*
X42128617Y-41833910D01*
X42161407Y-41780151D01*
X42175948Y-41752294D01*
X42176374Y-41750312D01*
X42168708Y-41724055D01*
X42148089Y-41671237D01*
X42118085Y-41600710D01*
X42097025Y-41553493D01*
X42057648Y-41463094D01*
X42020565Y-41371766D01*
X41991815Y-41294600D01*
X41984005Y-41271092D01*
X41961817Y-41208316D01*
X41940127Y-41159811D01*
X41928213Y-41141479D01*
X41901923Y-41130259D01*
X41844542Y-41114354D01*
X41763518Y-41095567D01*
X41666295Y-41075699D01*
X41622785Y-41067532D01*
X41512296Y-41047229D01*
X41406316Y-41027570D01*
X41315201Y-41010488D01*
X41249308Y-40997918D01*
X41236900Y-40995491D01*
X41134323Y-40975245D01*
X41134323Y-40548101D01*
X41134553Y-40407646D01*
X41135499Y-40301379D01*
X41137541Y-40224413D01*
X41141062Y-40171860D01*
X41146443Y-40138833D01*
X41154066Y-40120445D01*
X41164312Y-40111808D01*
X41168515Y-40110207D01*
X41193870Y-40104527D01*
X41249884Y-40093195D01*
X41329364Y-40077579D01*
X41425112Y-40059047D01*
X41529933Y-40038969D01*
X41636632Y-40018712D01*
X41738013Y-39999646D01*
X41826879Y-39983139D01*
X41896037Y-39970559D01*
X41938289Y-39963275D01*
X41947690Y-39962016D01*
X41956207Y-39945163D01*
X41975060Y-39900270D01*
X42000724Y-39835830D01*
X42010523Y-39810592D01*
X42050048Y-39713086D01*
X42096592Y-39605359D01*
X42138277Y-39514572D01*
X42168950Y-39445153D01*
X42189356Y-39388110D01*
X42196168Y-39353177D01*
X42195082Y-39348495D01*
X42180685Y-39326391D01*
X42147812Y-39277231D01*
X42099990Y-39206248D01*
X42040748Y-39118678D01*
X41973615Y-39019757D01*
X41960341Y-39000230D01*
X41882446Y-38884540D01*
X41825187Y-38796444D01*
X41786281Y-38731886D01*
X41763444Y-38686811D01*
X41754394Y-38657163D01*
X41756848Y-38638885D01*
X41756911Y-38638769D01*
X41776227Y-38614761D01*
X41818951Y-38568347D01*
X41880451Y-38504337D01*
X41956098Y-38427545D01*
X42041261Y-38342782D01*
X42050865Y-38333322D01*
X42158190Y-38229389D01*
X42241015Y-38153075D01*
X42301005Y-38102971D01*
X42339823Y-38077670D01*
X42356920Y-38074404D01*
X42381873Y-38088650D01*
X42433655Y-38121556D01*
X42506920Y-38169608D01*
X42596320Y-38229290D01*
X42696511Y-38297088D01*
X42719901Y-38313039D01*
X43051993Y-38539820D01*
X43201965Y-38471753D01*
X43293170Y-38432085D01*
X43391069Y-38392191D01*
X43475231Y-38360383D01*
X43478938Y-38359074D01*
X43544769Y-38334976D01*
X43595516Y-38314600D01*
X43620242Y-38302336D01*
X43620284Y-38302301D01*
X43628129Y-38280134D01*
X43641466Y-38225617D01*
X43658970Y-38144880D01*
X43679317Y-38044050D01*
X43701182Y-37929256D01*
X43702971Y-37919578D01*
X43724904Y-37801304D01*
X43745040Y-37693942D01*
X43762080Y-37604317D01*
X43774728Y-37539251D01*
X43781684Y-37505568D01*
X43781806Y-37505054D01*
X43786039Y-37490725D01*
X43794271Y-37479907D01*
X43811433Y-37472106D01*
X43842458Y-37466829D01*
X43892278Y-37463582D01*
X43965824Y-37461872D01*
X44068029Y-37461207D01*
X44203825Y-37461093D01*
X44221400Y-37461092D01*
X44361278Y-37461176D01*
G37*
D12*
%TO.C,CO2*%
X110943200Y-36614201D02*
G75*
G02*
X110181200Y-36614201I-381000J0D01*
G01*
X110181200Y-36614201D02*
G75*
G02*
X110943200Y-36614201I381000J0D01*
G01*
%TD*%
M02*
