%TF.GenerationSoftware,KiCad,Pcbnew,9.0.5*%
%TF.CreationDate,2025-11-20T20:38:36+00:00*%
%TF.ProjectId,zxeightyzon,7a786569-6768-4747-997a-6f6e2e6b6963,1.0*%
%TF.SameCoordinates,Original*%
%TF.FileFunction,Copper,L1,Top*%
%TF.FilePolarity,Positive*%
%FSLAX46Y46*%
G04 Gerber Fmt 4.6, Leading zero omitted, Abs format (unit mm)*
G04 Created by KiCad (PCBNEW 9.0.5) date 2025-11-20 20:38:36*
%MOMM*%
%LPD*%
G01*
G04 APERTURE LIST*
G04 Aperture macros list*
%AMRoundRect*
0 Rectangle with rounded corners*
0 $1 Rounding radius*
0 $2 $3 $4 $5 $6 $7 $8 $9 X,Y pos of 4 corners*
0 Add a 4 corners polygon primitive as box body*
4,1,4,$2,$3,$4,$5,$6,$7,$8,$9,$2,$3,0*
0 Add four circle primitives for the rounded corners*
1,1,$1+$1,$2,$3*
1,1,$1+$1,$4,$5*
1,1,$1+$1,$6,$7*
1,1,$1+$1,$8,$9*
0 Add four rect primitives between the rounded corners*
20,1,$1+$1,$2,$3,$4,$5,0*
20,1,$1+$1,$4,$5,$6,$7,0*
20,1,$1+$1,$6,$7,$8,$9,0*
20,1,$1+$1,$8,$9,$2,$3,0*%
G04 Aperture macros list end*
%TA.AperFunction,ComponentPad*%
%ADD10C,1.700000*%
%TD*%
%TA.AperFunction,ComponentPad*%
%ADD11RoundRect,0.250000X-0.550000X-0.550000X0.550000X-0.550000X0.550000X0.550000X-0.550000X0.550000X0*%
%TD*%
%TA.AperFunction,ComponentPad*%
%ADD12C,1.600000*%
%TD*%
%TA.AperFunction,ComponentPad*%
%ADD13R,1.700000X1.700000*%
%TD*%
%TA.AperFunction,ComponentPad*%
%ADD14C,1.752600*%
%TD*%
%TA.AperFunction,ComponentPad*%
%ADD15RoundRect,0.250000X0.950000X0.550000X-0.950000X0.550000X-0.950000X-0.550000X0.950000X-0.550000X0*%
%TD*%
%TA.AperFunction,ComponentPad*%
%ADD16O,2.400000X1.600000*%
%TD*%
%TA.AperFunction,ComponentPad*%
%ADD17RoundRect,0.250000X-0.550000X0.950000X-0.550000X-0.950000X0.550000X-0.950000X0.550000X0.950000X0*%
%TD*%
%TA.AperFunction,ComponentPad*%
%ADD18O,1.600000X2.400000*%
%TD*%
%TA.AperFunction,ViaPad*%
%ADD19C,0.600000*%
%TD*%
%TA.AperFunction,Conductor*%
%ADD20C,0.200000*%
%TD*%
%TA.AperFunction,Conductor*%
%ADD21C,1.000000*%
%TD*%
G04 APERTURE END LIST*
D10*
%TO.P,CO1,A3,+5Vcc*%
%TO.N,VCC*%
X61206200Y-92318200D03*
%TO.P,CO1,A4,+9Vcc*%
%TO.N,unconnected-(CO1-+9Vcc-PadA4)*%
X63746200Y-92318200D03*
%TO.P,CO1,A6,GND*%
%TO.N,GND*%
X68826200Y-92318200D03*
%TO.P,CO1,A7,GND*%
X71366200Y-92318200D03*
%TO.P,CO1,A8,CLK*%
%TO.N,/CLK*%
X73906200Y-92318200D03*
%TO.P,CO1,A9,A0*%
%TO.N,/A0*%
X76446200Y-92318200D03*
%TO.P,CO1,A10,A1*%
%TO.N,/A1*%
X78986200Y-92318200D03*
%TO.P,CO1,A11,A2*%
%TO.N,/A2*%
X81526200Y-92318200D03*
%TO.P,CO1,A12,A3*%
%TO.N,/A3*%
X84066200Y-92318200D03*
%TO.P,CO1,A13,A15*%
%TO.N,unconnected-(CO1-A15-PadA13)*%
X86606200Y-92318200D03*
%TO.P,CO1,A14,A14*%
%TO.N,unconnected-(CO1-PadA14)*%
X89146200Y-92318200D03*
%TO.P,CO1,A15,A13*%
%TO.N,unconnected-(CO1-A13-PadA15)*%
X91686200Y-92318200D03*
%TO.P,CO1,A16,A12*%
%TO.N,unconnected-(CO1-A12-PadA16)*%
X94226200Y-92318200D03*
%TO.P,CO1,A17,A11*%
%TO.N,unconnected-(CO1-A11-PadA17)*%
X96766200Y-92318200D03*
%TO.P,CO1,A18,A10*%
%TO.N,unconnected-(CO1-A10-PadA18)*%
X99306200Y-92318200D03*
%TO.P,CO1,A19,A9*%
%TO.N,unconnected-(CO1-A9-PadA19)*%
X101846200Y-92318200D03*
%TO.P,CO1,A20,A8*%
%TO.N,unconnected-(CO1-A8-PadA20)*%
X104386200Y-92318200D03*
%TO.P,CO1,A21,A7*%
%TO.N,/A7*%
X106926200Y-92318200D03*
%TO.P,CO1,A22,A6*%
%TO.N,/A6*%
X109466200Y-92318200D03*
%TO.P,CO1,A23,A5*%
%TO.N,/A5*%
X112006200Y-92318200D03*
%TO.P,CO1,A24,A4*%
%TO.N,/A4*%
X114546200Y-92318200D03*
%TO.P,CO1,A25,~{ROMCS}*%
%TO.N,unconnected-(CO1-~{ROMCS}-PadA25)*%
X117086200Y-92318200D03*
%TO.P,CO1,B3,D7*%
%TO.N,/D7*%
X61206200Y-87238200D03*
%TO.P,CO1,B4,~{RAMCS}*%
%TO.N,unconnected-(CO1-~{RAMCS}-PadB4)*%
X63746200Y-87238200D03*
%TO.P,CO1,B6,D0*%
%TO.N,/D0*%
X68826200Y-87238200D03*
%TO.P,CO1,B7,D1*%
%TO.N,/D1*%
X71366200Y-87238200D03*
%TO.P,CO1,B8,D2*%
%TO.N,/D2*%
X73906200Y-87238200D03*
%TO.P,CO1,B9,D6*%
%TO.N,/D6*%
X76446200Y-87238200D03*
%TO.P,CO1,B10,D5*%
%TO.N,/D5*%
X78986200Y-87238200D03*
%TO.P,CO1,B11,D3*%
%TO.N,/D3*%
X81526200Y-87238200D03*
%TO.P,CO1,B12,D4*%
%TO.N,/D4*%
X84066200Y-87238200D03*
%TO.P,CO1,B13,~{INT}*%
%TO.N,unconnected-(CO1-~{INT}-PadB13)*%
X86606200Y-87238200D03*
%TO.P,CO1,B14,~{NMI}*%
%TO.N,unconnected-(CO1-~{NMI}-PadB14)*%
X89146200Y-87238200D03*
%TO.P,CO1,B15,~{HALT}*%
%TO.N,unconnected-(CO1-~{HALT}-PadB15)*%
X91686200Y-87238200D03*
%TO.P,CO1,B16,~{MREQ}*%
%TO.N,unconnected-(CO1-~{MREQ}-PadB16)*%
X94226200Y-87238200D03*
%TO.P,CO1,B17,~{IOREQ}*%
%TO.N,/~{IOREQ}*%
X96766200Y-87238200D03*
%TO.P,CO1,B18,~{RD}*%
%TO.N,/~{RD}*%
X99306200Y-87238200D03*
%TO.P,CO1,B19,~{WR}*%
%TO.N,/~{WR}*%
X101846200Y-87238200D03*
%TO.P,CO1,B20,~{BUSAC}*%
%TO.N,unconnected-(CO1-~{BUSAC}-PadB20)*%
X104386200Y-87238200D03*
%TO.P,CO1,B21,~{WAIT}*%
%TO.N,unconnected-(CO1-~{WAIT}-PadB21)*%
X106926200Y-87238200D03*
%TO.P,CO1,B22,~{BUSRQ}*%
%TO.N,unconnected-(CO1-~{BUSRQ}-PadB22)*%
X109466200Y-87238200D03*
%TO.P,CO1,B23,~{RESET}*%
%TO.N,/~{RESET}*%
X112006200Y-87238200D03*
%TO.P,CO1,B24,~{M1}*%
%TO.N,unconnected-(CO1-~{M1}-PadB24)*%
X114546200Y-87238200D03*
%TO.P,CO1,B25,~{RFSH}*%
%TO.N,unconnected-(CO1-~{RFSH}-PadB25)*%
X117086200Y-87238200D03*
%TD*%
D11*
%TO.P,C2,1*%
%TO.N,Net-(C2-Pad1)*%
X84885600Y-39464600D03*
D12*
%TO.P,C2,2*%
%TO.N,Net-(C2-Pad2)*%
X86885600Y-39464600D03*
%TD*%
D13*
%TO.P,J4,1,Pin_1*%
%TO.N,/B_OUT*%
X63390600Y-42258600D03*
D10*
%TO.P,J4,2,Pin_2*%
%TO.N,Net-(J4-Pin_2)*%
X65930600Y-42258600D03*
%TO.P,J4,3,Pin_3*%
%TO.N,Net-(J4-Pin_3)*%
X63390600Y-39718600D03*
%TO.P,J4,4,Pin_4*%
%TO.N,/C_OUT*%
X65930600Y-39718600D03*
%TD*%
D13*
%TO.P,JP1,1,A*%
%TO.N,GND*%
X60444200Y-75935200D03*
D10*
%TO.P,JP1,2,B*%
%TO.N,Net-(JP1-B)*%
X60444200Y-78475200D03*
%TD*%
D13*
%TO.P,J2,1,Pin_1*%
%TO.N,VCC*%
X90670200Y-57393200D03*
D10*
%TO.P,J2,2,Pin_2*%
%TO.N,/IOB0*%
X88130200Y-57393200D03*
%TO.P,J2,3,Pin_3*%
%TO.N,/IOB1*%
X85590200Y-57393200D03*
%TO.P,J2,4,Pin_4*%
%TO.N,/IOB2*%
X83050200Y-57393200D03*
%TO.P,J2,5,Pin_5*%
%TO.N,/IOB3*%
X80510200Y-57393200D03*
%TO.P,J2,6,Pin_6*%
%TO.N,/IOB4*%
X77970200Y-57393200D03*
%TO.P,J2,7,Pin_7*%
%TO.N,/IOB5*%
X75430200Y-57393200D03*
%TO.P,J2,8,Pin_8*%
%TO.N,/IOB6*%
X72890200Y-57393200D03*
%TO.P,J2,9,Pin_9*%
%TO.N,/IOB7*%
X70350200Y-57393200D03*
%TO.P,J2,10,Pin_10*%
%TO.N,GND*%
X67810200Y-57393200D03*
%TD*%
D12*
%TO.P,R8,1*%
%TO.N,Net-(C1-Pad2)*%
X92981600Y-49624600D03*
%TO.P,R8,2*%
%TO.N,/LEFT*%
X100601600Y-49624600D03*
%TD*%
D13*
%TO.P,J1,1,Pin_1*%
%TO.N,VCC*%
X117086200Y-57393200D03*
D10*
%TO.P,J1,2,Pin_2*%
%TO.N,/IOA0*%
X114546200Y-57393200D03*
%TO.P,J1,3,Pin_3*%
%TO.N,/IOA1*%
X112006200Y-57393200D03*
%TO.P,J1,4,Pin_4*%
%TO.N,/IOA2*%
X109466200Y-57393200D03*
%TO.P,J1,5,Pin_5*%
%TO.N,/IOA3*%
X106926200Y-57393200D03*
%TO.P,J1,6,Pin_6*%
%TO.N,/IOA4*%
X104386200Y-57393200D03*
%TO.P,J1,7,Pin_7*%
%TO.N,/IOA5*%
X101846200Y-57393200D03*
%TO.P,J1,8,Pin_8*%
%TO.N,/IOA6*%
X99306200Y-57393200D03*
%TO.P,J1,9,Pin_9*%
%TO.N,/IOA7*%
X96766200Y-57393200D03*
%TO.P,J1,10,Pin_10*%
%TO.N,GND*%
X94226200Y-57393200D03*
%TD*%
D12*
%TO.P,R4,1*%
%TO.N,Net-(C1-Pad1)*%
X79138600Y-46576600D03*
%TO.P,R4,2*%
%TO.N,Net-(J4-Pin_3)*%
X71518600Y-46576600D03*
%TD*%
%TO.P,R2,1*%
%TO.N,/A_OUT*%
X71518600Y-49624600D03*
%TO.P,R2,2*%
%TO.N,Net-(C1-Pad1)*%
X79138600Y-49624600D03*
%TD*%
D14*
%TO.P,CO2,1,1*%
%TO.N,/RIGHT*%
X110562200Y-39519200D03*
%TO.P,CO2,2,2*%
%TO.N,unconnected-(CO2-Pad2)*%
X110562200Y-42019200D03*
%TO.P,CO2,3,3*%
%TO.N,unconnected-(CO2-Pad3)*%
X110562200Y-47019200D03*
%TO.P,CO2,4,4*%
%TO.N,/LEFT*%
X110562200Y-49519200D03*
%TO.P,CO2,5,5*%
%TO.N,GND_AUDIO*%
X115562200Y-44519200D03*
%TD*%
D12*
%TO.P,R9,1*%
%TO.N,Net-(C2-Pad2)*%
X92981600Y-39464600D03*
%TO.P,R9,2*%
%TO.N,/RIGHT*%
X100601600Y-39464600D03*
%TD*%
D11*
%TO.P,C1,1*%
%TO.N,Net-(C1-Pad1)*%
X85012600Y-49624600D03*
D12*
%TO.P,C1,2*%
%TO.N,Net-(C1-Pad2)*%
X87012600Y-49624600D03*
%TD*%
%TO.P,C4,1*%
%TO.N,/RIGHT*%
X104538600Y-39504600D03*
%TO.P,C4,2*%
%TO.N,GND_AUDIO*%
X104538600Y-42004600D03*
%TD*%
%TO.P,C6,1*%
%TO.N,VCC*%
X46240200Y-93842200D03*
%TO.P,C6,2*%
%TO.N,GND*%
X48740200Y-93842200D03*
%TD*%
%TO.P,R3,1*%
%TO.N,Net-(J4-Pin_2)*%
X71518600Y-39464600D03*
%TO.P,R3,2*%
%TO.N,Net-(C2-Pad1)*%
X79138600Y-39464600D03*
%TD*%
%TO.P,FB1,1*%
%TO.N,GND*%
X64000200Y-63235200D03*
%TO.P,FB1,2*%
%TO.N,GND_AUDIO*%
X64000200Y-70855200D03*
%TD*%
D15*
%TO.P,U2,1,I0/CLK*%
%TO.N,/CLK*%
X48760200Y-63235200D03*
D16*
%TO.P,U2,2,I1*%
%TO.N,/A0*%
X48760200Y-65775200D03*
%TO.P,U2,3,I2*%
%TO.N,/A1*%
X48760200Y-68315200D03*
%TO.P,U2,4,I3*%
%TO.N,/A2*%
X48760200Y-70855200D03*
%TO.P,U2,5,I4*%
%TO.N,/A3*%
X48760200Y-73395200D03*
%TO.P,U2,6,I5*%
%TO.N,/A4*%
X48760200Y-75935200D03*
%TO.P,U2,7,I6*%
%TO.N,/A6*%
X48760200Y-78475200D03*
%TO.P,U2,8,I7*%
%TO.N,/A5*%
X48760200Y-81015200D03*
%TO.P,U2,9,I8*%
%TO.N,/A7*%
X48760200Y-83555200D03*
%TO.P,U2,10,I9*%
%TO.N,/~{WR}*%
X48760200Y-86095200D03*
%TO.P,U2,11,I10*%
%TO.N,/~{IOREQ}*%
X48760200Y-88635200D03*
%TO.P,U2,12,GND*%
%TO.N,GND*%
X48760200Y-91175200D03*
%TO.P,U2,13,I11*%
%TO.N,/~{RD}*%
X41140200Y-91175200D03*
%TO.P,U2,14,O9*%
%TO.N,/BDIR*%
X41140200Y-88635200D03*
%TO.P,U2,15,O8*%
%TO.N,/BC1*%
X41140200Y-86095200D03*
%TO.P,U2,16,O7*%
%TO.N,/CLK_DIV2*%
X41140200Y-83555200D03*
%TO.P,U2,17,O6*%
%TO.N,/CLK_OUT*%
X41140200Y-81015200D03*
%TO.P,U2,18,O5*%
%TO.N,/O5*%
X41140200Y-78475200D03*
%TO.P,U2,19,O4*%
%TO.N,/O4*%
X41140200Y-75935200D03*
%TO.P,U2,20,O3*%
%TO.N,/O3*%
X41140200Y-73395200D03*
%TO.P,U2,21,O2*%
%TO.N,/O2*%
X41140200Y-70855200D03*
%TO.P,U2,22,O1*%
%TO.N,/O1*%
X41140200Y-68315200D03*
%TO.P,U2,23,O0*%
%TO.N,/O0*%
X41140200Y-65775200D03*
%TO.P,U2,24,VCC*%
%TO.N,VCC*%
X41140200Y-63235200D03*
%TD*%
D13*
%TO.P,J3,1,Pin_1*%
%TO.N,VCC*%
X64254200Y-57393200D03*
D10*
%TO.P,J3,2,Pin_2*%
X61714200Y-57393200D03*
%TO.P,J3,3,Pin_3*%
%TO.N,/O0*%
X59174200Y-57393200D03*
%TO.P,J3,4,Pin_4*%
%TO.N,/O1*%
X56634200Y-57393200D03*
%TO.P,J3,5,Pin_5*%
%TO.N,/O2*%
X54094200Y-57393200D03*
%TO.P,J3,6,Pin_6*%
%TO.N,/O3*%
X51554200Y-57393200D03*
%TO.P,J3,7,Pin_7*%
%TO.N,/O4*%
X49014200Y-57393200D03*
%TO.P,J3,8,Pin_8*%
%TO.N,/O5*%
X46474200Y-57393200D03*
%TO.P,J3,9,Pin_9*%
%TO.N,GND*%
X43934200Y-57393200D03*
%TO.P,J3,10,Pin_10*%
X41394200Y-57393200D03*
%TD*%
D12*
%TO.P,C3,1*%
%TO.N,/LEFT*%
X104538600Y-49604600D03*
%TO.P,C3,2*%
%TO.N,GND_AUDIO*%
X104538600Y-47104600D03*
%TD*%
%TO.P,R6,1*%
%TO.N,Net-(C1-Pad1)*%
X92981600Y-46449600D03*
%TO.P,R6,2*%
%TO.N,GND_AUDIO*%
X100601600Y-46449600D03*
%TD*%
%TO.P,R5,1*%
%TO.N,Net-(C2-Pad1)*%
X79138600Y-42512600D03*
%TO.P,R5,2*%
%TO.N,Net-(J4-Pin_3)*%
X71518600Y-42512600D03*
%TD*%
D17*
%TO.P,U1,1,VSS*%
%TO.N,GND*%
X68826200Y-63235200D03*
D18*
%TO.P,U1,2,NC*%
%TO.N,unconnected-(U1-NC-Pad2)*%
X71366200Y-63235200D03*
%TO.P,U1,3,A*%
%TO.N,/A_OUT*%
X73906200Y-63235200D03*
%TO.P,U1,4,B*%
%TO.N,/B_OUT*%
X76446200Y-63235200D03*
%TO.P,U1,5,NC*%
%TO.N,unconnected-(U1-NC-Pad5)*%
X78986200Y-63235200D03*
%TO.P,U1,6,IOB7*%
%TO.N,/IOB7*%
X81526200Y-63235200D03*
%TO.P,U1,7,IOB6*%
%TO.N,/IOB6*%
X84066200Y-63235200D03*
%TO.P,U1,8,IOB5*%
%TO.N,/IOB5*%
X86606200Y-63235200D03*
%TO.P,U1,9,IOB4*%
%TO.N,/IOB4*%
X89146200Y-63235200D03*
%TO.P,U1,10,IOB3*%
%TO.N,/IOB3*%
X91686200Y-63235200D03*
%TO.P,U1,11,IOB2*%
%TO.N,/IOB2*%
X94226200Y-63235200D03*
%TO.P,U1,12,IOB1*%
%TO.N,/IOB1*%
X96766200Y-63235200D03*
%TO.P,U1,13,IOB0*%
%TO.N,/IOB0*%
X99306200Y-63235200D03*
%TO.P,U1,14,IOA7*%
%TO.N,/IOA7*%
X101846200Y-63235200D03*
%TO.P,U1,15,IOA6*%
%TO.N,/IOA6*%
X104386200Y-63235200D03*
%TO.P,U1,16,IOA5*%
%TO.N,/IOA5*%
X106926200Y-63235200D03*
%TO.P,U1,17,IOA4*%
%TO.N,/IOA4*%
X109466200Y-63235200D03*
%TO.P,U1,18,IOA3*%
%TO.N,/IOA3*%
X112006200Y-63235200D03*
%TO.P,U1,19,IOA2*%
%TO.N,/IOA2*%
X114546200Y-63235200D03*
%TO.P,U1,20,IOA1*%
%TO.N,/IOA1*%
X117086200Y-63235200D03*
%TO.P,U1,21,IOA0*%
%TO.N,/IOA0*%
X117086200Y-78475200D03*
%TO.P,U1,22,CLOCK*%
%TO.N,Net-(JP2-C)*%
X114546200Y-78475200D03*
%TO.P,U1,23,~{RESET}*%
%TO.N,/~{RESET}*%
X112006200Y-78475200D03*
%TO.P,U1,24,~{A9}*%
%TO.N,GND*%
X109466200Y-78475200D03*
%TO.P,U1,25,A8*%
%TO.N,VCC*%
X106926200Y-78475200D03*
%TO.P,U1,26,~{SEL}*%
%TO.N,Net-(JP1-B)*%
X104386200Y-78475200D03*
%TO.P,U1,27,BDIR*%
%TO.N,/BDIR*%
X101846200Y-78475200D03*
%TO.P,U1,28,BC2*%
%TO.N,VCC*%
X99306200Y-78475200D03*
%TO.P,U1,29,BC1*%
%TO.N,/BC1*%
X96766200Y-78475200D03*
%TO.P,U1,30,DA7*%
%TO.N,/D7*%
X94226200Y-78475200D03*
%TO.P,U1,31,DA6*%
%TO.N,/D6*%
X91686200Y-78475200D03*
%TO.P,U1,32,DA5*%
%TO.N,/D5*%
X89146200Y-78475200D03*
%TO.P,U1,33,DA4*%
%TO.N,/D4*%
X86606200Y-78475200D03*
%TO.P,U1,34,DA3*%
%TO.N,/D3*%
X84066200Y-78475200D03*
%TO.P,U1,35,DA2*%
%TO.N,/D2*%
X81526200Y-78475200D03*
%TO.P,U1,36,DA1*%
%TO.N,/D1*%
X78986200Y-78475200D03*
%TO.P,U1,37,DA0*%
%TO.N,/D0*%
X76446200Y-78475200D03*
%TO.P,U1,38,C*%
%TO.N,/C_OUT*%
X73906200Y-78475200D03*
%TO.P,U1,39,TEST1*%
%TO.N,unconnected-(U1-TEST1-Pad39)*%
X71366200Y-78475200D03*
%TO.P,U1,40,VCC*%
%TO.N,VCC*%
X68826200Y-78475200D03*
%TD*%
D12*
%TO.P,R7,1*%
%TO.N,Net-(C2-Pad1)*%
X92981600Y-42512600D03*
%TO.P,R7,2*%
%TO.N,GND_AUDIO*%
X100601600Y-42512600D03*
%TD*%
%TO.P,C5,1*%
%TO.N,VCC*%
X66159200Y-78455200D03*
%TO.P,C5,2*%
%TO.N,GND*%
X66159200Y-75955200D03*
%TD*%
D13*
%TO.P,JP2,1,A*%
%TO.N,/CLK_OUT*%
X56761200Y-75935200D03*
D10*
%TO.P,JP2,2,C*%
%TO.N,Net-(JP2-C)*%
X56761200Y-78475200D03*
%TO.P,JP2,3,B*%
%TO.N,/CLK_DIV2*%
X56761200Y-81015200D03*
%TD*%
D19*
%TO.N,/BDIR*%
X98155600Y-85373600D03*
%TO.N,/BC1*%
X92829700Y-83580300D03*
%TO.N,/O2*%
X54186400Y-66903600D03*
%TO.N,/O4*%
X45856900Y-58725700D03*
%TO.N,/A3*%
X53335300Y-88796100D03*
%TO.N,/A2*%
X54857900Y-90210000D03*
%TO.N,/D6*%
X89449400Y-84582300D03*
%TO.N,/CLK*%
X50964200Y-92738900D03*
%TO.N,/A4*%
X113001200Y-75823000D03*
%TO.N,/A1*%
X55972000Y-90476100D03*
%TO.N,/A6*%
X47650600Y-96934800D03*
%TO.N,/A0*%
X68870500Y-69161000D03*
%TO.N,/D7*%
X88563100Y-84282900D03*
%TO.N,GND_AUDIO*%
X96000000Y-69250000D03*
%TD*%
D20*
%TO.N,/IOB7*%
X81526200Y-62026200D02*
X81526200Y-63235200D01*
X80261200Y-60761200D02*
X81526200Y-62026200D01*
X70350200Y-57393200D02*
X73718200Y-60761200D01*
X73718200Y-60761200D02*
X80261200Y-60761200D01*
%TO.N,Net-(JP2-C)*%
X110787800Y-74716800D02*
X114546200Y-78475200D01*
%TO.N,/IOB6*%
X83261200Y-60261200D02*
X84066200Y-61066200D01*
X75758200Y-60261200D02*
X83261200Y-60261200D01*
X84066200Y-61066200D02*
X84066200Y-63235200D01*
X72890200Y-57393200D02*
X75758200Y-60261200D01*
%TO.N,/IOB5*%
X84261200Y-60261200D02*
X85261200Y-60261200D01*
X85261200Y-60261200D02*
X86606200Y-61606200D01*
X83761200Y-59761200D02*
X84261200Y-60261200D01*
X77798200Y-59761200D02*
X83761200Y-59761200D01*
X86606200Y-61606200D02*
X86606200Y-63235200D01*
X75430200Y-57393200D02*
X77798200Y-59761200D01*
%TO.N,/IOB4*%
X88985200Y-63235200D02*
X89146200Y-63235200D01*
X85511200Y-59761200D02*
X88985200Y-63235200D01*
X84694100Y-59761200D02*
X85511200Y-59761200D01*
X84186400Y-59253500D02*
X84694100Y-59761200D01*
X79503500Y-59253500D02*
X84186400Y-59253500D01*
X77970200Y-57393200D02*
X77970200Y-57720200D01*
X77970200Y-57720200D02*
X79503500Y-59253500D01*
%TO.N,/IOB3*%
X91761200Y-63160200D02*
X91686200Y-63235200D01*
X91761200Y-61761200D02*
X91761200Y-63160200D01*
X91516200Y-61516200D02*
X91761200Y-61761200D01*
X88016200Y-61516200D02*
X91516200Y-61516200D01*
X85761200Y-59261200D02*
X88016200Y-61516200D01*
X84761200Y-59261200D02*
X85761200Y-59261200D01*
X84344900Y-58844900D02*
X84761200Y-59261200D01*
X81961900Y-58844900D02*
X84344900Y-58844900D01*
X80510200Y-57393200D02*
X81961900Y-58844900D01*
%TO.N,/IOB2*%
X86011200Y-58761200D02*
X88365200Y-61115200D01*
X88365200Y-61115200D02*
X93615200Y-61115200D01*
X93615200Y-61115200D02*
X94226200Y-61726200D01*
X94226200Y-61726200D02*
X94226200Y-63235200D01*
X85330440Y-58761200D02*
X86011200Y-58761200D01*
X83962440Y-57393200D02*
X85330440Y-58761200D01*
X83050200Y-57393200D02*
X83962440Y-57393200D01*
%TO.N,/IOA0*%
X119547200Y-74512500D02*
X117086200Y-76973500D01*
X114546200Y-56726200D02*
X114546200Y-57393200D01*
X118261200Y-55761200D02*
X115511200Y-55761200D01*
X119547200Y-57047200D02*
X118261200Y-55761200D01*
X119547200Y-74512500D02*
X119547200Y-57047200D01*
X115511200Y-55761200D02*
X114546200Y-56726200D01*
%TO.N,GND_AUDIO*%
X94394800Y-70855200D02*
X64000200Y-70855200D01*
X96000000Y-69250000D02*
X94394800Y-70855200D01*
%TO.N,/CLK_DIV2*%
X55491200Y-82285200D02*
X56761200Y-81015200D01*
X43911900Y-82285200D02*
X55491200Y-82285200D01*
X42641900Y-83555200D02*
X43911900Y-82285200D01*
X41140200Y-83555200D02*
X42641900Y-83555200D01*
%TO.N,/BDIR*%
X41140200Y-88635200D02*
X42641900Y-88635200D01*
X43911900Y-87365200D02*
X42641900Y-88635200D01*
X54528100Y-87365200D02*
X43911900Y-87365200D01*
X57373100Y-84520200D02*
X54528100Y-87365200D01*
X77158900Y-84520200D02*
X57373100Y-84520200D01*
X77999600Y-83679500D02*
X77158900Y-84520200D01*
X90539900Y-83679500D02*
X77999600Y-83679500D01*
X92234000Y-85373600D02*
X90539900Y-83679500D01*
X98155600Y-85373600D02*
X92234000Y-85373600D01*
%TO.N,/BC1*%
X41140200Y-86095200D02*
X42641900Y-86095200D01*
X56299800Y-83810600D02*
X56135000Y-83975400D01*
X56299800Y-83810600D02*
X56135000Y-83975400D01*
X43996900Y-84740200D02*
X42641900Y-86095200D01*
X55370200Y-84740200D02*
X43996900Y-84740200D01*
X56135000Y-83975400D02*
X55370200Y-84740200D01*
X77807200Y-82726000D02*
X77571800Y-82961400D01*
X91975400Y-82726000D02*
X77807200Y-82726000D01*
X92829700Y-83580300D02*
X91975400Y-82726000D01*
X56535200Y-83575200D02*
X56299800Y-83810600D01*
X76192500Y-83575200D02*
X56535200Y-83575200D01*
X76682600Y-83085100D02*
X76192500Y-83575200D01*
X77448100Y-83085100D02*
X76682600Y-83085100D01*
X77571800Y-82961400D02*
X77448100Y-83085100D01*
X77571800Y-82961400D02*
X77448100Y-83085100D01*
%TO.N,Net-(JP2-C)*%
X58151000Y-77085400D02*
X56761200Y-78475200D01*
X58151000Y-76031000D02*
X58151000Y-77085400D01*
X59465200Y-74716800D02*
X58151000Y-76031000D01*
X110787800Y-74716800D02*
X59465200Y-74716800D01*
%TO.N,/CLK_OUT*%
X46570200Y-77086900D02*
X42641900Y-81015200D01*
X54457800Y-77086900D02*
X46570200Y-77086900D01*
X55609500Y-75935200D02*
X54457800Y-77086900D01*
X56761200Y-75935200D02*
X55609500Y-75935200D01*
X41140200Y-81015200D02*
X42641900Y-81015200D01*
%TO.N,Net-(JP1-B)*%
X104386200Y-78475200D02*
X104386200Y-76973500D01*
X90877200Y-76750700D02*
X90712400Y-76915500D01*
X90877200Y-76750700D02*
X90712400Y-76915500D01*
X61784000Y-77135400D02*
X60444200Y-78475200D01*
X67572700Y-77135400D02*
X61784000Y-77135400D01*
X67792600Y-76915500D02*
X67572700Y-77135400D01*
X90712400Y-76915500D02*
X67792600Y-76915500D01*
X104163400Y-76750700D02*
X104386200Y-76973500D01*
X90877200Y-76750700D02*
X104163400Y-76750700D01*
%TO.N,Net-(J4-Pin_3)*%
X64660600Y-40988600D02*
X63390600Y-39718600D01*
X69994600Y-40988600D02*
X64660600Y-40988600D01*
X71518600Y-42512600D02*
X69994600Y-40988600D01*
%TO.N,Net-(J4-Pin_2)*%
X72703000Y-40649000D02*
X71518600Y-39464600D01*
X72703000Y-42926100D02*
X72703000Y-40649000D01*
X71939700Y-43689400D02*
X72703000Y-42926100D01*
X67361400Y-43689400D02*
X71939700Y-43689400D01*
X65930600Y-42258600D02*
X67361400Y-43689400D01*
%TO.N,/O2*%
X46593500Y-66903600D02*
X54186400Y-66903600D01*
X42641900Y-70855200D02*
X46593500Y-66903600D01*
X41140200Y-70855200D02*
X42641900Y-70855200D01*
%TO.N,/O4*%
X47681700Y-58725700D02*
X45856900Y-58725700D01*
X49014200Y-57393200D02*
X47681700Y-58725700D01*
%TO.N,/O1*%
X41140200Y-68315200D02*
X39638500Y-68315200D01*
X54700000Y-59327400D02*
X56634200Y-57393200D01*
X42993200Y-59327400D02*
X54700000Y-59327400D01*
X39579500Y-62741100D02*
X42993200Y-59327400D01*
X39579500Y-68256200D02*
X39579500Y-62741100D01*
X39638500Y-68315200D02*
X39579500Y-68256200D01*
%TO.N,/O0*%
X55965800Y-60601600D02*
X59174200Y-57393200D01*
X47815500Y-60601600D02*
X55965800Y-60601600D01*
X42641900Y-65775200D02*
X47815500Y-60601600D01*
X41140200Y-65775200D02*
X42641900Y-65775200D01*
%TO.N,/IOB1*%
X88911200Y-60714200D02*
X85590200Y-57393200D01*
X95746900Y-60714200D02*
X88911200Y-60714200D01*
X96766200Y-61733500D02*
X95746900Y-60714200D01*
X96766200Y-63235200D02*
X96766200Y-61733500D01*
%TO.N,/IOB0*%
X99306200Y-63235200D02*
X99306200Y-61733500D01*
X90991200Y-60254200D02*
X88130200Y-57393200D01*
X97826900Y-60254200D02*
X90991200Y-60254200D01*
X99306200Y-61733500D02*
X97826900Y-60254200D01*
%TO.N,/IOA0*%
X117086200Y-78475200D02*
X117086200Y-76973500D01*
%TO.N,/A3*%
X82908400Y-93476000D02*
X84066200Y-92318200D01*
X78439300Y-93476000D02*
X82908400Y-93476000D01*
X77597900Y-92634600D02*
X78439300Y-93476000D01*
X77597900Y-91790100D02*
X77597900Y-92634600D01*
X76513000Y-90705200D02*
X77597900Y-91790100D01*
X56701000Y-90705200D02*
X76513000Y-90705200D01*
X56328400Y-91077800D02*
X56701000Y-90705200D01*
X54870800Y-91077800D02*
X56328400Y-91077800D01*
X53335300Y-89542300D02*
X54870800Y-91077800D01*
X53335300Y-88796100D02*
X53335300Y-89542300D01*
%TO.N,/A2*%
X55209400Y-89858500D02*
X54857900Y-90210000D01*
X79066500Y-89858500D02*
X55209400Y-89858500D01*
X81526200Y-92318200D02*
X79066500Y-89858500D01*
%TO.N,/D6*%
X89147100Y-84884600D02*
X89449400Y-84582300D01*
X78799800Y-84884600D02*
X89147100Y-84884600D01*
X76446200Y-87238200D02*
X78799800Y-84884600D01*
%TO.N,/~{IOREQ}*%
X48760200Y-88635200D02*
X50261900Y-88635200D01*
X51104700Y-87792400D02*
X50261900Y-88635200D01*
X56270300Y-87792400D02*
X51104700Y-87792400D01*
X56930200Y-88452300D02*
X56270300Y-87792400D01*
X95552100Y-88452300D02*
X56930200Y-88452300D01*
X96766200Y-87238200D02*
X95552100Y-88452300D01*
%TO.N,/A7*%
X48760200Y-83555200D02*
X50261900Y-83555200D01*
X77640900Y-82324300D02*
X77405500Y-82559700D01*
X98571700Y-82324300D02*
X77640900Y-82324300D01*
X103116200Y-86868800D02*
X98571700Y-82324300D01*
X103116200Y-88508200D02*
X103116200Y-86868800D01*
X106926200Y-92318200D02*
X103116200Y-88508200D01*
X50638400Y-83178700D02*
X50261900Y-83555200D01*
X56363700Y-83178700D02*
X50638400Y-83178700D01*
X56927600Y-82614800D02*
X56363700Y-83178700D01*
X77350400Y-82614800D02*
X56927600Y-82614800D01*
X77405500Y-82559700D02*
X77350400Y-82614800D01*
X77405500Y-82559700D02*
X77350400Y-82614800D01*
%TO.N,/A5*%
X51431800Y-79845300D02*
X50261900Y-81015200D01*
X58634500Y-79845300D02*
X51431800Y-79845300D01*
X60146300Y-81357100D02*
X58634500Y-79845300D01*
X102699800Y-81357100D02*
X60146300Y-81357100D01*
X108196200Y-86853500D02*
X102699800Y-81357100D01*
X108196200Y-88508200D02*
X108196200Y-86853500D01*
X112006200Y-92318200D02*
X108196200Y-88508200D01*
X48760200Y-81015200D02*
X50261900Y-81015200D01*
%TO.N,/CLK*%
X72704500Y-91116500D02*
X73906200Y-92318200D01*
X57394100Y-91116500D02*
X72704500Y-91116500D01*
X55771700Y-92738900D02*
X57394100Y-91116500D01*
X50964200Y-92738900D02*
X55771700Y-92738900D01*
%TO.N,/A4*%
X48760200Y-75935200D02*
X50261900Y-75935200D01*
X59277700Y-74315100D02*
X59042300Y-74550500D01*
X111493300Y-74315100D02*
X59277700Y-74315100D01*
X113001200Y-75823000D02*
X111493300Y-74315100D01*
X51480300Y-74716800D02*
X50261900Y-75935200D01*
X58876000Y-74716800D02*
X51480300Y-74716800D01*
X59042300Y-74550500D02*
X58876000Y-74716800D01*
X59042300Y-74550500D02*
X58876000Y-74716800D01*
%TO.N,/~{WR}*%
X77973500Y-83127700D02*
X77738100Y-83363100D01*
X90749600Y-83127700D02*
X77973500Y-83127700D01*
X91803900Y-84182000D02*
X90749600Y-83127700D01*
X98790000Y-84182000D02*
X91803900Y-84182000D01*
X101846200Y-87238200D02*
X98790000Y-84182000D01*
X54783400Y-86095200D02*
X48760200Y-86095200D01*
X56901700Y-83976900D02*
X54783400Y-86095200D01*
X77124300Y-83976900D02*
X56901700Y-83976900D01*
X77571800Y-83529400D02*
X77124300Y-83976900D01*
X77738100Y-83363100D02*
X77571800Y-83529400D01*
X77738100Y-83363100D02*
X77571800Y-83529400D01*
%TO.N,/A1*%
X56171600Y-90276500D02*
X55972000Y-90476100D01*
X76944500Y-90276500D02*
X56171600Y-90276500D01*
X78986200Y-92318200D02*
X76944500Y-90276500D01*
%TO.N,/A6*%
X104849600Y-96934800D02*
X47650600Y-96934800D01*
X109466200Y-92318200D02*
X104849600Y-96934800D01*
%TO.N,/~{RD}*%
X41140200Y-91175200D02*
X42641900Y-91175200D01*
X43873900Y-89943200D02*
X42641900Y-91175200D01*
X51337100Y-89943200D02*
X43873900Y-89943200D01*
X53086200Y-88194100D02*
X51337100Y-89943200D01*
X55636400Y-88194100D02*
X53086200Y-88194100D01*
X56338700Y-88896400D02*
X55636400Y-88194100D01*
X97648000Y-88896400D02*
X56338700Y-88896400D01*
X99306200Y-87238200D02*
X97648000Y-88896400D01*
%TO.N,/A0*%
X65484700Y-65775200D02*
X48760200Y-65775200D01*
X68870500Y-69161000D02*
X65484700Y-65775200D01*
%TO.N,/D7*%
X62931100Y-85513300D02*
X61206200Y-87238200D01*
X76934000Y-85513300D02*
X62931100Y-85513300D01*
X78164400Y-84282900D02*
X76934000Y-85513300D01*
X88563100Y-84282900D02*
X78164400Y-84282900D01*
D21*
%TO.N,GND*%
X109466200Y-78475200D02*
X109466200Y-76523500D01*
X64000200Y-63235200D02*
X68826200Y-63235200D01*
X60444200Y-75935200D02*
X62045900Y-75935200D01*
X66159200Y-75935200D02*
X62045900Y-75935200D01*
X66159200Y-75955200D02*
X66159200Y-75935200D01*
X69430500Y-55772900D02*
X67810200Y-57393200D01*
X92605900Y-55772900D02*
X69430500Y-55772900D01*
X94226200Y-57393200D02*
X92605900Y-55772900D01*
X41394200Y-57393200D02*
X43934200Y-57393200D01*
X66208500Y-55791500D02*
X67810200Y-57393200D01*
X45535900Y-55791500D02*
X66208500Y-55791500D01*
X43934200Y-57393200D02*
X45535900Y-55791500D01*
X108799700Y-75857000D02*
X109466200Y-76523500D01*
X66237400Y-75857000D02*
X108799700Y-75857000D01*
X66159200Y-75935200D02*
X66237400Y-75857000D01*
%TO.N,VCC*%
X115469900Y-59009500D02*
X117086200Y-57393200D01*
X93518300Y-59009500D02*
X115469900Y-59009500D01*
X92271900Y-57763100D02*
X93518300Y-59009500D01*
X92271900Y-57393200D02*
X92271900Y-57763100D01*
X90670200Y-57393200D02*
X92271900Y-57393200D01*
X61714200Y-57393200D02*
X64254200Y-57393200D01*
X99306200Y-78475200D02*
X99306200Y-80426900D01*
X106926200Y-78475200D02*
X106926200Y-80426900D01*
X68826200Y-78475200D02*
X68826200Y-80426900D01*
X99306200Y-80426900D02*
X68826200Y-80426900D01*
X106926200Y-80426900D02*
X99306200Y-80426900D01*
X47820400Y-95422400D02*
X46240200Y-93842200D01*
X58102000Y-95422400D02*
X47820400Y-95422400D01*
X61206200Y-92318200D02*
X58102000Y-95422400D01*
D20*
%TO.N,/RIGHT*%
X104498600Y-39464600D02*
X104538600Y-39504600D01*
X100601600Y-39464600D02*
X104498600Y-39464600D01*
X110547600Y-39504600D02*
X110562200Y-39519200D01*
X104538600Y-39504600D02*
X110547600Y-39504600D01*
%TO.N,/LEFT*%
X104518600Y-49624600D02*
X104538600Y-49604600D01*
X100601600Y-49624600D02*
X104518600Y-49624600D01*
X110476800Y-49604600D02*
X110562200Y-49519200D01*
X104538600Y-49604600D02*
X110476800Y-49604600D01*
%TO.N,GND_AUDIO*%
X101256600Y-47104600D02*
X100601600Y-46449600D01*
X104538600Y-47104600D02*
X101256600Y-47104600D01*
X105316000Y-43290000D02*
X104538600Y-42512600D01*
X114333000Y-43290000D02*
X105316000Y-43290000D01*
X115562200Y-44519200D02*
X114333000Y-43290000D01*
X104538600Y-42512600D02*
X100601600Y-42512600D01*
X104538600Y-42512600D02*
X104538600Y-42004600D01*
%TO.N,Net-(C2-Pad1)*%
X84885600Y-39464600D02*
X79138600Y-39464600D01*
X79138600Y-42512600D02*
X92981600Y-42512600D01*
%TO.N,Net-(C2-Pad2)*%
X86885600Y-39464600D02*
X92981600Y-39464600D01*
%TO.N,Net-(C1-Pad1)*%
X79138600Y-49624600D02*
X85012600Y-49624600D01*
X92854600Y-46576600D02*
X92981600Y-46449600D01*
X79138600Y-46576600D02*
X92854600Y-46576600D01*
%TO.N,Net-(C1-Pad2)*%
X92981600Y-49624600D02*
X87012600Y-49624600D01*
%TD*%
M02*
