%TF.GenerationSoftware,KiCad,Pcbnew,9.0.5*%
%TF.CreationDate,2025-11-20T20:38:36+00:00*%
%TF.ProjectId,zxeightyzon,7a786569-6768-4747-997a-6f6e2e6b6963,1.0*%
%TF.SameCoordinates,Original*%
%TF.FileFunction,Copper,L2,Bot*%
%TF.FilePolarity,Positive*%
%FSLAX46Y46*%
G04 Gerber Fmt 4.6, Leading zero omitted, Abs format (unit mm)*
G04 Created by KiCad (PCBNEW 9.0.5) date 2025-11-20 20:38:36*
%MOMM*%
%LPD*%
G01*
G04 APERTURE LIST*
G04 Aperture macros list*
%AMRoundRect*
0 Rectangle with rounded corners*
0 $1 Rounding radius*
0 $2 $3 $4 $5 $6 $7 $8 $9 X,Y pos of 4 corners*
0 Add a 4 corners polygon primitive as box body*
4,1,4,$2,$3,$4,$5,$6,$7,$8,$9,$2,$3,0*
0 Add four circle primitives for the rounded corners*
1,1,$1+$1,$2,$3*
1,1,$1+$1,$4,$5*
1,1,$1+$1,$6,$7*
1,1,$1+$1,$8,$9*
0 Add four rect primitives between the rounded corners*
20,1,$1+$1,$2,$3,$4,$5,0*
20,1,$1+$1,$4,$5,$6,$7,0*
20,1,$1+$1,$6,$7,$8,$9,0*
20,1,$1+$1,$8,$9,$2,$3,0*%
G04 Aperture macros list end*
%TA.AperFunction,ComponentPad*%
%ADD10C,1.700000*%
%TD*%
%TA.AperFunction,ComponentPad*%
%ADD11RoundRect,0.250000X-0.550000X-0.550000X0.550000X-0.550000X0.550000X0.550000X-0.550000X0.550000X0*%
%TD*%
%TA.AperFunction,ComponentPad*%
%ADD12C,1.600000*%
%TD*%
%TA.AperFunction,ComponentPad*%
%ADD13R,1.700000X1.700000*%
%TD*%
%TA.AperFunction,ComponentPad*%
%ADD14C,1.752600*%
%TD*%
%TA.AperFunction,ComponentPad*%
%ADD15RoundRect,0.250000X0.950000X0.550000X-0.950000X0.550000X-0.950000X-0.550000X0.950000X-0.550000X0*%
%TD*%
%TA.AperFunction,ComponentPad*%
%ADD16O,2.400000X1.600000*%
%TD*%
%TA.AperFunction,ComponentPad*%
%ADD17RoundRect,0.250000X-0.550000X0.950000X-0.550000X-0.950000X0.550000X-0.950000X0.550000X0.950000X0*%
%TD*%
%TA.AperFunction,ComponentPad*%
%ADD18O,1.600000X2.400000*%
%TD*%
%TA.AperFunction,ViaPad*%
%ADD19C,0.600000*%
%TD*%
%TA.AperFunction,Conductor*%
%ADD20C,1.000000*%
%TD*%
%TA.AperFunction,Conductor*%
%ADD21C,0.200000*%
%TD*%
G04 APERTURE END LIST*
D10*
%TO.P,CO1,A3,+5Vcc*%
%TO.N,VCC*%
X61206200Y-92318200D03*
%TO.P,CO1,A4,+9Vcc*%
%TO.N,unconnected-(CO1-+9Vcc-PadA4)*%
X63746200Y-92318200D03*
%TO.P,CO1,A6,GND*%
%TO.N,GND*%
X68826200Y-92318200D03*
%TO.P,CO1,A7,GND*%
X71366200Y-92318200D03*
%TO.P,CO1,A8,CLK*%
%TO.N,/CLK*%
X73906200Y-92318200D03*
%TO.P,CO1,A9,A0*%
%TO.N,/A0*%
X76446200Y-92318200D03*
%TO.P,CO1,A10,A1*%
%TO.N,/A1*%
X78986200Y-92318200D03*
%TO.P,CO1,A11,A2*%
%TO.N,/A2*%
X81526200Y-92318200D03*
%TO.P,CO1,A12,A3*%
%TO.N,/A3*%
X84066200Y-92318200D03*
%TO.P,CO1,A13,A15*%
%TO.N,unconnected-(CO1-A15-PadA13)*%
X86606200Y-92318200D03*
%TO.P,CO1,A14,A14*%
%TO.N,unconnected-(CO1-PadA14)*%
X89146200Y-92318200D03*
%TO.P,CO1,A15,A13*%
%TO.N,unconnected-(CO1-A13-PadA15)*%
X91686200Y-92318200D03*
%TO.P,CO1,A16,A12*%
%TO.N,unconnected-(CO1-A12-PadA16)*%
X94226200Y-92318200D03*
%TO.P,CO1,A17,A11*%
%TO.N,unconnected-(CO1-A11-PadA17)*%
X96766200Y-92318200D03*
%TO.P,CO1,A18,A10*%
%TO.N,unconnected-(CO1-A10-PadA18)*%
X99306200Y-92318200D03*
%TO.P,CO1,A19,A9*%
%TO.N,unconnected-(CO1-A9-PadA19)*%
X101846200Y-92318200D03*
%TO.P,CO1,A20,A8*%
%TO.N,unconnected-(CO1-A8-PadA20)*%
X104386200Y-92318200D03*
%TO.P,CO1,A21,A7*%
%TO.N,/A7*%
X106926200Y-92318200D03*
%TO.P,CO1,A22,A6*%
%TO.N,/A6*%
X109466200Y-92318200D03*
%TO.P,CO1,A23,A5*%
%TO.N,/A5*%
X112006200Y-92318200D03*
%TO.P,CO1,A24,A4*%
%TO.N,/A4*%
X114546200Y-92318200D03*
%TO.P,CO1,A25,~{ROMCS}*%
%TO.N,unconnected-(CO1-~{ROMCS}-PadA25)*%
X117086200Y-92318200D03*
%TO.P,CO1,B3,D7*%
%TO.N,/D7*%
X61206200Y-87238200D03*
%TO.P,CO1,B4,~{RAMCS}*%
%TO.N,unconnected-(CO1-~{RAMCS}-PadB4)*%
X63746200Y-87238200D03*
%TO.P,CO1,B6,D0*%
%TO.N,/D0*%
X68826200Y-87238200D03*
%TO.P,CO1,B7,D1*%
%TO.N,/D1*%
X71366200Y-87238200D03*
%TO.P,CO1,B8,D2*%
%TO.N,/D2*%
X73906200Y-87238200D03*
%TO.P,CO1,B9,D6*%
%TO.N,/D6*%
X76446200Y-87238200D03*
%TO.P,CO1,B10,D5*%
%TO.N,/D5*%
X78986200Y-87238200D03*
%TO.P,CO1,B11,D3*%
%TO.N,/D3*%
X81526200Y-87238200D03*
%TO.P,CO1,B12,D4*%
%TO.N,/D4*%
X84066200Y-87238200D03*
%TO.P,CO1,B13,~{INT}*%
%TO.N,unconnected-(CO1-~{INT}-PadB13)*%
X86606200Y-87238200D03*
%TO.P,CO1,B14,~{NMI}*%
%TO.N,unconnected-(CO1-~{NMI}-PadB14)*%
X89146200Y-87238200D03*
%TO.P,CO1,B15,~{HALT}*%
%TO.N,unconnected-(CO1-~{HALT}-PadB15)*%
X91686200Y-87238200D03*
%TO.P,CO1,B16,~{MREQ}*%
%TO.N,unconnected-(CO1-~{MREQ}-PadB16)*%
X94226200Y-87238200D03*
%TO.P,CO1,B17,~{IOREQ}*%
%TO.N,/~{IOREQ}*%
X96766200Y-87238200D03*
%TO.P,CO1,B18,~{RD}*%
%TO.N,/~{RD}*%
X99306200Y-87238200D03*
%TO.P,CO1,B19,~{WR}*%
%TO.N,/~{WR}*%
X101846200Y-87238200D03*
%TO.P,CO1,B20,~{BUSAC}*%
%TO.N,unconnected-(CO1-~{BUSAC}-PadB20)*%
X104386200Y-87238200D03*
%TO.P,CO1,B21,~{WAIT}*%
%TO.N,unconnected-(CO1-~{WAIT}-PadB21)*%
X106926200Y-87238200D03*
%TO.P,CO1,B22,~{BUSRQ}*%
%TO.N,unconnected-(CO1-~{BUSRQ}-PadB22)*%
X109466200Y-87238200D03*
%TO.P,CO1,B23,~{RESET}*%
%TO.N,/~{RESET}*%
X112006200Y-87238200D03*
%TO.P,CO1,B24,~{M1}*%
%TO.N,unconnected-(CO1-~{M1}-PadB24)*%
X114546200Y-87238200D03*
%TO.P,CO1,B25,~{RFSH}*%
%TO.N,unconnected-(CO1-~{RFSH}-PadB25)*%
X117086200Y-87238200D03*
%TD*%
D11*
%TO.P,C2,1*%
%TO.N,Net-(C2-Pad1)*%
X84885600Y-39464600D03*
D12*
%TO.P,C2,2*%
%TO.N,Net-(C2-Pad2)*%
X86885600Y-39464600D03*
%TD*%
D13*
%TO.P,J4,1,Pin_1*%
%TO.N,/B_OUT*%
X63390600Y-42258600D03*
D10*
%TO.P,J4,2,Pin_2*%
%TO.N,Net-(J4-Pin_2)*%
X65930600Y-42258600D03*
%TO.P,J4,3,Pin_3*%
%TO.N,Net-(J4-Pin_3)*%
X63390600Y-39718600D03*
%TO.P,J4,4,Pin_4*%
%TO.N,/C_OUT*%
X65930600Y-39718600D03*
%TD*%
D13*
%TO.P,JP1,1,A*%
%TO.N,GND*%
X60444200Y-75935200D03*
D10*
%TO.P,JP1,2,B*%
%TO.N,Net-(JP1-B)*%
X60444200Y-78475200D03*
%TD*%
D13*
%TO.P,J2,1,Pin_1*%
%TO.N,VCC*%
X90670200Y-57393200D03*
D10*
%TO.P,J2,2,Pin_2*%
%TO.N,/IOB0*%
X88130200Y-57393200D03*
%TO.P,J2,3,Pin_3*%
%TO.N,/IOB1*%
X85590200Y-57393200D03*
%TO.P,J2,4,Pin_4*%
%TO.N,/IOB2*%
X83050200Y-57393200D03*
%TO.P,J2,5,Pin_5*%
%TO.N,/IOB3*%
X80510200Y-57393200D03*
%TO.P,J2,6,Pin_6*%
%TO.N,/IOB4*%
X77970200Y-57393200D03*
%TO.P,J2,7,Pin_7*%
%TO.N,/IOB5*%
X75430200Y-57393200D03*
%TO.P,J2,8,Pin_8*%
%TO.N,/IOB6*%
X72890200Y-57393200D03*
%TO.P,J2,9,Pin_9*%
%TO.N,/IOB7*%
X70350200Y-57393200D03*
%TO.P,J2,10,Pin_10*%
%TO.N,GND*%
X67810200Y-57393200D03*
%TD*%
D12*
%TO.P,R8,1*%
%TO.N,Net-(C1-Pad2)*%
X92981600Y-49624600D03*
%TO.P,R8,2*%
%TO.N,/LEFT*%
X100601600Y-49624600D03*
%TD*%
D13*
%TO.P,J1,1,Pin_1*%
%TO.N,VCC*%
X117086200Y-57393200D03*
D10*
%TO.P,J1,2,Pin_2*%
%TO.N,/IOA0*%
X114546200Y-57393200D03*
%TO.P,J1,3,Pin_3*%
%TO.N,/IOA1*%
X112006200Y-57393200D03*
%TO.P,J1,4,Pin_4*%
%TO.N,/IOA2*%
X109466200Y-57393200D03*
%TO.P,J1,5,Pin_5*%
%TO.N,/IOA3*%
X106926200Y-57393200D03*
%TO.P,J1,6,Pin_6*%
%TO.N,/IOA4*%
X104386200Y-57393200D03*
%TO.P,J1,7,Pin_7*%
%TO.N,/IOA5*%
X101846200Y-57393200D03*
%TO.P,J1,8,Pin_8*%
%TO.N,/IOA6*%
X99306200Y-57393200D03*
%TO.P,J1,9,Pin_9*%
%TO.N,/IOA7*%
X96766200Y-57393200D03*
%TO.P,J1,10,Pin_10*%
%TO.N,GND*%
X94226200Y-57393200D03*
%TD*%
D12*
%TO.P,R4,1*%
%TO.N,Net-(C1-Pad1)*%
X79138600Y-46576600D03*
%TO.P,R4,2*%
%TO.N,Net-(J4-Pin_3)*%
X71518600Y-46576600D03*
%TD*%
%TO.P,R2,1*%
%TO.N,/A_OUT*%
X71518600Y-49624600D03*
%TO.P,R2,2*%
%TO.N,Net-(C1-Pad1)*%
X79138600Y-49624600D03*
%TD*%
D14*
%TO.P,CO2,1,1*%
%TO.N,/RIGHT*%
X110562200Y-39519200D03*
%TO.P,CO2,2,2*%
%TO.N,unconnected-(CO2-Pad2)*%
X110562200Y-42019200D03*
%TO.P,CO2,3,3*%
%TO.N,unconnected-(CO2-Pad3)*%
X110562200Y-47019200D03*
%TO.P,CO2,4,4*%
%TO.N,/LEFT*%
X110562200Y-49519200D03*
%TO.P,CO2,5,5*%
%TO.N,GND_AUDIO*%
X115562200Y-44519200D03*
%TD*%
D12*
%TO.P,R9,1*%
%TO.N,Net-(C2-Pad2)*%
X92981600Y-39464600D03*
%TO.P,R9,2*%
%TO.N,/RIGHT*%
X100601600Y-39464600D03*
%TD*%
D11*
%TO.P,C1,1*%
%TO.N,Net-(C1-Pad1)*%
X85012600Y-49624600D03*
D12*
%TO.P,C1,2*%
%TO.N,Net-(C1-Pad2)*%
X87012600Y-49624600D03*
%TD*%
%TO.P,C4,1*%
%TO.N,/RIGHT*%
X104538600Y-39504600D03*
%TO.P,C4,2*%
%TO.N,GND_AUDIO*%
X104538600Y-42004600D03*
%TD*%
%TO.P,C6,1*%
%TO.N,VCC*%
X46240200Y-93842200D03*
%TO.P,C6,2*%
%TO.N,GND*%
X48740200Y-93842200D03*
%TD*%
%TO.P,R3,1*%
%TO.N,Net-(J4-Pin_2)*%
X71518600Y-39464600D03*
%TO.P,R3,2*%
%TO.N,Net-(C2-Pad1)*%
X79138600Y-39464600D03*
%TD*%
%TO.P,FB1,1*%
%TO.N,GND*%
X64000200Y-63235200D03*
%TO.P,FB1,2*%
%TO.N,GND_AUDIO*%
X64000200Y-70855200D03*
%TD*%
D15*
%TO.P,U2,1,I0/CLK*%
%TO.N,/CLK*%
X48760200Y-63235200D03*
D16*
%TO.P,U2,2,I1*%
%TO.N,/A0*%
X48760200Y-65775200D03*
%TO.P,U2,3,I2*%
%TO.N,/A1*%
X48760200Y-68315200D03*
%TO.P,U2,4,I3*%
%TO.N,/A2*%
X48760200Y-70855200D03*
%TO.P,U2,5,I4*%
%TO.N,/A3*%
X48760200Y-73395200D03*
%TO.P,U2,6,I5*%
%TO.N,/A4*%
X48760200Y-75935200D03*
%TO.P,U2,7,I6*%
%TO.N,/A6*%
X48760200Y-78475200D03*
%TO.P,U2,8,I7*%
%TO.N,/A5*%
X48760200Y-81015200D03*
%TO.P,U2,9,I8*%
%TO.N,/A7*%
X48760200Y-83555200D03*
%TO.P,U2,10,I9*%
%TO.N,/~{WR}*%
X48760200Y-86095200D03*
%TO.P,U2,11,I10*%
%TO.N,/~{IOREQ}*%
X48760200Y-88635200D03*
%TO.P,U2,12,GND*%
%TO.N,GND*%
X48760200Y-91175200D03*
%TO.P,U2,13,I11*%
%TO.N,/~{RD}*%
X41140200Y-91175200D03*
%TO.P,U2,14,O9*%
%TO.N,/BDIR*%
X41140200Y-88635200D03*
%TO.P,U2,15,O8*%
%TO.N,/BC1*%
X41140200Y-86095200D03*
%TO.P,U2,16,O7*%
%TO.N,/CLK_DIV2*%
X41140200Y-83555200D03*
%TO.P,U2,17,O6*%
%TO.N,/CLK_OUT*%
X41140200Y-81015200D03*
%TO.P,U2,18,O5*%
%TO.N,/O5*%
X41140200Y-78475200D03*
%TO.P,U2,19,O4*%
%TO.N,/O4*%
X41140200Y-75935200D03*
%TO.P,U2,20,O3*%
%TO.N,/O3*%
X41140200Y-73395200D03*
%TO.P,U2,21,O2*%
%TO.N,/O2*%
X41140200Y-70855200D03*
%TO.P,U2,22,O1*%
%TO.N,/O1*%
X41140200Y-68315200D03*
%TO.P,U2,23,O0*%
%TO.N,/O0*%
X41140200Y-65775200D03*
%TO.P,U2,24,VCC*%
%TO.N,VCC*%
X41140200Y-63235200D03*
%TD*%
D13*
%TO.P,J3,1,Pin_1*%
%TO.N,VCC*%
X64254200Y-57393200D03*
D10*
%TO.P,J3,2,Pin_2*%
X61714200Y-57393200D03*
%TO.P,J3,3,Pin_3*%
%TO.N,/O0*%
X59174200Y-57393200D03*
%TO.P,J3,4,Pin_4*%
%TO.N,/O1*%
X56634200Y-57393200D03*
%TO.P,J3,5,Pin_5*%
%TO.N,/O2*%
X54094200Y-57393200D03*
%TO.P,J3,6,Pin_6*%
%TO.N,/O3*%
X51554200Y-57393200D03*
%TO.P,J3,7,Pin_7*%
%TO.N,/O4*%
X49014200Y-57393200D03*
%TO.P,J3,8,Pin_8*%
%TO.N,/O5*%
X46474200Y-57393200D03*
%TO.P,J3,9,Pin_9*%
%TO.N,GND*%
X43934200Y-57393200D03*
%TO.P,J3,10,Pin_10*%
X41394200Y-57393200D03*
%TD*%
D12*
%TO.P,C3,1*%
%TO.N,/LEFT*%
X104538600Y-49604600D03*
%TO.P,C3,2*%
%TO.N,GND_AUDIO*%
X104538600Y-47104600D03*
%TD*%
%TO.P,R6,1*%
%TO.N,Net-(C1-Pad1)*%
X92981600Y-46449600D03*
%TO.P,R6,2*%
%TO.N,GND_AUDIO*%
X100601600Y-46449600D03*
%TD*%
%TO.P,R5,1*%
%TO.N,Net-(C2-Pad1)*%
X79138600Y-42512600D03*
%TO.P,R5,2*%
%TO.N,Net-(J4-Pin_3)*%
X71518600Y-42512600D03*
%TD*%
D17*
%TO.P,U1,1,VSS*%
%TO.N,GND*%
X68826200Y-63235200D03*
D18*
%TO.P,U1,2,NC*%
%TO.N,unconnected-(U1-NC-Pad2)*%
X71366200Y-63235200D03*
%TO.P,U1,3,A*%
%TO.N,/A_OUT*%
X73906200Y-63235200D03*
%TO.P,U1,4,B*%
%TO.N,/B_OUT*%
X76446200Y-63235200D03*
%TO.P,U1,5,NC*%
%TO.N,unconnected-(U1-NC-Pad5)*%
X78986200Y-63235200D03*
%TO.P,U1,6,IOB7*%
%TO.N,/IOB7*%
X81526200Y-63235200D03*
%TO.P,U1,7,IOB6*%
%TO.N,/IOB6*%
X84066200Y-63235200D03*
%TO.P,U1,8,IOB5*%
%TO.N,/IOB5*%
X86606200Y-63235200D03*
%TO.P,U1,9,IOB4*%
%TO.N,/IOB4*%
X89146200Y-63235200D03*
%TO.P,U1,10,IOB3*%
%TO.N,/IOB3*%
X91686200Y-63235200D03*
%TO.P,U1,11,IOB2*%
%TO.N,/IOB2*%
X94226200Y-63235200D03*
%TO.P,U1,12,IOB1*%
%TO.N,/IOB1*%
X96766200Y-63235200D03*
%TO.P,U1,13,IOB0*%
%TO.N,/IOB0*%
X99306200Y-63235200D03*
%TO.P,U1,14,IOA7*%
%TO.N,/IOA7*%
X101846200Y-63235200D03*
%TO.P,U1,15,IOA6*%
%TO.N,/IOA6*%
X104386200Y-63235200D03*
%TO.P,U1,16,IOA5*%
%TO.N,/IOA5*%
X106926200Y-63235200D03*
%TO.P,U1,17,IOA4*%
%TO.N,/IOA4*%
X109466200Y-63235200D03*
%TO.P,U1,18,IOA3*%
%TO.N,/IOA3*%
X112006200Y-63235200D03*
%TO.P,U1,19,IOA2*%
%TO.N,/IOA2*%
X114546200Y-63235200D03*
%TO.P,U1,20,IOA1*%
%TO.N,/IOA1*%
X117086200Y-63235200D03*
%TO.P,U1,21,IOA0*%
%TO.N,/IOA0*%
X117086200Y-78475200D03*
%TO.P,U1,22,CLOCK*%
%TO.N,Net-(JP2-C)*%
X114546200Y-78475200D03*
%TO.P,U1,23,~{RESET}*%
%TO.N,/~{RESET}*%
X112006200Y-78475200D03*
%TO.P,U1,24,~{A9}*%
%TO.N,GND*%
X109466200Y-78475200D03*
%TO.P,U1,25,A8*%
%TO.N,VCC*%
X106926200Y-78475200D03*
%TO.P,U1,26,~{SEL}*%
%TO.N,Net-(JP1-B)*%
X104386200Y-78475200D03*
%TO.P,U1,27,BDIR*%
%TO.N,/BDIR*%
X101846200Y-78475200D03*
%TO.P,U1,28,BC2*%
%TO.N,VCC*%
X99306200Y-78475200D03*
%TO.P,U1,29,BC1*%
%TO.N,/BC1*%
X96766200Y-78475200D03*
%TO.P,U1,30,DA7*%
%TO.N,/D7*%
X94226200Y-78475200D03*
%TO.P,U1,31,DA6*%
%TO.N,/D6*%
X91686200Y-78475200D03*
%TO.P,U1,32,DA5*%
%TO.N,/D5*%
X89146200Y-78475200D03*
%TO.P,U1,33,DA4*%
%TO.N,/D4*%
X86606200Y-78475200D03*
%TO.P,U1,34,DA3*%
%TO.N,/D3*%
X84066200Y-78475200D03*
%TO.P,U1,35,DA2*%
%TO.N,/D2*%
X81526200Y-78475200D03*
%TO.P,U1,36,DA1*%
%TO.N,/D1*%
X78986200Y-78475200D03*
%TO.P,U1,37,DA0*%
%TO.N,/D0*%
X76446200Y-78475200D03*
%TO.P,U1,38,C*%
%TO.N,/C_OUT*%
X73906200Y-78475200D03*
%TO.P,U1,39,TEST1*%
%TO.N,unconnected-(U1-TEST1-Pad39)*%
X71366200Y-78475200D03*
%TO.P,U1,40,VCC*%
%TO.N,VCC*%
X68826200Y-78475200D03*
%TD*%
D12*
%TO.P,R7,1*%
%TO.N,Net-(C2-Pad1)*%
X92981600Y-42512600D03*
%TO.P,R7,2*%
%TO.N,GND_AUDIO*%
X100601600Y-42512600D03*
%TD*%
%TO.P,C5,1*%
%TO.N,VCC*%
X66159200Y-78455200D03*
%TO.P,C5,2*%
%TO.N,GND*%
X66159200Y-75955200D03*
%TD*%
D13*
%TO.P,JP2,1,A*%
%TO.N,/CLK_OUT*%
X56761200Y-75935200D03*
D10*
%TO.P,JP2,2,C*%
%TO.N,Net-(JP2-C)*%
X56761200Y-78475200D03*
%TO.P,JP2,3,B*%
%TO.N,/CLK_DIV2*%
X56761200Y-81015200D03*
%TD*%
D19*
%TO.N,/BDIR*%
X98155600Y-85373600D03*
%TO.N,/BC1*%
X92829700Y-83580300D03*
%TO.N,/O2*%
X54186400Y-66903600D03*
%TO.N,/O4*%
X45856900Y-58725700D03*
%TO.N,/A3*%
X53335300Y-88796100D03*
%TO.N,/A2*%
X54857900Y-90210000D03*
%TO.N,/D6*%
X89449400Y-84582300D03*
%TO.N,/CLK*%
X50964200Y-92738900D03*
%TO.N,/A4*%
X113001200Y-75823000D03*
%TO.N,/A1*%
X55972000Y-90476100D03*
%TO.N,/A6*%
X47650600Y-96934800D03*
%TO.N,/A0*%
X68870500Y-69161000D03*
%TO.N,/D7*%
X88563100Y-84282900D03*
%TO.N,GND_AUDIO*%
X96000000Y-69250000D03*
%TD*%
D20*
%TO.N,GND*%
X48740200Y-91195200D02*
X48740200Y-93842200D01*
X48760200Y-91175200D02*
X48740200Y-91195200D01*
X71366200Y-92318200D02*
X68826200Y-92318200D01*
D21*
%TO.N,/IOA6*%
X104386200Y-62473200D02*
X104386200Y-63235200D01*
X99306200Y-57393200D02*
X104386200Y-62473200D01*
%TO.N,/IOA4*%
X109466200Y-62473200D02*
X109466200Y-63235200D01*
X104386200Y-57393200D02*
X109466200Y-62473200D01*
%TO.N,/IOA1*%
X117086200Y-62473200D02*
X117086200Y-63235200D01*
X112006200Y-57393200D02*
X117086200Y-62473200D01*
%TO.N,/IOA2*%
X109466200Y-57393200D02*
X114546200Y-62473200D01*
X114546200Y-62473200D02*
X114546200Y-63235200D01*
%TO.N,/IOA3*%
X112006200Y-62473200D02*
X112006200Y-63235200D01*
X106926200Y-57393200D02*
X112006200Y-62473200D01*
%TO.N,/IOA5*%
X106926200Y-62473200D02*
X106926200Y-63235200D01*
X101846200Y-57393200D02*
X106926200Y-62473200D01*
%TO.N,/B_OUT*%
X62011200Y-40879200D02*
X63390600Y-42258600D01*
X62011200Y-38761200D02*
X62011200Y-40879200D01*
X62246200Y-38526200D02*
X62011200Y-38761200D01*
X66386400Y-38526200D02*
X62246200Y-38526200D01*
X70068000Y-46750400D02*
X70068000Y-42207800D01*
X71637000Y-48319400D02*
X70068000Y-46750400D01*
X76636700Y-53134100D02*
X71822000Y-48319400D01*
X76636700Y-61543000D02*
X76636700Y-53134100D01*
X76446200Y-61733500D02*
X76636700Y-61543000D01*
X70068000Y-42207800D02*
X66386400Y-38526200D01*
X71822000Y-48319400D02*
X71637000Y-48319400D01*
X76446200Y-63235200D02*
X76446200Y-61733500D01*
%TO.N,GND_AUDIO*%
X95611600Y-64299200D02*
X95611600Y-51439600D01*
X96000000Y-64687600D02*
X95611600Y-64299200D01*
X96000000Y-69250000D02*
X96000000Y-64687600D01*
X95611600Y-51439600D02*
X100601600Y-46449600D01*
%TO.N,/BDIR*%
X98155600Y-83667500D02*
X98155600Y-85373600D01*
X101846200Y-79976900D02*
X98155600Y-83667500D01*
X101846200Y-78475200D02*
X101846200Y-79976900D01*
%TO.N,/BC1*%
X96433100Y-79976900D02*
X92829700Y-83580300D01*
X96766200Y-79976900D02*
X96433100Y-79976900D01*
X96766200Y-78475200D02*
X96766200Y-79976900D01*
%TO.N,/A_OUT*%
X74096700Y-52202700D02*
X71518600Y-49624600D01*
X74096700Y-61543000D02*
X74096700Y-52202700D01*
X73906200Y-61733500D02*
X74096700Y-61543000D01*
X73906200Y-63235200D02*
X73906200Y-61733500D01*
%TO.N,Net-(J4-Pin_3)*%
X71518600Y-46576600D02*
X71518600Y-42512600D01*
%TO.N,/C_OUT*%
X73906200Y-78475200D02*
X73906200Y-76973500D01*
X72577900Y-75645200D02*
X73906200Y-76973500D01*
X72577900Y-62472600D02*
X72577900Y-75645200D01*
X71681700Y-61576400D02*
X72577900Y-62472600D01*
X71681700Y-56824700D02*
X71681700Y-61576400D01*
X69600400Y-54743400D02*
X71681700Y-56824700D01*
X69600400Y-43388400D02*
X69600400Y-54743400D01*
X65930600Y-39718600D02*
X69600400Y-43388400D01*
%TO.N,/O3*%
X41140200Y-73395200D02*
X42641900Y-73395200D01*
X45239600Y-70797500D02*
X42641900Y-73395200D01*
X45239600Y-56990600D02*
X45239600Y-70797500D01*
X46009600Y-56220600D02*
X45239600Y-56990600D01*
X50381600Y-56220600D02*
X46009600Y-56220600D01*
X51554200Y-57393200D02*
X50381600Y-56220600D01*
%TO.N,/O5*%
X46474200Y-74642900D02*
X46474200Y-57393200D01*
X42641900Y-78475200D02*
X46474200Y-74642900D01*
X41140200Y-78475200D02*
X42641900Y-78475200D01*
%TO.N,/O2*%
X54094200Y-66811400D02*
X54186400Y-66903600D01*
X54094200Y-57393200D02*
X54094200Y-66811400D01*
%TO.N,/O4*%
X45856900Y-72720200D02*
X42641900Y-75935200D01*
X45856900Y-58725700D02*
X45856900Y-72720200D01*
X41140200Y-75935200D02*
X42641900Y-75935200D01*
%TO.N,/IOA7*%
X98097500Y-58724500D02*
X96766200Y-57393200D01*
X98097500Y-64000500D02*
X98097500Y-58724500D01*
X98833900Y-64736900D02*
X98097500Y-64000500D01*
X101846200Y-64736900D02*
X98833900Y-64736900D01*
X101846200Y-63235200D02*
X101846200Y-64736900D01*
%TO.N,/A3*%
X48760200Y-73395200D02*
X50261900Y-73395200D01*
X53335300Y-76468600D02*
X50261900Y-73395200D01*
X53335300Y-88796100D02*
X53335300Y-76468600D01*
%TO.N,/A2*%
X48760200Y-70855200D02*
X50261900Y-70855200D01*
X54121200Y-74714500D02*
X50261900Y-70855200D01*
X54121200Y-89473300D02*
X54121200Y-74714500D01*
X54857900Y-90210000D02*
X54121200Y-89473300D01*
%TO.N,/D6*%
X91686200Y-78475200D02*
X91686200Y-79976900D01*
X89449400Y-82213700D02*
X91686200Y-79976900D01*
X89449400Y-84582300D02*
X89449400Y-82213700D01*
%TO.N,/D2*%
X81167500Y-79976900D02*
X81526200Y-79976900D01*
X73906200Y-87238200D02*
X81167500Y-79976900D01*
X81526200Y-78475200D02*
X81526200Y-79976900D01*
%TO.N,/D0*%
X76087500Y-79976900D02*
X76446200Y-79976900D01*
X68826200Y-87238200D02*
X76087500Y-79976900D01*
X76446200Y-78475200D02*
X76446200Y-79976900D01*
%TO.N,/D5*%
X85167900Y-81056500D02*
X78986200Y-87238200D01*
X85167900Y-77920400D02*
X85167900Y-81056500D01*
X86114800Y-76973500D02*
X85167900Y-77920400D01*
X89146200Y-76973500D02*
X86114800Y-76973500D01*
X89146200Y-78475200D02*
X89146200Y-76973500D01*
%TO.N,/CLK*%
X50964200Y-76167400D02*
X50964200Y-92738900D01*
X49462000Y-74665200D02*
X50964200Y-76167400D01*
X48048100Y-74665200D02*
X49462000Y-74665200D01*
X47232100Y-73849200D02*
X48048100Y-74665200D01*
X47232100Y-64763300D02*
X47232100Y-73849200D01*
X48760200Y-63235200D02*
X47232100Y-64763300D01*
%TO.N,/A4*%
X113276200Y-76098000D02*
X113001200Y-75823000D01*
X113276200Y-91048200D02*
X113276200Y-76098000D01*
X114546200Y-92318200D02*
X113276200Y-91048200D01*
%TO.N,/D3*%
X80371400Y-88393000D02*
X81526200Y-87238200D01*
X78494300Y-88393000D02*
X80371400Y-88393000D01*
X77825300Y-87724000D02*
X78494300Y-88393000D01*
X77825300Y-86217800D02*
X77825300Y-87724000D01*
X84066200Y-79976900D02*
X77825300Y-86217800D01*
X84066200Y-78475200D02*
X84066200Y-79976900D01*
%TO.N,/D1*%
X78627500Y-79976900D02*
X71366200Y-87238200D01*
X78986200Y-79976900D02*
X78627500Y-79976900D01*
X78986200Y-78475200D02*
X78986200Y-79976900D01*
%TO.N,/A1*%
X48760200Y-68315200D02*
X50261900Y-68315200D01*
X55972000Y-89651700D02*
X55972000Y-90476100D01*
X55024700Y-88704400D02*
X55972000Y-89651700D01*
X55024700Y-73078000D02*
X55024700Y-88704400D01*
X50261900Y-68315200D02*
X55024700Y-73078000D01*
%TO.N,/~{RESET}*%
X112006200Y-87238200D02*
X112006200Y-78475200D01*
%TO.N,/A6*%
X45079500Y-94363700D02*
X47650600Y-96934800D01*
X45079500Y-80654200D02*
X45079500Y-94363700D01*
X47258500Y-78475200D02*
X45079500Y-80654200D01*
X48760200Y-78475200D02*
X47258500Y-78475200D01*
%TO.N,/D4*%
X86606200Y-84698200D02*
X84066200Y-87238200D01*
X86606200Y-78475200D02*
X86606200Y-84698200D01*
%TO.N,/A0*%
X69977900Y-70268400D02*
X68870500Y-69161000D01*
X69977900Y-83259400D02*
X69977900Y-70268400D01*
X67655900Y-85581400D02*
X69977900Y-83259400D01*
X67655900Y-87758600D02*
X67655900Y-85581400D01*
X69675500Y-89778200D02*
X67655900Y-87758600D01*
X73906200Y-89778200D02*
X69675500Y-89778200D01*
X76446200Y-92318200D02*
X73906200Y-89778200D01*
%TO.N,/D7*%
X94226200Y-80706800D02*
X94226200Y-78475200D01*
X89749000Y-85184000D02*
X94226200Y-80706800D01*
X89156600Y-85184000D02*
X89749000Y-85184000D01*
X88563100Y-84590500D02*
X89156600Y-85184000D01*
X88563100Y-84282900D02*
X88563100Y-84590500D01*
D20*
%TO.N,GND*%
X68826200Y-63235200D02*
X67810200Y-63235200D01*
X67810200Y-57393200D02*
X67810200Y-63235200D01*
X67810200Y-74304200D02*
X66159200Y-75955200D01*
X67810200Y-63235200D02*
X67810200Y-74304200D01*
X67196700Y-93947700D02*
X68826200Y-92318200D01*
X60541100Y-93947700D02*
X67196700Y-93947700D01*
X57038000Y-90444600D02*
X60541100Y-93947700D01*
X58814500Y-77564900D02*
X60444200Y-75935200D01*
X58814500Y-88668100D02*
X58814500Y-77564900D01*
X57038000Y-90444600D02*
X58814500Y-88668100D01*
X57038000Y-90897500D02*
X57038000Y-90444600D01*
X54093300Y-93842200D02*
X57038000Y-90897500D01*
X48740200Y-93842200D02*
X54093300Y-93842200D01*
%TO.N,VCC*%
X68826200Y-78475200D02*
X68826200Y-76523500D01*
X68012400Y-76523500D02*
X68826200Y-76523500D01*
X66234600Y-78301300D02*
X68012400Y-76523500D01*
X61714200Y-73780900D02*
X61714200Y-57393200D01*
X66234600Y-78301300D02*
X61714200Y-73780900D01*
X66234600Y-78379800D02*
X66234600Y-78301300D01*
X66159200Y-78455200D02*
X66234600Y-78379800D01*
X66159200Y-87365200D02*
X61206200Y-92318200D01*
X66159200Y-78455200D02*
X66159200Y-87365200D01*
X117086200Y-57393200D02*
X117086200Y-58994900D01*
X106926200Y-76045200D02*
X106926200Y-78475200D01*
X118656200Y-64315200D02*
X106926200Y-76045200D01*
X118656200Y-60564900D02*
X118656200Y-64315200D01*
X117086200Y-58994900D02*
X118656200Y-60564900D01*
X59667100Y-55346100D02*
X61714200Y-57393200D01*
X41112000Y-55346100D02*
X59667100Y-55346100D01*
X39188500Y-57269600D02*
X41112000Y-55346100D01*
X39188500Y-63235200D02*
X39188500Y-57269600D01*
X41140200Y-63235200D02*
X39188500Y-63235200D01*
D21*
%TO.N,GND_AUDIO*%
X100601600Y-46449600D02*
X100601600Y-42512600D01*
%TO.N,Net-(C2-Pad1)*%
X79138600Y-39464600D02*
X79138600Y-42512600D01*
%TO.N,Net-(C1-Pad1)*%
X79138600Y-49624600D02*
X79138600Y-46576600D01*
%TD*%
M02*
