%TF.GenerationSoftware,KiCad,Pcbnew,9.0.5*%
%TF.CreationDate,2025-11-20T20:38:36+00:00*%
%TF.ProjectId,zxeightyzon,7a786569-6768-4747-997a-6f6e2e6b6963,1.0*%
%TF.SameCoordinates,Original*%
%TF.FileFunction,Soldermask,Top*%
%TF.FilePolarity,Negative*%
%FSLAX46Y46*%
G04 Gerber Fmt 4.6, Leading zero omitted, Abs format (unit mm)*
G04 Created by KiCad (PCBNEW 9.0.5) date 2025-11-20 20:38:36*
%MOMM*%
%LPD*%
G01*
G04 APERTURE LIST*
G04 Aperture macros list*
%AMRoundRect*
0 Rectangle with rounded corners*
0 $1 Rounding radius*
0 $2 $3 $4 $5 $6 $7 $8 $9 X,Y pos of 4 corners*
0 Add a 4 corners polygon primitive as box body*
4,1,4,$2,$3,$4,$5,$6,$7,$8,$9,$2,$3,0*
0 Add four circle primitives for the rounded corners*
1,1,$1+$1,$2,$3*
1,1,$1+$1,$4,$5*
1,1,$1+$1,$6,$7*
1,1,$1+$1,$8,$9*
0 Add four rect primitives between the rounded corners*
20,1,$1+$1,$2,$3,$4,$5,0*
20,1,$1+$1,$4,$5,$6,$7,0*
20,1,$1+$1,$6,$7,$8,$9,0*
20,1,$1+$1,$8,$9,$2,$3,0*%
G04 Aperture macros list end*
%ADD10C,1.700000*%
%ADD11RoundRect,0.250000X-0.550000X-0.550000X0.550000X-0.550000X0.550000X0.550000X-0.550000X0.550000X0*%
%ADD12C,1.600000*%
%ADD13R,1.700000X1.700000*%
%ADD14C,1.193800*%
%ADD15C,1.752600*%
%ADD16RoundRect,0.250000X0.950000X0.550000X-0.950000X0.550000X-0.950000X-0.550000X0.950000X-0.550000X0*%
%ADD17O,2.400000X1.600000*%
%ADD18RoundRect,0.250000X-0.550000X0.950000X-0.550000X-0.950000X0.550000X-0.950000X0.550000X0.950000X0*%
%ADD19O,1.600000X2.400000*%
G04 APERTURE END LIST*
D10*
%TO.C,CO1*%
X61206200Y-92318200D03*
X63746200Y-92318200D03*
X68826200Y-92318200D03*
X71366200Y-92318200D03*
X73906200Y-92318200D03*
X76446200Y-92318200D03*
X78986200Y-92318200D03*
X81526200Y-92318200D03*
X84066200Y-92318200D03*
X86606200Y-92318200D03*
X89146200Y-92318200D03*
X91686200Y-92318200D03*
X94226200Y-92318200D03*
X96766200Y-92318200D03*
X99306200Y-92318200D03*
X101846200Y-92318200D03*
X104386200Y-92318200D03*
X106926200Y-92318200D03*
X109466200Y-92318200D03*
X112006200Y-92318200D03*
X114546200Y-92318200D03*
X117086200Y-92318200D03*
X61206200Y-87238200D03*
X63746200Y-87238200D03*
X68826200Y-87238200D03*
X71366200Y-87238200D03*
X73906200Y-87238200D03*
X76446200Y-87238200D03*
X78986200Y-87238200D03*
X81526200Y-87238200D03*
X84066200Y-87238200D03*
X86606200Y-87238200D03*
X89146200Y-87238200D03*
X91686200Y-87238200D03*
X94226200Y-87238200D03*
X96766200Y-87238200D03*
X99306200Y-87238200D03*
X101846200Y-87238200D03*
X104386200Y-87238200D03*
X106926200Y-87238200D03*
X109466200Y-87238200D03*
X112006200Y-87238200D03*
X114546200Y-87238200D03*
X117086200Y-87238200D03*
%TD*%
D11*
%TO.C,C2*%
X84885600Y-39464600D03*
D12*
X86885600Y-39464600D03*
%TD*%
D13*
%TO.C,J4*%
X63390600Y-42258600D03*
D10*
X65930600Y-42258600D03*
X63390600Y-39718600D03*
X65930600Y-39718600D03*
%TD*%
D13*
%TO.C,JP1*%
X60444200Y-75935200D03*
D10*
X60444200Y-78475200D03*
%TD*%
D13*
%TO.C,J2*%
X90670200Y-57393200D03*
D10*
X88130200Y-57393200D03*
X85590200Y-57393200D03*
X83050200Y-57393200D03*
X80510200Y-57393200D03*
X77970200Y-57393200D03*
X75430200Y-57393200D03*
X72890200Y-57393200D03*
X70350200Y-57393200D03*
X67810200Y-57393200D03*
%TD*%
D12*
%TO.C,R8*%
X92981600Y-49624600D03*
X100601600Y-49624600D03*
%TD*%
D13*
%TO.C,J1*%
X117086200Y-57393200D03*
D10*
X114546200Y-57393200D03*
X112006200Y-57393200D03*
X109466200Y-57393200D03*
X106926200Y-57393200D03*
X104386200Y-57393200D03*
X101846200Y-57393200D03*
X99306200Y-57393200D03*
X96766200Y-57393200D03*
X94226200Y-57393200D03*
%TD*%
D12*
%TO.C,R4*%
X79138600Y-46576600D03*
X71518600Y-46576600D03*
%TD*%
%TO.C,R2*%
X71518600Y-49624600D03*
X79138600Y-49624600D03*
%TD*%
D14*
%TO.C,CO2*%
X118062200Y-39519200D03*
X115562200Y-39519200D03*
X110562200Y-44519200D03*
X118062200Y-49519200D03*
X115562200Y-49519200D03*
D15*
X110562200Y-39519200D03*
X110562200Y-42019200D03*
X110562200Y-47019200D03*
X110562200Y-49519200D03*
X115562200Y-44519200D03*
%TD*%
D12*
%TO.C,R9*%
X92981600Y-39464600D03*
X100601600Y-39464600D03*
%TD*%
D11*
%TO.C,C1*%
X85012600Y-49624600D03*
D12*
X87012600Y-49624600D03*
%TD*%
%TO.C,C4*%
X104538600Y-39504600D03*
X104538600Y-42004600D03*
%TD*%
%TO.C,C6*%
X46240200Y-93842200D03*
X48740200Y-93842200D03*
%TD*%
%TO.C,R3*%
X71518600Y-39464600D03*
X79138600Y-39464600D03*
%TD*%
%TO.C,FB1*%
X64000200Y-63235200D03*
X64000200Y-70855200D03*
%TD*%
D16*
%TO.C,U2*%
X48760200Y-63235200D03*
D17*
X48760200Y-65775200D03*
X48760200Y-68315200D03*
X48760200Y-70855200D03*
X48760200Y-73395200D03*
X48760200Y-75935200D03*
X48760200Y-78475200D03*
X48760200Y-81015200D03*
X48760200Y-83555200D03*
X48760200Y-86095200D03*
X48760200Y-88635200D03*
X48760200Y-91175200D03*
X41140200Y-91175200D03*
X41140200Y-88635200D03*
X41140200Y-86095200D03*
X41140200Y-83555200D03*
X41140200Y-81015200D03*
X41140200Y-78475200D03*
X41140200Y-75935200D03*
X41140200Y-73395200D03*
X41140200Y-70855200D03*
X41140200Y-68315200D03*
X41140200Y-65775200D03*
X41140200Y-63235200D03*
%TD*%
D13*
%TO.C,J3*%
X64254200Y-57393200D03*
D10*
X61714200Y-57393200D03*
X59174200Y-57393200D03*
X56634200Y-57393200D03*
X54094200Y-57393200D03*
X51554200Y-57393200D03*
X49014200Y-57393200D03*
X46474200Y-57393200D03*
X43934200Y-57393200D03*
X41394200Y-57393200D03*
%TD*%
D12*
%TO.C,C3*%
X104538600Y-49604600D03*
X104538600Y-47104600D03*
%TD*%
%TO.C,R6*%
X92981600Y-46449600D03*
X100601600Y-46449600D03*
%TD*%
%TO.C,R5*%
X79138600Y-42512600D03*
X71518600Y-42512600D03*
%TD*%
D18*
%TO.C,U1*%
X68826200Y-63235200D03*
D19*
X71366200Y-63235200D03*
X73906200Y-63235200D03*
X76446200Y-63235200D03*
X78986200Y-63235200D03*
X81526200Y-63235200D03*
X84066200Y-63235200D03*
X86606200Y-63235200D03*
X89146200Y-63235200D03*
X91686200Y-63235200D03*
X94226200Y-63235200D03*
X96766200Y-63235200D03*
X99306200Y-63235200D03*
X101846200Y-63235200D03*
X104386200Y-63235200D03*
X106926200Y-63235200D03*
X109466200Y-63235200D03*
X112006200Y-63235200D03*
X114546200Y-63235200D03*
X117086200Y-63235200D03*
X117086200Y-78475200D03*
X114546200Y-78475200D03*
X112006200Y-78475200D03*
X109466200Y-78475200D03*
X106926200Y-78475200D03*
X104386200Y-78475200D03*
X101846200Y-78475200D03*
X99306200Y-78475200D03*
X96766200Y-78475200D03*
X94226200Y-78475200D03*
X91686200Y-78475200D03*
X89146200Y-78475200D03*
X86606200Y-78475200D03*
X84066200Y-78475200D03*
X81526200Y-78475200D03*
X78986200Y-78475200D03*
X76446200Y-78475200D03*
X73906200Y-78475200D03*
X71366200Y-78475200D03*
X68826200Y-78475200D03*
%TD*%
D12*
%TO.C,R7*%
X92981600Y-42512600D03*
X100601600Y-42512600D03*
%TD*%
%TO.C,C5*%
X66159200Y-78455200D03*
X66159200Y-75955200D03*
%TD*%
D13*
%TO.C,JP2*%
X56761200Y-75935200D03*
D10*
X56761200Y-78475200D03*
X56761200Y-81015200D03*
%TD*%
M02*
