M48
; DRILL file {KiCad 9.0.5} date 2025-11-20T20:38:31+0000
; FORMAT={-:-/ absolute / metric / decimal}
; #@! TF.CreationDate,2025-11-20T20:38:31+00:00
; #@! TF.GenerationSoftware,Kicad,Pcbnew,9.0.5
; #@! TF.FileFunction,MixedPlating,1,2
FMAT,2
METRIC
; #@! TA.AperFunction,Plated,PTH,ViaDrill
T1C0.300
; #@! TA.AperFunction,Plated,PTH,ComponentDrill
T2C0.800
; #@! TA.AperFunction,Plated,PTH,ComponentDrill
T3C1.000
; #@! TA.AperFunction,Plated,PTH,ComponentDrill
T4C1.245
; #@! TA.AperFunction,NonPlated,NPTH,ComponentDrill
T5C1.194
%
G90
G05
T1
X45.857Y-58.726
X47.651Y-96.935
X50.964Y-92.739
X53.335Y-88.796
X54.186Y-66.904
X54.858Y-90.21
X55.972Y-90.476
X68.87Y-69.161
X88.563Y-84.283
X89.449Y-84.582
X92.83Y-83.58
X96.0Y-69.25
X98.156Y-85.374
X113.001Y-75.823
T2
X41.14Y-63.235
X41.14Y-65.775
X41.14Y-68.315
X41.14Y-70.855
X41.14Y-73.395
X41.14Y-75.935
X41.14Y-78.475
X41.14Y-81.015
X41.14Y-83.555
X41.14Y-86.095
X41.14Y-88.635
X41.14Y-91.175
X46.24Y-93.842
X48.74Y-93.842
X48.76Y-63.235
X48.76Y-65.775
X48.76Y-68.315
X48.76Y-70.855
X48.76Y-73.395
X48.76Y-75.935
X48.76Y-78.475
X48.76Y-81.015
X48.76Y-83.555
X48.76Y-86.095
X48.76Y-88.635
X48.76Y-91.175
X64.0Y-63.235
X64.0Y-70.855
X66.159Y-75.955
X66.159Y-78.455
X68.826Y-63.235
X68.826Y-78.475
X71.366Y-63.235
X71.366Y-78.475
X71.519Y-39.465
X71.519Y-42.513
X71.519Y-46.577
X71.519Y-49.625
X73.906Y-63.235
X73.906Y-78.475
X76.446Y-63.235
X76.446Y-78.475
X78.986Y-63.235
X78.986Y-78.475
X79.139Y-39.465
X79.139Y-42.513
X79.139Y-46.577
X79.139Y-49.625
X81.526Y-63.235
X81.526Y-78.475
X84.066Y-63.235
X84.066Y-78.475
X84.886Y-39.465
X85.013Y-49.625
X86.606Y-63.235
X86.606Y-78.475
X86.886Y-39.465
X87.013Y-49.625
X89.146Y-63.235
X89.146Y-78.475
X91.686Y-63.235
X91.686Y-78.475
X92.982Y-39.465
X92.982Y-42.513
X92.982Y-46.45
X92.982Y-49.625
X94.226Y-63.235
X94.226Y-78.475
X96.766Y-63.235
X96.766Y-78.475
X99.306Y-63.235
X99.306Y-78.475
X100.602Y-39.465
X100.602Y-42.513
X100.602Y-46.45
X100.602Y-49.625
X101.846Y-63.235
X101.846Y-78.475
X104.386Y-63.235
X104.386Y-78.475
X104.539Y-39.505
X104.539Y-42.005
X104.539Y-47.105
X104.539Y-49.605
X106.926Y-63.235
X106.926Y-78.475
X109.466Y-63.235
X109.466Y-78.475
X112.006Y-63.235
X112.006Y-78.475
X114.546Y-63.235
X114.546Y-78.475
X117.086Y-63.235
X117.086Y-78.475
T3
X41.394Y-57.393
X43.934Y-57.393
X46.474Y-57.393
X49.014Y-57.393
X51.554Y-57.393
X54.094Y-57.393
X56.634Y-57.393
X56.761Y-75.935
X56.761Y-78.475
X56.761Y-81.015
X59.174Y-57.393
X60.444Y-75.935
X60.444Y-78.475
X61.206Y-87.238
X61.206Y-92.318
X61.714Y-57.393
X63.391Y-39.719
X63.391Y-42.259
X63.746Y-87.238
X63.746Y-92.318
X64.254Y-57.393
X65.931Y-39.719
X65.931Y-42.259
X67.81Y-57.393
X68.826Y-87.238
X68.826Y-92.318
X70.35Y-57.393
X71.366Y-87.238
X71.366Y-92.318
X72.89Y-57.393
X73.906Y-87.238
X73.906Y-92.318
X75.43Y-57.393
X76.446Y-87.238
X76.446Y-92.318
X77.97Y-57.393
X78.986Y-87.238
X78.986Y-92.318
X80.51Y-57.393
X81.526Y-87.238
X81.526Y-92.318
X83.05Y-57.393
X84.066Y-87.238
X84.066Y-92.318
X85.59Y-57.393
X86.606Y-87.238
X86.606Y-92.318
X88.13Y-57.393
X89.146Y-87.238
X89.146Y-92.318
X90.67Y-57.393
X91.686Y-87.238
X91.686Y-92.318
X94.226Y-57.393
X94.226Y-87.238
X94.226Y-92.318
X96.766Y-57.393
X96.766Y-87.238
X96.766Y-92.318
X99.306Y-57.393
X99.306Y-87.238
X99.306Y-92.318
X101.846Y-57.393
X101.846Y-87.238
X101.846Y-92.318
X104.386Y-57.393
X104.386Y-87.238
X104.386Y-92.318
X106.926Y-57.393
X106.926Y-87.238
X106.926Y-92.318
X109.466Y-57.393
X109.466Y-87.238
X109.466Y-92.318
X112.006Y-57.393
X112.006Y-87.238
X112.006Y-92.318
X114.546Y-57.393
X114.546Y-87.238
X114.546Y-92.318
X117.086Y-57.393
X117.086Y-87.238
X117.086Y-92.318
T4
X110.562Y-39.519
X110.562Y-42.019
X110.562Y-47.019
X110.562Y-49.519
X115.562Y-44.519
T5
X110.562Y-44.519
X115.562Y-39.519
X115.562Y-49.519
X118.062Y-39.519
X118.062Y-49.519
M30
