<?xml version="1.0" encoding="UTF-8" standalone="no"?>
<!-- Created with Inkscape (http://www.inkscape.org/) -->

<svg
   width="46.397884mm"
   height="46.400326mm"
   viewBox="0 0 46.397884 46.400326"
   version="1.1"
   id="svg1"
   xml:space="preserve"
   xmlns:inkscape="http://www.inkscape.org/namespaces/inkscape"
   xmlns:sodipodi="http://sodipodi.sourceforge.net/DTD/sodipodi-0.dtd"
   xmlns="http://www.w3.org/2000/svg"
   xmlns:svg="http://www.w3.org/2000/svg"><sodipodi:namedview
     id="namedview1"
     pagecolor="#ffffff"
     bordercolor="#000000"
     borderopacity="0.25"
     inkscape:showpageshadow="2"
     inkscape:pageopacity="0.0"
     inkscape:pagecheckerboard="0"
     inkscape:deskcolor="#d1d1d1"
     inkscape:document-units="mm" /><defs
     id="defs1" /><g
     inkscape:label="Layer 1"
     inkscape:groupmode="layer"
     id="layer1"
     transform="translate(-7.0387556,-23.896322)"><path
       style="fill:#000000;stroke-width:0.235264"
       d="m 29.19478,70.282419 c -0.707691,-0.03694 -1.270818,-0.09224 -2.327741,-0.228606 -0.06899,-0.0089 -0.136105,-0.02942 -0.149148,-0.04559 -0.01303,-0.01616 -0.282427,-0.90422 -0.598631,-1.973443 -0.316205,-1.069222 -0.577504,-1.947125 -0.580664,-1.950899 -0.0032,-0.0038 -0.230787,-0.06692 -0.505837,-0.140326 -0.587181,-0.156714 -1.456555,-0.439625 -2.018218,-0.656767 l -0.398602,-0.154102 -1.617189,1.237782 -1.617189,1.237784 -0.228097,-0.12241 C 17.217418,66.44686 15.493686,65.19154 13.878297,63.644165 l -0.234703,-0.224823 0.653309,-1.825017 c 0.35932,-1.00376 0.669194,-1.869075 0.688609,-1.922922 l 0.0353,-0.09791 -0.188148,-0.232713 c -0.365054,-0.451521 -0.747715,-0.979467 -1.108049,-1.52874 -0.200408,-0.305492 -0.38105,-0.57877 -0.401427,-0.607287 -0.03673,-0.0514 -0.05263,-0.05145 -1.832877,-0.006 -0.987706,0.02522 -1.9060784,0.05295 -2.0408265,0.06163 L 9.2044891,57.276172 8.9957272,56.843195 C 8.3132967,55.427822 7.711575,53.694513 7.3572223,52.123348 7.2586265,51.686186 7.0889091,50.814829 7.0536717,50.564871 l -0.014916,-0.105798 1.7459139,-1.188668 1.7459144,-1.188669 -0.01412,-0.09413 c -0.07765,-0.517745 -0.06815,-1.386608 0.02459,-2.24977 0.03298,-0.30692 0.03224,-0.33346 -0.01033,-0.370293 -0.02522,-0.02181 -0.7860791,-0.544514 -1.6907913,-1.16154 -1.1456968,-0.781387 -1.6449312,-1.136248 -1.6449312,-1.169241 0,-0.07571 0.1509903,-0.787356 0.2799066,-1.319257 0.3088727,-1.274386 0.771393,-2.632927 1.3192098,-3.874856 0.2000714,-0.453572 0.7772924,-1.621022 0.8121242,-1.642549 0.012768,-0.0079 0.9400679,0.01134 2.0606689,0.04275 1.120601,0.0314 2.053931,0.05077 2.074068,0.04305 0.02014,-0.0077 0.110135,-0.123396 0.199996,-0.257037 0.220087,-0.327318 0.730697,-1.004062 1.024072,-1.35727 l 0.239265,-0.288062 -0.114333,-0.320277 c -0.06288,-0.176153 -0.36529,-1.021725 -0.672015,-1.87905 -0.306725,-0.857325 -0.557681,-1.572844 -0.557681,-1.590044 0,-0.0172 0.187461,-0.204158 0.41658,-0.41546 1.587602,-1.464153 3.176318,-2.584427 5.122991,-3.612448 l 0.553836,-0.292478 0.09646,0.07134 c 0.05305,0.03924 0.795524,0.606945 1.64994,1.261572 0.854416,0.654624 1.564466,1.194166 1.577888,1.198979 0.01342,0.0048 0.206001,-0.05648 0.427952,-0.136208 0.345688,-0.124177 0.89491,-0.295992 1.448304,-0.453078 l 0.145473,-0.04129 0.579512,-1.963745 c 0.318732,-1.080061 0.586532,-1.971362 0.595115,-1.980672 0.0086,-0.0093 0.229843,-0.04749 0.491692,-0.08484 2.199027,-0.313689 4.134333,-0.33087 6.268541,-0.05564 0.717691,0.09255 0.758806,0.100114 0.783836,0.144186 0.0124,0.02181 0.279143,0.908184 0.592778,1.969697 0.313637,1.061513 0.572587,1.93214 0.575448,1.934728 0.0029,0.0026 0.142078,0.0414 0.309372,0.08625 0.389554,0.104439 1.037196,0.308267 1.435495,0.451787 l 0.311391,0.112204 0.09858,-0.07448 c 0.05422,-0.04097 0.778269,-0.594456 1.609007,-1.229978 0.830735,-0.635521 1.533473,-1.169883 1.561639,-1.187474 0.04396,-0.02746 0.104683,-0.0052 0.429279,0.157415 1.943686,0.973699 3.829046,2.295957 5.475897,3.840412 l 0.248902,0.233427 -0.677893,1.898254 c -0.372842,1.04404 -0.681235,1.910804 -0.685319,1.926143 -0.0041,0.01534 0.128668,0.193876 0.295004,0.396744 0.314082,0.383066 0.82711,1.06303 1.033062,1.369217 l 0.118813,0.176638 0.172131,-4.7e-4 c 0.09467,-2.26e-4 0.98744,-0.02389 1.983926,-0.05258 0.996486,-0.02869 1.86616,-0.05231 1.932608,-0.05249 l 0.120817,-2.36e-4 0.360173,0.733974 c 0.753992,1.536515 1.263971,2.921593 1.672599,4.542707 0.18642,0.739571 0.347077,1.519817 0.324859,1.577716 -0.008,0.02094 -0.766654,0.549343 -1.685818,1.174223 l -1.671207,1.136143 0.01461,0.185145 c 0.05666,0.717548 0.07392,1.453035 0.04464,1.902887 -0.0171,0.262665 -0.03733,0.513471 -0.04498,0.557345 -0.01381,0.07926 -0.0027,0.08742 1.711314,1.256354 0.948869,0.647116 1.735066,1.183135 1.747107,1.19115 0.02451,0.01633 -0.06655,0.58121 -0.189954,1.178371 -0.374249,1.810981 -0.987537,3.642722 -1.747013,5.217884 l -0.208886,0.433233 -0.231648,-0.01593 c -0.127405,-0.0088 -1.045788,-0.03652 -2.04085,-0.0617 -1.791302,-0.04532 -1.809567,-0.04526 -1.846102,0.0059 -0.0203,0.02841 -0.20087,0.301601 -0.401277,0.607094 -0.360335,0.549272 -0.742997,1.077219 -1.108051,1.528739 l -0.188147,0.232714 0.03507,0.09791 c 0.01929,0.05385 0.329292,0.919162 0.688897,1.922922 l 0.653827,1.825017 -0.30039,0.28657 c -1.593143,1.519838 -3.201122,2.683632 -5.26165,3.808176 l -0.173895,0.09491 -1.617545,-1.238519 -1.617545,-1.238518 -0.40387,0.156319 c -0.702688,0.271977 -1.425261,0.504166 -2.172328,0.698044 -0.187098,0.04856 -0.343311,0.09192 -0.347138,0.09635 -0.0038,0.0044 -0.265486,0.882889 -0.581462,1.952111 -0.315978,1.069222 -0.588247,1.958042 -0.605045,1.975158 -0.04756,0.04846 -1.198968,0.187091 -2.053928,0.2473 -0.541022,0.0381 -1.993212,0.05261 -2.518935,0.02518 z m 1.765124,-5.79238 c 2.621917,-0.119203 4.93899,-0.71939 7.260395,-1.88065 2.708605,-1.35495 5.029485,-3.403423 6.708885,-5.921452 3.306321,-4.957364 3.830997,-11.232138 1.393211,-16.661847 -0.747962,-1.665943 -1.800542,-3.263942 -3.040326,-4.615735 -1.469818,-1.602613 -3.164402,-2.875054 -5.127893,-3.850467 -1.495754,-0.743053 -2.87579,-1.215491 -4.469971,-1.530236 -1.757477,-0.346986 -3.659393,-0.426072 -5.422155,-0.225465 -4.350261,0.495068 -8.386135,2.583982 -11.238119,5.816703 -2.443206,2.769368 -3.905016,6.093206 -4.286536,9.74665 -0.170822,1.635792 -0.08774,3.395292 0.238758,5.056624 1.172568,5.96635 5.411452,10.895523 11.185852,13.007437 1.65461,0.605151 3.509368,0.976461 5.27705,1.056422 0.683328,0.03091 0.879576,0.03117 1.520849,0.0021 z m -1.16378,-2.237851 c -3.528398,-0.1173 -6.817132,-1.373649 -9.508606,-3.632438 -0.479134,-0.402108 -1.502839,-1.43455 -1.876128,-1.892138 -1.329087,-1.629235 -2.215216,-3.269605 -2.829032,-5.237006 -0.112283,-0.359888 -0.305659,-1.109923 -0.33585,-1.302639 l -0.01761,-0.112412 H 19.57 23.911103 v -2.309138 -2.309141 l 1.739057,-0.909257 c 0.956482,-0.500091 2.379953,-1.246526 3.163271,-1.658744 l 1.424213,-0.74949 1.419111,0.73783 c 0.780512,0.405805 2.19871,1.139228 3.151555,1.629828 0.952844,0.490601 1.759225,0.908902 1.791955,0.929558 l 0.05951,0.03756 v 2.300497 2.300499 h 4.301427 4.30143 l -0.01786,0.112412 c -0.0098,0.06182 -0.06528,0.302845 -0.123238,0.535601 -0.869284,3.490956 -2.961626,6.555244 -5.922603,8.673804 -2.082626,1.490103 -4.520273,2.432283 -7.114925,2.750002 -0.630424,0.07719 -1.676753,0.125129 -2.287884,0.104814 z M 24.065,59.926979 l 0.137048,-0.0407 v -0.161772 c 0,-0.151896 -0.0028,-0.159295 -0.04629,-0.121187 -0.141621,0.124172 -0.3881,0.165805 -0.50342,0.08503 -0.03241,-0.0227 -0.07672,-0.07567 -0.09846,-0.11771 -0.05421,-0.104829 -0.0511,-0.355465 0.0056,-0.451455 0.04948,-0.08377 0.179025,-0.156921 0.276267,-0.15601 0.07302,7.05e-4 0.272457,0.08682 0.298471,0.128912 0.04115,0.06659 0.06783,0.02033 0.06783,-0.11762 0,-0.144503 -0.0016,-0.147489 -0.09919,-0.189135 -0.151344,-0.06457 -0.469311,-0.05891 -0.601727,0.0107 -0.214469,0.112748 -0.312631,0.289179 -0.313406,0.563306 -8.23e-4,0.288123 0.129878,0.493784 0.366305,0.576427 0.118255,0.04134 0.355948,0.03725 0.510965,-0.0088 z m 1.280533,-0.05441 c 0.164099,-0.115334 0.244243,-0.289711 0.24216,-0.526897 -0.0013,-0.149026 -0.0153,-0.213923 -0.06548,-0.303766 -0.08959,-0.160408 -0.221916,-0.258139 -0.397163,-0.293334 -0.454223,-0.09122 -0.80717,0.228676 -0.753753,0.683173 0.04398,0.374216 0.257877,0.545601 0.658286,0.527455 0.17646,-0.008 0.221729,-0.0204 0.315949,-0.08663 z m -0.473922,-0.155197 c -0.210524,-0.09157 -0.253861,-0.488022 -0.07311,-0.668813 0.114404,-0.114427 0.24004,-0.117683 0.36127,-0.0094 0.0797,0.07122 0.08642,0.09045 0.09568,0.273823 0.01206,0.238805 -0.03379,0.349292 -0.168258,0.405478 -0.108008,0.04513 -0.109262,0.04512 -0.215589,-0.0012 z m 9.889592,0.222694 c 0.294129,-0.08169 0.456995,-0.445804 0.355526,-0.794846 -0.08963,-0.308302 -0.388308,-0.468234 -0.738627,-0.395507 -0.285422,0.05925 -0.450846,0.278776 -0.451222,0.598784 -2.35e-4,0.297783 0.128221,0.504272 0.365666,0.58727 0.104196,0.03642 0.345038,0.03863 0.468657,0.0043 z m -0.341311,-0.222094 c -0.128671,-0.05688 -0.174286,-0.170588 -0.16245,-0.404955 0.0093,-0.183374 0.01597,-0.202607 0.09568,-0.273824 0.137058,-0.122461 0.353028,-0.08672 0.424553,0.07026 0.158384,0.347614 -0.06986,0.735797 -0.357787,0.608517 z m -8.287028,0.01167 v -0.211596 h 0.07426 c 0.06222,0 0.09949,0.0343 0.229908,0.211596 l 0.155648,0.211596 h 0.181619 c 0.209383,0 0.211396,0.02261 -0.02514,-0.28217 l -0.167668,-0.216046 0.08285,-0.05899 c 0.08561,-0.06096 0.156211,-0.192458 0.156211,-0.290941 0,-0.09577 -0.07612,-0.222927 -0.165737,-0.276842 -0.07382,-0.04442 -0.136224,-0.0515 -0.455826,-0.05174 l -0.370294,-2.35e-4 -0.0071,0.588503 -0.0071,0.588501 h 0.159203 0.159203 z m 0,-0.578206 v -0.162381 h 0.143972 c 0.118793,0 0.151175,0.01028 0.185147,0.05879 0.05277,0.07534 0.05184,0.107474 -0.0051,0.177043 -0.03208,0.03918 -0.08891,0.06151 -0.185146,0.07274 l -0.13886,0.01619 z m 1.296027,0.608277 v -0.181526 l 0.167343,-0.01343 c 0.313139,-0.02514 0.46867,-0.153333 0.486926,-0.401353 0.0075,-0.101643 -0.0031,-0.155439 -0.04329,-0.219348 -0.09232,-0.146937 -0.185366,-0.177262 -0.577918,-0.188343 l -0.350456,-0.0099 v 0.597709 0.597709 h 0.158697 0.158697 z m 0,-0.59537 v -0.175288 h 0.113136 c 0.143184,0 0.230707,0.05886 0.230707,0.155142 0,0.118962 -0.0554,0.167718 -0.207154,0.182299 l -0.136689,0.01313 z m 1.745669,0.671097 v -0.105798 h -0.27772 -0.277721 v -0.145471 -0.145473 h 0.251273 0.251268 v -0.119022 -0.119025 h -0.251268 -0.251273 v -0.105798 -0.105798 h 0.277721 0.27772 V 58.870033 58.75101 h -0.436418 -0.436417 v 0.595114 0.595114 h 0.436417 0.436418 z m 0.555441,-0.105798 v -0.211596 h 0.07426 c 0.06222,0 0.09949,0.0343 0.229909,0.211596 l 0.155646,0.211596 h 0.180059 c 0.09903,0 0.18006,-0.0064 0.18006,-0.01414 0,-0.0078 -0.08235,-0.117874 -0.18301,-0.244658 l -0.183009,-0.230514 0.08041,-0.06393 c 0.142365,-0.11319 0.19011,-0.304057 0.113242,-0.452704 -0.07034,-0.13603 -0.170209,-0.167188 -0.574829,-0.179351 l -0.363683,-0.01094 v 0.598116 0.598116 h 0.145473 0.145473 z m 0,-0.578206 v -0.162381 h 0.143584 c 0.152474,0 0.22671,0.04296 0.22671,0.131207 0,0.09467 -0.08573,0.160365 -0.231434,0.17736 l -0.13886,0.01619 z m 1.196841,0.677393 0.03747,-0.112411 h 0.222616 0.222618 l 0.03886,0.112411 0.03886,0.112409 h 0.152901 c 0.0841,0 0.1529,-0.0097 0.1529,-0.02153 0,-0.0171 -0.33199,-0.924902 -0.410888,-1.123545 -0.01593,-0.0401 -0.04582,-0.04622 -0.193653,-0.03968 l -0.174815,0.0077 -0.147242,0.396744 c -0.08099,0.218208 -0.17913,0.483035 -0.218102,0.588501 l -0.07086,0.191759 h 0.155931 0.155933 z m 0.12565,-0.357069 c 9e-6,-0.01649 0.04975,-0.158206 0.123019,-0.350456 0.01292,-0.03391 0.141462,0.28321 0.141462,0.348995 0,0.01172 -0.05951,0.02129 -0.132249,0.02129 -0.07273,0 -0.132241,-0.0089 -0.132232,-0.01983 z m 1.48116,-0.0066 v -0.476092 h 0.185146 0.185148 v -0.119022 -0.119022 h -0.515767 -0.515767 v 0.119022 0.119022 h 0.185148 0.185146 v 0.476092 0.476092 h 0.145473 0.145473 z m 1.211663,0.376907 c -0.0078,-0.0938 -0.0136,-0.09963 -0.107396,-0.107396 l -0.09918,-0.0082 v -0.381922 -0.38192 h 0.107394 0.107395 l -0.0082,-0.09919 -0.0082,-0.09918 -0.350456,-0.0074 -0.350456,-0.0074 v 0.10497 c 0,0.102206 0.0026,0.105184 0.09918,0.113178 l 0.09919,0.0082 0.0073,0.376907 0.0073,0.376904 h -0.106522 -0.106526 v 0.105798 0.105799 h 0.358665 0.358667 z m 1.915304,-0.302571 0.0073,-0.401753 0.247375,0.401753 0.247373,0.401756 h 0.155983 0.155982 v -0.595114 -0.595114 h -0.144683 -0.144682 l -0.0074,0.333632 -0.0074,0.33363 -0.211349,-0.33363 -0.211349,-0.333632 h -0.178811 -0.178782 v 0.595114 0.595114 h 0.13156 0.131559 z M 24.573036,58.300193 c 0.242879,-0.02994 0.480726,-0.124113 0.628001,-0.248659 0.277784,-0.234916 0.342766,-0.706996 0.136018,-0.98813 -0.07739,-0.105231 -0.348378,-0.26953 -0.444931,-0.269758 -0.02313,-5.4e-5 -4e-4,-0.02511 0.05051,-0.05568 0.232782,-0.139754 0.324363,-0.295699 0.32675,-0.55639 0.0014,-0.149945 -0.0099,-0.194833 -0.07661,-0.304245 -0.06316,-0.103643 -0.112673,-0.145645 -0.257214,-0.218219 -0.163864,-0.08228 -0.207463,-0.09168 -0.515766,-0.111169 -0.185224,-0.01172 -0.559939,-0.02186 -0.8327,-0.02254 l -0.495929,-0.0012 v 1.401827 1.401824 h 0.62887 c 0.345879,0 0.729728,-0.01242 0.852998,-0.02763 z m -0.767731,-0.848721 v -0.347353 l 0.337232,0.01238 c 0.469048,0.01722 0.562052,0.07055 0.562052,0.322276 0,0.281291 -0.129114,0.360053 -0.59024,0.360053 h -0.309044 z m 0,-1.109709 v -0.293285 l 0.29041,0.0089 c 0.276578,0.0085 0.2939,0.01245 0.363681,0.08229 0.06032,0.06037 0.07327,0.09649 0.07327,0.204249 0,0.22195 -0.120971,0.289212 -0.522378,0.290447 l -0.204984,7.06e-4 z m 2.903406,1.463678 0.0072,-0.509154 h 0.157884 0.157883 l 0.387023,0.515764 0.387026,0.515767 h 0.419929 c 0.230961,0 0.41993,-0.0099 0.41993,-0.02193 0,-0.01207 -0.20176,-0.281154 -0.448359,-0.597984 l -0.448359,-0.576053 0.154418,-0.103116 c 0.24621,-0.164412 0.35298,-0.341528 0.388604,-0.644637 0.04098,-0.348696 -0.178667,-0.66841 -0.53654,-0.78097 -0.162455,-0.05109 -0.261475,-0.05845 -0.967843,-0.07186 l -0.786874,-0.01494 v 1.406518 1.40652 l 0.350457,-0.0074 0.350456,-0.0074 z m 0.006,-1.384843 V 56.04745 l 0.29756,0.0096 c 0.24027,0.0077 0.315378,0.02 0.390128,0.06372 0.175429,0.102575 0.198179,0.35801 0.0472,0.529965 -0.09741,0.110938 -0.209279,0.142687 -0.503455,0.142875 l -0.231434,1.46e-4 z m 2.778474,1.616276 0.09861,-0.277722 h 0.512111 0.512113 l 0.09541,0.277722 0.09541,0.27772 0.360843,0.0074 c 0.30083,0.0061 0.360843,9.41e-4 0.360843,-0.03096 0,-0.02817 -0.855207,-2.372387 -0.992735,-2.721193 -0.0168,-0.04259 -0.05645,-0.04627 -0.427658,-0.03967 l -0.409148,0.0073 -0.513167,1.3886 c -0.282241,0.76373 -0.513318,1.391911 -0.513504,1.39596 -1.86e-4,0.004 0.162247,0.004 0.360962,0 l 0.361299,-0.0074 z m 0.432898,-1.269415 c 0.08852,-0.261762 0.167771,-0.476002 0.176114,-0.476092 0.0084,-8.9e-5 0.08818,0.214078 0.177414,0.475929 l 0.162243,0.476092 h -0.338359 -0.338356 z m 3.52764,1.302477 0.0076,-0.244658 H 33.23551 33.009696 v -0.899284 -0.899285 h 0.225814 0.225813 l -0.0076,-0.244658 -0.0076,-0.244657 h -0.80671 -0.806711 l -0.0076,0.244657 -0.0076,0.244658 h 0.225814 0.225813 v 0.899285 0.899284 h -0.224823 -0.224821 v 0.251652 0.251653 l 0.813324,-0.007 0.813324,-0.007 z m 1.248747,-0.687897 0.01322,-0.932556 0.581229,0.939166 0.581229,0.939169 h 0.33789 0.337893 V 56.92518 55.522539 l -0.324007,0.0074 -0.324006,0.0074 -0.01322,0.775855 -0.01322,0.775858 -0.497826,-0.782469 -0.497827,-0.782471 h -0.421249 -0.421294 v 1.402641 1.402638 l 0.324007,-0.0074 0.324006,-0.0074 z M 19.665959,55.046546 c 0.244092,-0.0755 0.383906,-0.16008 0.526152,-0.318293 0.137193,-0.152592 0.201268,-0.319792 0.201063,-0.52466 -1.99e-4,-0.198645 -0.03835,-0.322862 -0.139772,-0.455132 -0.152759,-0.199216 -0.384773,-0.297117 -1.057678,-0.4463 -0.287666,-0.06377 -0.415824,-0.142403 -0.415824,-0.255113 0,-0.106518 0.0498,-0.169385 0.180796,-0.228232 0.268059,-0.120422 0.762343,-0.05045 1.10618,0.156601 0.08124,0.04892 0.164119,0.08894 0.184177,0.08894 0.02897,0 0.03647,-0.06539 0.03647,-0.318048 V 52.42826 l -0.07274,-0.02772 c -0.328022,-0.124996 -0.933659,-0.187585 -1.26822,-0.131066 -0.409893,0.06925 -0.782836,0.332621 -0.86559,0.611284 -0.110552,0.37227 0.02142,0.72457 0.341755,0.912299 0.154433,0.0905 0.360371,0.157215 0.692746,0.224411 0.422709,0.08546 0.537256,0.157323 0.537256,0.337074 0,0.152628 -0.188015,0.240929 -0.516821,0.242725 -0.329724,0.0019 -0.629737,-0.09024 -0.929587,-0.28519 -0.07544,-0.04904 -0.149825,-0.08134 -0.165309,-0.07177 -0.01746,0.0108 -0.02815,0.14198 -0.02815,0.345215 v 0.327816 l 0.252319,0.08082 c 0.32735,0.10486 0.538265,0.132621 0.91146,0.119961 0.212971,-0.0072 0.359682,-0.02749 0.489316,-0.06758 z m 2.981071,0.0044 c 0.298704,-0.09636 0.529151,-0.316383 0.620653,-0.592568 0.03921,-0.118336 0.04698,-0.279922 0.05528,-1.149389 l 0.0097,-1.011693 h -0.371992 -0.371993 v 0.973027 c 0,0.956466 -0.001,0.975037 -0.05951,1.091044 -0.07744,0.153563 -0.233452,0.237037 -0.44303,0.237037 -0.209577,0 -0.365591,-0.08347 -0.443029,-0.237037 -0.0585,-0.116007 -0.05951,-0.134578 -0.05951,-1.091044 v -0.973004 h -0.372266 -0.372217 l 0.0093,1.02492 c 0.009,0.990206 0.01134,1.029975 0.06893,1.174281 0.0709,0.177669 0.231592,0.368442 0.387107,0.459581 0.06184,0.03624 0.200514,0.08963 0.308166,0.118653 0.267253,0.07204 0.773425,0.0604 1.034388,-0.02378 z m 11.798583,0.03789 c 0.386673,-0.06893 0.698701,-0.267582 0.823344,-0.524173 0.187103,-0.385174 0.06794,-0.805343 -0.286507,-1.010258 -0.123111,-0.07117 -0.441581,-0.169773 -0.809298,-0.250561 -0.138406,-0.03041 -0.290161,-0.07871 -0.337232,-0.107336 -0.07311,-0.04446 -0.08559,-0.06719 -0.08559,-0.155884 0,-0.192027 0.174396,-0.281154 0.542217,-0.27711 0.231542,0.0025 0.446933,0.0635 0.69633,0.197048 0.106586,0.05707 0.21073,0.103772 0.231433,0.103772 0.03045,0 0.03764,-0.06007 0.03764,-0.314185 v -0.314186 l -0.07274,-0.02739 c -0.264615,-0.09964 -0.637299,-0.164125 -0.94557,-0.163612 -0.726229,0.0012 -1.229166,0.358022 -1.229498,0.872269 -1.43e-4,0.222762 0.0349,0.343255 0.139514,0.47968 0.148818,0.194076 0.415652,0.31399 0.9431,0.423825 0.421376,0.08775 0.562297,0.19011 0.515947,0.374775 -0.03142,0.125182 -0.175076,0.186939 -0.461117,0.198222 -0.35921,0.01416 -0.696677,-0.08282 -0.989778,-0.284483 -0.06486,-0.04463 -0.130661,-0.08114 -0.146224,-0.08114 -0.01863,0 -0.0283,0.116246 -0.0283,0.34025 v 0.34025 l 0.112411,0.04174 c 0.443969,0.16484 0.925159,0.214206 1.349904,0.138486 z m 3.06378,4.71e-4 c 0.49256,-0.104404 0.85768,-0.458701 0.989579,-0.960244 0.0241,-0.09165 0.04004,-0.268083 0.04004,-0.443211 0,-0.481635 -0.110442,-0.787231 -0.383014,-1.059803 -0.267284,-0.267283 -0.577787,-0.381974 -1.032298,-0.381306 -0.461341,7.06e-4 -0.779563,0.115098 -1.039626,0.373799 -0.270712,0.269297 -0.387988,0.59191 -0.387988,1.06731 0,0.229841 0.01317,0.361172 0.04778,0.476091 0.14783,0.491055 0.496705,0.821125 0.978723,0.925964 0.214803,0.04672 0.570016,0.04735 0.786805,0.0014 z m -0.651239,-0.540642 c -0.363887,-0.166924 -0.520521,-0.709532 -0.366409,-1.269311 0.0895,-0.325093 0.271,-0.484919 0.569859,-0.501806 0.350529,-0.01981 0.577191,0.145298 0.684504,0.498604 0.04899,0.161278 0.05556,0.23181 0.04397,0.471593 -0.01727,0.357142 -0.06881,0.505789 -0.231977,0.668952 -0.183758,0.183757 -0.469577,0.237647 -0.699947,0.131968 z m -11.250809,0.487693 c 0.333873,-0.07077 0.582265,-0.24567 0.693804,-0.488532 0.04177,-0.09096 0.05585,-0.174437 0.05615,-0.332983 3.53e-4,-0.183215 -0.0093,-0.228065 -0.07177,-0.334364 -0.08014,-0.136319 -0.269433,-0.276941 -0.407723,-0.302884 -0.04882,-0.0092 -0.08839,-0.02426 -0.08794,-0.03355 4.7e-4,-0.0093 0.05281,-0.04841 0.116328,-0.08693 0.07087,-0.04298 0.144636,-0.119624 0.190923,-0.198372 0.06354,-0.108101 0.07543,-0.157516 0.07542,-0.313477 -1.4e-5,-0.245555 -0.0772,-0.389698 -0.270589,-0.5053 -0.208439,-0.1246 -0.357612,-0.142713 -1.17531,-0.142713 h -0.736176 v 1.3886 1.3886 l 0.72075,-4.71e-4 c 0.516758,-2.35e-4 0.770389,-0.01099 0.896138,-0.03764 z m -0.902751,-0.808271 v -0.343843 l 0.337232,4e-5 c 0.413642,5.2e-5 0.501498,0.03213 0.561237,0.204943 0.03418,0.09887 0.03418,0.125661 0,0.222425 -0.02137,0.06051 -0.06861,0.131809 -0.104983,0.158446 -0.08736,0.06399 -0.300056,0.101834 -0.572275,0.101834 h -0.221211 z m 0,-1.137329 v -0.290946 l 0.204984,7.05e-4 c 0.377827,0.0012 0.535603,0.08285 0.535603,0.277318 0,0.231824 -0.115481,0.303939 -0.486701,0.303939 h -0.253886 z m 2.889264,1.077816 0.007,-0.905895 0.240183,0.568666 0.240186,0.568663 h 0.258042 0.258044 l 0.248605,-0.58189 0.248605,-0.581887 4.71e-4,0.919119 4.71e-4,0.919122 h 0.357067 0.357069 v -1.3886 -1.3886 l -0.416579,2.35e-4 -0.416582,2.35e-4 -0.304101,0.686117 c -0.167254,0.377365 -0.311675,0.677755 -0.320935,0.667533 -0.0093,-0.01021 -0.15108,-0.319117 -0.315157,-0.686434 l -0.29832,-0.667851 H 27.31904 26.900151 v 1.3886 1.3886 h 0.343497 0.343497 z m 4.939799,0.641403 v -0.264496 h -0.648013 -0.648016 v -0.343346 -0.343349 l 0.601727,-0.0071 0.601728,-0.0071 v -0.264495 -0.264496 l -0.601728,-0.0071 -0.601727,-0.0071 v -0.23757 -0.237548 h 0.648016 0.648013 v -0.264496 -0.264495 h -1.005083 -1.005082 v 1.3886 1.3886 h 1.005082 1.005083 z m 7.226999,-0.67829 0.0069,-0.942787 0.58189,0.942503 0.58189,0.9425 0.350456,2.35e-4 0.350456,2.35e-4 v -1.3886 -1.3886 h -0.330225 -0.330226 l -0.007,0.786496 -0.007,0.786494 -0.499714,-0.786494 -0.499715,-0.786496 h -0.432631 -0.432632 v 1.3886 1.3886 h 0.330285 0.330284 z m -8.611715,-2.17631 c 0.102918,-0.06276 0.155347,-0.200363 0.115884,-0.304156 -0.01501,-0.03948 -0.265317,-0.367998 -0.556235,-0.730038 -0.290917,-0.362038 -0.528941,-0.663552 -0.528941,-0.670032 0,-0.02313 0.505584,-0.335563 0.523721,-0.323654 0.01016,0.0067 0.351757,0.458769 0.759081,1.004644 0.778785,1.04369 0.828505,1.096838 0.992381,1.060845 0.106499,-0.02339 0.211071,-0.154032 0.211071,-0.263688 0,-0.06657 -0.04177,-0.144499 -0.17257,-0.321978 l -0.172574,-0.234153 0.218859,-0.02914 c 1.149537,-0.153065 2.045363,-1.040139 1.829777,-1.811901 -0.0085,-0.03048 0.02143,-0.05519 0.105979,-0.08748 0.158264,-0.06044 0.408889,-0.22466 0.652504,-0.427545 0.299392,-0.249337 0.425701,-0.518978 0.472841,-1.009406 0.054,-0.561813 -0.08061,-1.206678 -0.372938,-1.786568 -0.242277,-0.480599 -0.724065,-1.028251 -1.199726,-1.363738 -0.658341,-0.46433 -1.581961,-0.785529 -2.644954,-0.919813 -0.520533,-0.06576 -1.595973,-0.06638 -2.036613,-0.0012 -0.744065,0.110096 -1.417449,0.31778 -2.068608,0.637998 -1.440472,0.708372 -2.384889,1.820022 -2.394171,2.818122 -0.0044,0.477068 0.192946,0.856348 0.591208,1.136037 0.258824,0.181765 0.622808,0.315534 1.121065,0.412008 0.04889,0.0095 0.05238,0.02709 0.04361,0.220231 -0.01821,0.400781 0.122417,0.713113 0.484568,1.076287 0.193029,0.193573 0.285229,0.263223 0.482644,0.364603 0.134218,0.06893 0.336556,0.149272 0.449641,0.178548 0.406769,0.105307 0.997073,0.09298 1.426363,-0.02979 0.09649,-0.02759 0.185729,-0.04381 0.198314,-0.03603 0.01259,0.0078 0.278571,0.33287 0.591076,0.722427 0.312509,0.389557 0.595086,0.721251 0.627953,0.737096 0.08904,0.04293 0.156158,0.03793 0.248789,-0.01856 z m 0.90462,-1.359435 c -0.06766,-0.01915 -0.153985,-0.05512 -0.191823,-0.07991 -0.109353,-0.07165 -0.680286,-0.84655 -0.640237,-0.868961 0.08464,-0.04737 0.466843,-0.15685 0.714228,-0.20459 0.441654,-0.08523 0.922749,-0.114108 1.426845,-0.08564 0.244968,0.01383 0.457385,0.03714 0.472038,0.05179 0.05093,0.05092 0.02776,0.286041 -0.04169,0.423089 -0.245293,0.48406 -1.218591,0.911704 -1.739364,0.764231 z m -3.659258,-0.495468 c -0.206079,-0.03086 -0.498107,-0.137311 -0.646907,-0.235823 -0.188049,-0.124497 -0.384193,-0.333005 -0.480475,-0.510754 -0.07782,-0.143663 -0.08886,-0.187841 -0.08742,-0.349592 0.0025,-0.279694 0.117917,-0.463924 0.369645,-0.589993 0.224401,-0.112383 0.455593,-0.139318 1.400602,-0.163186 0.494607,-0.01249 1.000455,-0.03653 1.124107,-0.05341 0.761984,-0.104034 1.121907,-0.47967 1.076475,-1.123467 -0.0087,-0.123225 -0.02971,-0.25117 -0.0467,-0.284324 -0.08587,-0.167588 -0.283851,-0.204143 -0.424586,-0.0784 -0.07697,0.06877 -0.08268,0.08543 -0.07483,0.21821 0.02597,0.439089 -0.0014,0.519079 -0.214344,0.626044 -0.194502,0.09771 -0.342993,0.113785 -1.281428,0.138744 -1.048814,0.0279 -1.287071,0.05427 -1.662383,0.18405 -0.190542,0.06589 -0.318241,0.14061 -0.44486,0.260312 -0.0946,0.08943 -0.101025,0.0913 -0.251271,0.07329 -0.445141,-0.05336 -0.887575,-0.229354 -1.091643,-0.43425 -0.16755,-0.16823 -0.222339,-0.292859 -0.234537,-0.533501 -0.0167,-0.329531 0.142756,-0.716874 0.461714,-1.121552 l 0.123842,-0.157121 0.04385,0.157121 c 0.199354,0.714254 0.807017,1.118318 1.310994,0.871745 0.225637,-0.110393 0.514614,-0.468328 0.514287,-0.63701 -1.79e-4,-0.09241 -0.09747,-0.216267 -0.195217,-0.248526 -0.136164,-0.04494 -0.244136,0.0151 -0.360123,0.200283 -0.138331,0.220837 -0.270537,0.271522 -0.438109,0.167959 -0.190222,-0.117564 -0.355377,-0.492798 -0.355377,-0.807421 0,-0.199543 0.003,-0.203152 0.370293,-0.448413 0.600789,-0.401155 1.289477,-0.691628 2.035956,-0.858715 0.12329,-0.0276 0.228923,-0.04541 0.234744,-0.0396 0.02,0.02 -0.07973,0.238019 -0.248135,0.542495 -0.254381,0.459924 -0.30752,0.588628 -0.308952,0.748283 -0.0027,0.296717 0.190632,0.467666 0.528801,0.467666 0.136175,0 0.163381,-0.0092 0.228314,-0.07694 0.05338,-0.05571 0.07372,-0.103814 0.07372,-0.174325 0,-0.07051 -0.02035,-0.118613 -0.07372,-0.174326 -0.04054,-0.04232 -0.08637,-0.07713 -0.101829,-0.07735 -0.01546,-2.21e-4 -0.04449,-0.01078 -0.06449,-0.02346 -0.02872,-0.01819 0.0047,-0.09736 0.158697,-0.376015 0.240849,-0.435796 0.330188,-0.632051 0.367031,-0.806266 l 0.02853,-0.134928 0.261098,-0.0159 c 0.320175,-0.0195 1.105813,0.02094 1.481889,0.07629 1.108867,0.163205 1.980082,0.53734 2.592229,1.113205 0.661844,0.622612 1.013611,1.447734 0.972211,2.280453 -0.01974,0.39701 -0.07968,0.544831 -0.292983,0.722483 -0.405068,0.337371 -0.612954,0.419005 -1.058102,0.415511 -0.16236,-0.0012 -0.352881,-0.01021 -0.423378,-0.01983 -0.126584,-0.01729 -0.128939,-0.01939 -0.189293,-0.168035 -0.03361,-0.08279 -0.128483,-0.264985 -0.210823,-0.404889 -0.361428,-0.614121 -0.403541,-0.775889 -0.290795,-1.117024 0.07942,-0.240298 0.0744,-0.317794 -0.02717,-0.419362 -0.07569,-0.07569 -0.233621,-0.08658 -0.325214,-0.02242 -0.141871,0.09937 -0.25752,0.489509 -0.235434,0.794216 0.01863,0.256915 0.113207,0.511861 0.332936,0.897423 0.102293,0.179492 0.193206,0.35511 0.202026,0.390256 0.01581,0.06303 0.01285,0.06415 -0.217165,0.08183 -0.29276,0.02249 -0.803231,0.124916 -1.079934,0.21666 -0.334823,0.111014 -0.605397,0.247565 -1.072542,0.541278 -0.476534,0.299618 -0.703787,0.407527 -0.972453,0.46176 -0.243244,0.0491 -0.621042,0.06705 -0.811373,0.03856 z m 5.202845,-3.116079 c 0.08934,-0.0868 0.129094,-0.305078 0.09578,-0.525857 -0.08556,-0.567049 -0.759024,-1.136192 -1.556014,-1.314991 -0.229248,-0.05143 -0.642705,-0.0593 -0.830109,-0.01581 -0.403468,0.09364 -0.783311,0.441246 -0.783311,0.716832 0,0.126671 0.12396,0.237064 0.266199,0.237064 0.09538,0 0.123497,-0.01388 0.193793,-0.0956 0.04522,-0.05258 0.12162,-0.135776 0.169774,-0.184871 0.395547,-0.403287 1.651863,-0.02518 1.951544,0.587348 0.06189,0.126497 0.06882,0.165341 0.05429,0.304331 -0.02021,0.193309 0.02548,0.301349 0.149922,0.354523 0.106445,0.04549 0.19685,0.02573 0.288132,-0.06296 z m -18.582822,1.775252 c -0.29219,-2.68114 0.133776,-5.376555 1.237602,-7.831236 1.092021,-2.428423 2.851287,-4.566038 5.040677,-6.124724 2.784202,-1.98215 6.14613,-2.983327 9.55238,-2.844684 0.71958,0.02929 1.219149,0.07862 1.873817,0.185031 2.777662,0.451485 5.323793,1.620441 7.485216,3.436541 0.459174,0.385812 1.442078,1.370177 1.809744,1.812433 0.401099,0.482472 0.75657,0.961342 1.079861,1.454723 1.900016,2.899672 2.744009,6.336505 2.396887,9.760399 l -0.03078,0.303646 H 41.641822 37.82391 l -0.0068,-1.933479 -0.0068,-1.933478 -3.792008,-1.99604 -3.792009,-1.99604 -2.106238,1.124516 c -1.158446,0.618486 -2.838244,1.515601 -3.732899,1.993594 l -1.626646,0.869074 -0.0068,1.935928 -0.0068,1.935925 h -3.858046 -3.858043 z m 17.104252,-7.804688 c 0.365836,-0.180102 0.680877,-0.608906 1.020566,-1.389106 0.278218,-0.639012 0.627982,-1.710695 0.834318,-2.556363 0.169804,-0.695946 0.316355,-1.220264 0.441562,-1.579797 0.168908,-0.485013 0.396104,-0.932908 0.473224,-0.932908 0.0501,0 0.273623,0.356778 0.433525,0.691972 0.290509,0.608985 0.729671,1.890837 0.729671,2.129813 v 0.114113 h 1.58697 1.586972 v -0.462602 -0.462599 l -1.206273,-0.0069 -1.206273,-0.0069 -0.151613,-0.449641 C 36.10335,34.389546 35.609553,33.64347 35.01018,33.54948 c -0.307845,-0.04828 -0.588625,0.06139 -0.829025,0.323784 -0.389032,0.42463 -0.688165,1.193694 -1.080955,2.779116 -0.391274,1.5793 -0.891892,2.899264 -1.277925,3.369469 l -0.07366,0.08973 -0.06816,-0.08973 c -0.12653,-0.166564 -0.284244,-0.522817 -0.440567,-0.995177 -0.164497,-0.497054 -0.23652,-0.767047 -0.594571,-2.228819 -0.324295,-1.323971 -0.489128,-1.845659 -0.756305,-2.393683 -0.319653,-0.655657 -0.676598,-0.941898 -1.129251,-0.905561 -0.227477,0.01826 -0.432662,0.122895 -0.633714,0.32317 -0.532145,0.53009 -1.074673,1.873566 -1.596999,3.954705 -0.285845,1.13891 -0.587672,1.988681 -0.78914,2.221761 l -0.05715,0.06612 -0.100101,-0.109664 c -0.111235,-0.121784 -0.34525,-0.556954 -0.495753,-0.921803 -0.231273,-0.560655 -0.593906,-1.678062 -0.593906,-1.830045 v -0.08755 h -1.573747 -1.573747 v 0.475824 0.475825 l 1.204096,0.0069 1.204096,0.0069 0.128335,0.383517 c 0.26505,0.792082 0.561367,1.469489 0.814186,1.861304 0.385772,0.597865 0.870684,0.825113 1.328746,0.622704 0.552139,-0.243978 0.959371,-1.09964 1.42138,-2.986548 0.377342,-1.541119 0.89117,-2.925738 1.257897,-3.389683 0.09981,-0.126269 0.106765,-0.13021 0.154127,-0.08735 0.07507,0.06794 0.270874,0.46586 0.389912,0.792404 0.157474,0.431982 0.321554,1.027223 0.587603,2.131683 0.386684,1.605269 0.583216,2.233167 0.878578,2.806952 0.230848,0.44846 0.460562,0.684563 0.783544,0.805345 0.157648,0.05895 0.424282,0.03057 0.620574,-0.06607 z"
       id="path1"
       inkscape:export-filename="SB_Logo_PCB_Traced.svg"
       inkscape:export-xdpi="96"
       inkscape:export-ydpi="96" /></g></svg>
